<?xml version="1.0" encoding="utf-8"?>
<!-- Generator: Adobe Illustrator 19.0.0, SVG Export Plug-In . SVG Version: 6.00 Build 0)  -->
<svg version="1.1" id="Layer_1" xmlns="http://www.w3.org/2000/svg" xmlns:xlink="http://www.w3.org/1999/xlink" x="0px" y="0px"
	 viewBox="-388 203.8 182.1 155.2" style="enable-background:new -388 203.8 182.1 155.2;" xml:space="preserve">
<style type="text/css">
	.st0{fill:#FFFFFF;}
</style>
<g id="Layer_2">
	<path id="XMLID_2_" class="st0" d="M-207.8,248.8c0-7.7-0.7-16.2-2.9-23.6c-1.8-5.8-5-11.3-10.1-14.6c-4.5-2.9-10.3-3.8-15.5-2.4
		c-7.4,2.1-12.7,8.4-17.5,14.3c-4.6,5.6-9.3,11.3-14.7,16.2c-5.4,4.9-11.6,9-18.5,11.3c-1.7,0.6-3.6,1.1-4.4,2.7
		c10,2.4,21.1,0.2,29.4-6c5.6-4.2,9.8-10,14.2-15.4c4.1-5.1,9.1-12.1,16.1-13c7.2-0.9,10.1,5.5,11.1,11.6c0.8,4.8,1.2,9.6,1.4,14.5
		c0.9,27.1-7.1,54.2-20.3,77.7c-2.5,4.4-5.2,8.7-8.3,12.8c-2.2,3-4.9,5.7-8.3,7.3c-3.5,1.7-7.5,2.1-11.3,1.6c-5.8-0.7-10.4-3-15-6.5
		c-0.4-0.3-0.9-0.7-1.5-0.7c-0.7,0-1.3,0.8-1.3,1.5c-0.1,0.7,0.2,1.4,0.5,2.1c3.7,7.7,11.7,13.3,20.3,14c11.8,1,20.1-6.5,26.4-15.5
		c7.5-10.7,13.3-22.8,18.1-34.9C-213,286.3-207.8,267.6-207.8,248.8z"/>
</g>
<g id="Layer_3">
	<path id="XMLID_73_" class="st0" d="M-283.4,280.9c1.1-2.1,2.4-4,4.1-5.6c2.9-2.8,6.8-4.7,10.8-4.4c0.4,0,0.9,0.1,1.3,0.3
		c0.8,0.5,1,1.7,0.6,2.7c-0.4,0.9-1.1,1.6-1.7,2.4c-8.5,9.6-5.4,23.7-6,35.4c-0.3,5.3-1.2,24.4-11,19.4c-2-1-2.6-3.7-2.3-5.9
		c0.7-5.4,4.1-13.6-1.9-17.3c-1.5-0.9-3.4-1.1-5.2-1.2c-3.4-0.1-6.7,0-10.1,0.5c-6.5,0.9-5.1,7.8-4.9,12.5c0.5,11.2-0.6,26-9.4,34.1
		c-5,4.7-12.4,4.2-18.1,1c-8.1-4.5-13.9-11.8-19.3-19.1c-18.9-25.5-33.1-56.8-29-89.3c0.7-5.8,2.1-11.6,4.5-16.9
		c5.5-12.3,17-22,30.5-23.6c9-1.1,17.9,1.7,25.3,6.8c3.6,2.5,6.6,6,10.1,8.7c5.4,4.2,11.1,8.7,17.6,11.2c2.3,0.9,4.8,1.3,7.2,2.2
		c0.7,0.3,1.4,0.6,1.9,1.1c0.2,0.2,0.6,0.6,0.6,0.8c-0.1,0.2-0.9,0.5-1.1,0.6c-3.9,1.8-8.6,1.9-12.8,1.1c-4.2-0.8-8.3-2.6-12-4.9
		c-5.5-3.5-10.6-7.6-16.2-11c-7.2-4.5-16.2-8-24.6-5c-7.6,2.7-13.1,9.4-16.5,16.5c-8.1,17-5.4,36,0.4,53.3
		c3.7,11,8.7,21.6,14.9,31.5c5.6,9,12.5,20.5,21.6,26.2c2,1.2,4.4,2.2,6.6,1.6c3.3-1,4.6-4.8,5.3-8.1c4.9-24,0.1-48.9,3.4-73.2
		c0.5-3.9,1.4-8,4.2-10.6c3.6-3.4,8.9-3.4,13.5-3.3c1,0,2,0.1,3,0.1c1,0.1,1.9,0,2.9,0.2c0.5,0.1,0.9,0.3,0.4,0.6
		c-0.3,0.2-0.7,0.4-1.1,0.5c-0.6,0.3-1.3,0.6-1.9,0.9c-2.5,1.2-4.1,3.5-5.4,5.9c-1.1,2-2,4.2-2.7,6.4c-1.3,4.4-1.8,9.1-1.8,13.7
		c0,2.8,0.2,5.5,0.5,8.3c0.2,1.3,0.4,2.7,1.2,3.8c2.2,3.1,8.3,3.2,11.6,2.8c5.6-0.7,7.3-4.4,9-9.2
		C-284.8,283.9-284.2,282.3-283.4,280.9z"/>
</g>
</svg>
