<?xml version="1.0" encoding="utf-8"?>
<!-- Generator: Adobe Illustrator 19.0.0, SVG Export Plug-In . SVG Version: 6.00 Build 0)  -->
<svg version="1.1" id="Layer_2" xmlns="http://www.w3.org/2000/svg" xmlns:xlink="http://www.w3.org/1999/xlink" x="0px" y="0px"
	 viewBox="0 0 616.3 352" style="enable-background:new 0 0 616.3 352;" xml:space="preserve">
<style type="text/css">
	.st0{fill:#FCFCFC;}
	.st1{fill:#FFFFFF;}
</style>
<path class="st0" d="M447,32.4c-0.2-2.6-1.1-5-2.8-7.1c-3.5-4.1-9.3-5.1-14.7-5c-16.8,0.2-32.5,8.5-45.7,18.8
	c-31.2,24.3-51.7,59.4-69.6,94.7c-1.5,3-3.1,6.1-5.6,8.3c-2.6,2.3-6,3.4-9.4,4.3c-30.7,8.1-64.7,2.4-91-15.3
	c12.5,12.2,29.8,18.4,47.1,20c15.8,1.5,31.7-0.5,47.2-3.5c1.3-0.3,2.7-0.7,4.1-0.8c0.3,1.1-1.8,4.1-2.3,5.1
	c-0.9,1.8-1.8,3.6-2.7,5.4c-1.8,3.6-3.5,7.3-5.3,10.9c-3.5,7.3-7.1,14.5-10.6,21.8c-1.1,2.2-2.1,4.4-3.2,6.5
	c-1.5,3.1-3.3,6.4-6.4,7.9c-2.4,1.1-5.1,0.9-7.8,1c-8.2,0-16.4,2.2-23.5,6.2c-4.2,2.4-8.4,5.8-9.6,10.5c-1.7,6.9,4.1,14.1,11,15.6
	c6.9,1.5,14.2-1.4,19.7-5.9c5.5-4.5,9.7-10.3,14.3-15.8c1.5-1.8,3.3-3.7,5.6-4.1c1.9-0.3,3.7,0.5,5.4,1.3c9.8,4.8,17.7,12.6,26.5,19
	s19.5,11.6,30.3,10c8.6-1.3,16-6.9,21.5-13.5c5.7-6.9,9.7-15.1,11.7-23.7c-8.6,12.1-13.5,28.9-27.5,33.7
	c-11.9,4.1-24.8-2.8-34.6-10.8c-9.8-8-19.2-17.6-31.6-20.1c13.5-17.4,25.7-35.9,36.4-55.2c2.7-4.8,5.3-9.8,9-13.8
	c5.4-5.9,12.7-9.5,19.7-13.3c23.7-12.8,45.7-29,65.1-47.7c9.1-8.8,17.8-18.4,24.3-29.3C445.1,43.6,447.4,37.7,447,32.4z M264,224.7
	c-1.2,1.5-2.4,2.8-3.8,3.9c-3.8,3-8.8,4.7-13.6,4.1c-2.7-0.3-5.6-1.3-7.3-3.7c-3.1-4.6-0.3-9.5,3.3-12.7c4.1-3.7,9.3-6,14.7-7.3
	c0.4-0.1,0.7-0.2,1.1-0.3c2.6-0.6,5.3-1,7.9-1.2c1.4-0.1,2.8-0.1,4.2,0c0.6,0,3.5,0,3.8,0.6c0.3,0.5-1.7,3.1-2.1,3.7
	c-0.8,1.3-1.6,2.7-2.5,4C267.9,218.9,266.1,222,264,224.7z M444.3,37.1c-1.1,4.8-4.2,9.3-6.7,13.4c-6.7,11-16.2,20.3-25.6,29
	c-2.7,2.6-5.6,5-8.4,7.4c-8.3,6.9-17,13.3-25.6,19.8c-11.7,8.8-24.2,17.6-37.8,23.1c-1,0.4-2,0.8-2.8,1.6c1.3-1.9,2-4,3.1-6
	c3.4-6.1,6.9-12,10.2-18.1c3.7-6.9,7.7-13.7,11.6-20.4c2-3.4,3.9-6.8,5.8-10.2c1-1.7,1.9-3.4,2.8-5.1c3.3-6.2,7-12.1,11.2-17.7
	c2.1-2.8,4.3-5.6,6.7-8.2c3.6-4,7.4-7.5,11.8-10.6c9.7-6.8,22.7-14.1,35.1-11.6c2.5,0.5,5,1.6,6.7,3.7
	C444.8,30.2,445.1,33.7,444.3,37.1z"/>
<g>
	<path class="st1" d="M15.2,333.2h28.2v3.4H10.4v-47.6h4.9V333.2z"/>
	<path class="st1" d="M84.6,323.2H58.6l-5.9,13.4h-5.1l21.6-47.6h4.6l21.6,47.6h-5L84.6,323.2z M60.1,319.8H83l-11.5-25.9
		L60.1,319.8z"/>
	<path class="st1" d="M136.5,324.8c0-2.6-1.1-4.7-3.3-6.3c-2.2-1.5-6.3-3-12.2-4.4c-5.9-1.4-10.2-2.9-13-4.5
		c-3.9-2.3-5.8-5.3-5.8-9.1c0-3.6,1.8-6.6,5.4-8.9c3.6-2.3,8.2-3.4,13.8-3.4c3.8,0,7.2,0.6,10.2,1.8c3,1.2,5.3,2.9,7,5.1
		c1.6,2.2,2.5,4.6,2.5,7.3h-4.9c0-3.3-1.3-5.9-4-7.9s-6.3-3-10.8-3c-4.4,0-7.9,0.8-10.4,2.4c-2.6,1.6-3.9,3.8-3.9,6.4
		c0,2.4,1.2,4.4,3.5,5.9c2.3,1.5,6.1,2.9,11.2,4c5.1,1.2,9,2.4,11.7,3.6c2.6,1.3,4.6,2.8,6,4.5c1.3,1.7,2,3.8,2,6.2
		c0,3.8-1.8,6.8-5.4,9c-3.6,2.3-8.3,3.4-14.2,3.4c-4,0-7.7-0.6-11.1-1.8c-3.4-1.2-5.9-2.9-7.7-5c-1.7-2.2-2.6-4.6-2.6-7.4h4.8
		c0,3.4,1.5,6,4.5,7.9c3,1.9,7,2.9,12,2.9c4.4,0,8-0.8,10.7-2.5C135.2,329.7,136.5,327.5,136.5,324.8z"/>
	<path class="st1" d="M194.4,336.6h-4.9v-22.8h-32.7v22.8H152v-47.6h4.8v21.4h32.7v-21.4h4.9V336.6z"/>
</g>
<g>
	<path class="st1" d="M322.8,336.6v-47.6h16.9c6.1,0,10.8,1.1,13.9,3.2c3.2,2.1,4.8,5.2,4.8,9.3c0,2.5-0.8,4.6-2.4,6.4
		c-1.6,1.8-3.8,3.1-6.6,3.9c3.3,0.6,6,2,8,4.1c2,2.1,3,4.6,3,7.3c0,4.2-1.6,7.5-4.9,9.9c-3.3,2.4-7.8,3.5-13.6,3.5H322.8z
		 M327.6,310.3h13.2c4-0.1,7.2-0.9,9.4-2.4c2.2-1.5,3.3-3.7,3.3-6.6c0-3.1-1.1-5.3-3.4-6.8s-5.8-2.2-10.4-2.2h-12.1V310.3z
		 M327.6,313.7v19.5h14.5c4.1,0,7.4-0.9,9.8-2.6s3.6-4.2,3.6-7.3c0-2.9-1.2-5.3-3.5-7s-5.5-2.6-9.6-2.6H327.6z"/>
	<path class="st1" d="M403.9,313.7h-26.7v19.4h30.7v3.4h-35.6v-47.6h35.4v3.4h-30.5v18h26.7V313.7z"/>
	<path class="st1" d="M449.1,323.2h-25.9l-5.9,13.4h-5.1l21.6-47.6h4.6l21.6,47.6h-5L449.1,323.2z M424.7,319.8h22.9l-11.5-25.9
		L424.7,319.8z"/>
	<path class="st1" d="M507.4,288.9v32.5c0,3.2-0.9,6-2.6,8.4c-1.7,2.4-4,4.2-7.1,5.5c-3,1.3-6.6,1.9-10.5,1.9
		c-6,0-10.8-1.4-14.5-4.1s-5.5-6.5-5.6-11.4v-32.8h4.8v32.2c0,4,1.4,7.1,4.1,9.3s6.5,3.3,11.2,3.3s8.4-1.1,11.2-3.3
		c2.7-2.2,4.1-5.3,4.1-9.3v-32.3H507.4z"/>
	<path class="st1" d="M559.9,292.3h-19.6v44.2h-4.8v-44.2H516v-3.4h44V292.3z"/>
	<path class="st1" d="M586.8,314.9l17.5-26h5.6l-20.6,29.7v17.9h-4.8v-17.9l-20.6-29.7h5.7L586.8,314.9z"/>
</g>
<path class="st1" d="M281.8,308.6c-0.2,0.7-0.6,2.1-1.9,3.2c-0.8,0.7-2.1,1.4-4.3,1.3c-0.3,0-0.3,0-0.9-0.2
	c-0.4-0.1-0.8-0.2-1.6-0.4c-2.8-0.6-4.4-1-6.1-1.1l-0.1,0c-2-0.1-5.3-0.3-8.1,1.9c-2,1.5-2.9,3.5-3.3,4.8l3.8,1.2
	c0.3-0.8,0.8-2,2-2.9c1.6-1.3,3.8-1.2,5.4-1.1l0.1,0c1.4,0.1,2.8,0.4,5.4,1c0.5,1.3,0.8,3,0.6,5c-0.3,2.7-1.5,4.5-2.2,5.5
	c-1.7,2.5-3.9,3.8-5.2,4.6c-0.9,0.6-3.4,1.9-7.1,2.6c-1.7,0.3-5.1,0.9-9.3-0.3c-3.7-1-6.1-3-6.9-3.7c-1.2-1-2.9-2.6-3.9-5.3
	c-1.2-3.3-0.6-6.1-0.4-7c0.7-3,2.4-5.7,5.1-8c4.4-3.7,9.7-3.8,11.7-3.7l0.6-3.9l-3.1-0.7l-0.2,0c-0.2,0-4.5-0.6-6.2-4.1
	c-1-1.9-0.7-3.8-0.6-4.4c0.4-2.1,1.7-3.4,2.2-3.8c1.7-1.6,3.7-2,5.1-2.3c3.2-0.6,5.8,0.1,6.5,0.4c1.5,0.5,4.6,1.6,5.5,4.1
	c0.3,0.7,0.3,1.6,0.2,2.5l4,0.6c0.2-1.5,0.1-3-0.4-4.4c-1.5-4.4-6-5.9-7.9-6.6c-1.2-0.4-4.5-1.3-8.6-0.5c-1.7,0.3-4.5,0.9-7.1,3.3
	c-0.7,0.6-2.7,2.6-3.4,6c-0.2,1.1-0.6,3.9,0.9,6.9c1,2.1,2.5,3.4,4,4.4c-1.9,0.7-3.9,1.7-5.7,3.3c-3.4,2.8-5.6,6.3-6.5,10.2
	c-0.7,3.3-0.6,6.4,0.5,9.3c1.3,3.6,3.6,5.7,5,6.9c1.1,1,4,3.3,8.5,4.6c2.3,0.6,4.4,0.8,6.1,0.8c2.2,0,4-0.3,5-0.5
	c4.3-0.8,7.3-2.4,8.4-3.1c1.5-0.9,4.2-2.5,6.4-5.8c0.8-1.2,2.5-3.6,2.9-7.3c0.2-1.8,0-3.4-0.3-4.8c2.8-0.1,4.8-1.3,6-2.3
	c2.2-1.8,2.9-4.2,3.2-5.4L281.8,308.6z"/>
</svg>
