<?xml version="1.0" encoding="utf-8"?>
<!-- Generator: Adobe Illustrator 19.0.0, SVG Export Plug-In . SVG Version: 6.00 Build 0)  -->
<svg version="1.1" id="Layer_1" xmlns="http://www.w3.org/2000/svg" xmlns:xlink="http://www.w3.org/1999/xlink" x="0px" y="0px"
	 viewBox="0 0 919.9 308.7" style="enable-background:new 0 0 919.9 308.7;" xml:space="preserve">
<style type="text/css">
	.st0{fill:#FFFFFF;}
</style>
<path id="XMLID_51_" class="st0" d="M288.7,146.9c8.8-10.5,13.9-20.9,17.3-32.2c1-3.1,2.3-6.5,6-7.6c3.7-1.1,5.5,1.6,7.8,3.9
	c9.8,9.9,16,22,21.7,34.4c1,2.2,2,4.4,5.1,5.8c2.3-7.6,1.4-15.4,2.9-22.8c2.5-12.3-0.1-25.1,3.3-37.1c3-10.7,6.6-21.2,7.8-32.2
	c0.9-8,1.4-16,1.8-24c0.2-5.3,2.9-9.6,3.6-14.6c0.3-2.4,1.5-7.4,5.3-6.6c3.7,0.8,8.7-1.5,11.3,4.3c1.8,3.9,5.8,6.6,8.2,10.7
	c5.5,9.4,7.1,18.5,4.3,29.1c-5.3,20-7.6,40.7-12.2,60.8c-4.5,19.8-7.8,39.7-11.3,59.7c-1.2,6.6-5.6,11.7-8,17.7
	c-1,2.6-4.4,3.5-7.6,3c-0.9-0.1-1.7-0.9-2.6-1c-12.2-1.9-14.4-3.4-16.5-16c-2-12.6-8.8-24.1-8.4-37.3c0.1-2.6-2-6.1-5-6.5
	c-3.1-0.4-4,3-4.9,5.5c-6.3,18.8-15.9,36.1-24.7,53.7c-0.6,1.3-1,2.7-1.2,4.1c-1.4,9.7-3.5,11.2-13.5,9.5
	c-14.9-2.5-22.1-12.4-20.5-27.7c0.5-5,0.5-10.1,0.1-15.1c-0.6-7.6,0.4-15.2,0-22.8c-1.2-22.5-2.3-45.1-4.5-67.5
	c-0.9-9-2.5-17.8-1.2-26.9c1-6.7,5.3-9.4,11.5-6.9c9.3,3.7,13.4,11.3,15.1,20.7c4.4,24,4.9,48.3,8,72.4
	C288,140.2,288.2,142.7,288.7,146.9z"/>
<path id="XMLID_50_" class="st0" d="M845.8,252.7c1.4-30.9,5.5-61.3,11-91.7c1.1-6.2-0.9-9.2-7-11.1c-13.5-4.2-25.7-11-35.9-21.2
	c-13.4-13.4-18.6-30.2-21.1-48.3c-1.1-7.9-2.1-15.9-2.9-23.9c-0.3-2.5-1.3-5.9,2.3-6.8c3.3-0.8,5.4,1.6,6.5,4.5
	c3.5,9.2,6.5,18.7,10.6,27.7c7.1,15.8,12.9,32.5,25.8,45c4.4,4.2,9.1,8.1,15.1,9.8c5.7,1.6,9.9,0.4,11.4-6.3
	c3.5-16.1,6-32.3,8.4-48.5c0.8-5.5,1-11.1,1.9-16.6c1.7-10.1,3.8-11.7,14-11.6c7.7,0,11.9,3.4,12.9,11.8c3.3,26.4,8.9,52.4,5.3,79.4
	c-5.2,38.6-9,77.4-16.4,115.7c-2.9,15.3-13.7,25.7-25.3,35.1c-3.6,2.9-6.7,1.3-9.4-1.7c-6.3-6.8-6.6-15.4-7.1-23.9
	C845.5,264.4,845.8,258.5,845.8,252.7z"/>
<path id="XMLID_46_" class="st0" d="M539.8,159.5c0.1,12.2,0,24.3-1.4,36.4c-0.8,7-6.6,13.9-13.5,15.5c-3.8,0.9-6.6-0.4-8.7-3.7
	c-3.8-5.9-4.6-12.7-5.8-19.3c-6.9-39.7-10.4-79.8-12.3-120.1c-0.8-17.1,1.3-34,0.7-51c-0.2-6,3.5-7.8,10.1-5.7
	c12.3,4,18.2,13.8,22.1,25.1c5.2,15.2,6.3,31.2,8.8,46.9C543.8,109,538.5,134.2,539.8,159.5z"/>
<path id="XMLID_9_" class="st0" d="M237.2,199.1c-0.3-24-3.9-47.6-7.3-71.3c-4.6-31.7-7.5-63.8-23.4-92.7
	c-3.6-6.5-6.8-13.2-12.8-18.1c-8.7-7.1-12.6-6-15.4,5.1c-2.9,11.6-5.6,23.3-8.6,34.9c-9.4,36.4-17.1,73.3-30.1,108.7
	c-4.4,11.8-8.7,24.4-2.6,37.5c1.7,3.6,1.3,7.1,7,6.9c5.6-0.2,10.2-1.7,10.7-7.4c0.5-5.4,2.4-10.5,4-15.3c2.5-7.2,1.8-17.5,12.3-19.5
	c12.6-2.3,22.5-9.5,33.6-17.4c2.6,13.5,5.1,26.3,7.6,38.9c1.2,5.8,1.3,12.6,4.5,17c3.3,4.5,10.8,3.6,16.1,2.8
	C237.1,208.7,237.3,203.3,237.2,199.1z M196.5,132.7c-6.6,1.5-13.1,2.2-20.6,2.7c4.8-19.9,9.5-39,14.2-58.7c2.5,2.2,4,3.8,4.3,6
	c2.1,14.7,4,29.5,6,44.3C200.9,130.3,200.5,131.8,196.5,132.7z"/>
<path id="XMLID_6_" class="st0" d="M119.9,194.9c-0.8-4.9-5.6-6-10.2-5.5c-2.5,0.3-4-1.1-5.8-2.4c-13.9-10.2-26.3-22.4-42-30.2
	c-2.7-1.3-3.8-2.8-2.5-6.2c4-10.4,8.5-20.4,13.9-30.2c8.9-16.3,23.2-29.5,24.9-50.1c1.4-15.7-2.5-26.5-17.3-32.3
	c-0.7-0.3-1.3-0.7-2-0.8c-12.7-2-25.5-5.2-38.1,0.5c-3.7,1.7-7.2,2.1-10.3-0.3c-3.8-2.9-6.5-1-8.9,1.4c-3.3,3.3-5.6,7.3-5.5,12.2
	c0,6.5,0.4,13-0.1,19.4c-1.2,15.1-3.3,30.1-3,45.3c0.2,9.6-0.5,19.2-1,28.8c-0.4,7.9-2.5,15.8-1.5,23.8c1.4,11.4,2.6,22.9,1.3,34.5
	c-0.4,3.4,0.6,5.5,3.9,6.7c11.3,4.2,21.7-2.8,22.4-15c0.5-8.1,1.1-16.3,1.7-25.6c19.8,8.3,35.6,21.5,51.6,34.1
	c6.9,5.4,13.1,5.4,19.8,3.2C116,204.7,120.8,200.8,119.9,194.9z M41.1,128.6c0.2-14.4,0.1-27.7,0.9-41.2c0.5-8.2,2.5-15.7,4.3-23.5
	c0.6-2.6,1.7-2.7,3.2-2.5c9.8,0.7,19.7-1.3,29.4,2.3c4.7,1.7,6.2,3.8,3.1,7.7c-13.9,17.8-27.3,35.9-38.2,55.7
	C43.5,127.4,42.9,127.5,41.1,128.6z"/>
<path id="XMLID_18_" class="st0" d="M764.8,134.1c-2.8-17.3-7-33.7-18-47.7c-7.4-9.4-16.6-15.5-29-15.5c-6.1,0-12.2,0.1-18.3-0.3
	c-5.6-0.4-9.8,1.9-13.7,5.5c-15.1,14-19.2,44.2-8.9,62c9.2,15.8,23.4,24.9,39.7,31.4c4.5,1.8,6.1,4.1,6,9.2
	c-0.3,13.6-3.9,27-3.2,40.7c0.3,6.4-1.2,12.5-3.2,18.5c-3.3,9.7-11,11.5-18.4,4.2c-1.7-1.7-3.3-3.7-4.4-5.8
	c-5-9.1-10.5-18-12.9-28.3c-0.9-4-2.7-6.6-8.2-7c2.3,14.2,5.3,27.8,12.9,39.7c9.5,15,23.2,20.6,41.2,17.8
	c18.9-2.9,25.9-17.5,31.1-32C768.2,196.7,770,165.7,764.8,134.1z M713.4,144.1c-2.5,4.5-6.2,5.2-10.4,2.3
	c-11.3-7.6-17.7-17.9-16.5-31.9c0.4-5,0-10.1,2-15.1c5.1-13.3,21.5-18.1,32.4-9.1c5.2,4.2,4.4,10.4,4.4,16.2
	C725.8,120.5,720,132.4,713.4,144.1z"/>
<path id="XMLID_15_" class="st0" d="M646.4,116.7c-1.1-15.8-8.3-28.2-21.7-36.7c-19.1-12.2-42.6,0.7-51.3,15.5
	c-6.6,11.3-9.8,23.7-9.8,36.8c0,21.3,6.2,45,31.6,54.3c4.3,1.6,8.7,2.7,13.1,4.1c14.3,4.5,22.1,1.2,29.4-12
	c8.2-14.9,8.3-31.1,8.7-47.4C646.4,126.4,646.7,121.5,646.4,116.7z M627.3,164.5c-2.6,4.6-5.4,5.3-10.1,3.1
	c-12.4-5.8-20.1-22.6-16.9-38.5c1.5-7.6,4.2-15,4.9-22.6c1-10.6,15.1-13,21.5-7.4c8.9,7.9,9.9,17.8,9.3,28.1
	C636.9,140.8,633.8,153,627.3,164.5z"/>
<path id="XMLID_12_" class="st0" d="M471.6,101.9c-5.9-14.8-20-25.8-34.1-26.8c-14.1-1-32.7,12-38.3,25.5c-6.3,15-8.5,30.4-5.8,46.3
	c3.1,18,11.4,32.8,29.8,39.7c4.3,1.6,8.8,2.7,13.1,4.1c14.8,4.7,23.4,1.2,30.5-12.7c7.6-15,8.2-31.2,8.5-42.6
	C475.5,120.7,475.3,111.2,471.6,101.9z M456.5,163.5c-3,5.6-6.5,6.2-11.8,3.5c-11.6-6.1-18.6-22.6-15.7-38.5
	c1.4-7.8,3.3-15.6,5.4-23.3c2.3-8.5,11.3-12,18.9-7.3c5.8,3.6,9.7,8.7,10.7,15.6c0.7,4.8,0.9,9.6,1.3,14.5
	C465.4,140.6,462.5,152.4,456.5,163.5z"/>
</svg>
