<?xml version="1.0" encoding="utf-8"?>
<!-- Generator: Adobe Illustrator 19.0.0, SVG Export Plug-In . SVG Version: 6.00 Build 0)  -->
<svg version="1.1" id="Layer_1" xmlns="http://www.w3.org/2000/svg" xmlns:xlink="http://www.w3.org/1999/xlink" x="0px" y="0px"
	 viewBox="-455 257 48 48" style="enable-background:new -455 257 48 48;" xml:space="preserve">
<style type="text/css">
	.st0{fill:#FFFFFF;}
</style>
<path class="st0" d="M-432,301c-3,0-5.6-1-7.8-3.1s-3.2-4.6-3.2-7.7l0-23.4c0-0.2,0-0.3,0.1-0.5c1.8-3.5,4.4-5.3,7.6-5.3
	c2.2,0,4,0.8,5.5,2.3s2.3,3.3,2.3,5.5v19.7c0,1.3-0.4,2.3-1.3,3.2c-0.9,0.9-1.9,1.3-3.2,1.3s-2.3-0.5-3.2-1.4
	c-0.9-1-1.3-2.1-1.3-3.4v-18.6c0-0.6,0.4-1,1-1l0,0c0.6,0,1,0.4,1,1v18.8c0,0.7,0.2,1.4,0.7,1.9s1.1,0.8,1.8,0.8
	c1,0,1.8-0.5,2.4-1.6c0.1-0.1,0.1-0.3,0.1-0.5l0-20.2c0-1.6-0.6-3-1.7-4.1c-1.1-1.1-2.5-1.6-4.1-1.6s-3,0.5-4.1,1.6
	s-1.7,2.5-1.7,4.1l0,23.9c0,0.2,0,0.3,0.1,0.5c2.1,4,5.1,5.9,8.9,5.9c2.5,0,4.6-0.9,6.4-2.5c1.8-1.7,2.6-3.8,2.6-6.3v-20.6
	c0-0.6,0.4-1,1-1l0,0c0.6,0,1,0.4,1,1v20.5c0,3-1.1,5.6-3.2,7.7S-429,301-432,301z"/>
</svg>
