<?xml version="1.0" encoding="utf-8"?>
<!-- Generator: Adobe Illustrator 19.0.0, SVG Export Plug-In . SVG Version: 6.00 Build 0)  -->
<svg version="1.1" id="Layer_1" xmlns="http://www.w3.org/2000/svg" xmlns:xlink="http://www.w3.org/1999/xlink" x="0px" y="0px"
	 viewBox="0 0 1000 1000" style="enable-background:new 0 0 1000 1000;" xml:space="preserve">
<style type="text/css">
	.st0{fill:#FFB301;stroke:#FFFFFF;stroke-width:8;stroke-miterlimit:10;}
</style>
<path id="XMLID_7_" class="st0" d="M880,250c11,0,20-9,20-20V120c0-11-9-20-20-20H246.5H120c-11,0-20,9-20,20v126.6v506.8V880
	c0,11,9,20,20,20h126.5H880c11,0,20-9,20-20V770c0-11-9-20-20-20H270c-11,0-20-9-20-20V270c0-11,9-20,20-20H880z"/>
<path id="XMLID_4_" class="st0" d="M865.6,250H753.6c-11.3,0-20.4,9-20.4,20v227.5c0,17.5-21.2,26.5-34.2,14.7
	c-1.3-1.2-2.7-2.4-4-3.7c-3.7-3.4-7.5-6.8-11.2-10.2c-5.8-5.2-11.5-10.5-17.3-15.7c-7.4-6.7-14.8-13.5-22.2-20.2
	c-8.6-7.9-17.3-15.7-25.9-23.6c-9.5-8.6-19-17.3-28.4-25.9c-9.9-9-19.9-18.1-29.8-27.1c-10-9.1-20-18.2-30-27.3
	c-9.7-8.8-19.4-17.6-29-26.4c-9-8.2-17.9-16.3-26.9-24.5c-7.9-7.2-15.7-14.3-23.6-21.5c-6.4-5.8-12.7-11.6-19.1-17.4
	c-4.5-4.1-9-8.2-13.4-12.2c-2.5-2.3-5.4-4.7-8.7-5.9c-3.9-1.4-7.9-0.4-12-0.4c-4,0-7.9,0-11.9,0c-12.2,0-24.4,0-36.6,0
	c-13.3,0-26.7,0-40,0c-8.9,0-17.8,0-26.7,0c-1.1,0-2.2,0-3.3,0c-11.3,0-20.4,9-20.4,20v459c0,11,9.1,20,20.4,20h112.1
	c11.3,0,20.4-9,20.4-20V500.8c0-17.5,21.2-26.5,34.2-14.7c1.4,1.3,2.8,2.6,4.3,3.9c4,3.6,7.9,7.2,11.9,10.9
	c6.1,5.6,12.2,11.1,18.3,16.7c7.8,7.1,15.6,14.2,23.4,21.3c9.1,8.3,18.1,16.5,27.2,24.8c9.9,9,19.8,18,29.7,27.1
	c10.3,9.4,20.7,18.8,31,28.2c10.3,9.4,20.6,18.8,30.9,28.2c9.9,9,19.8,18,29.6,27c9,8.2,18,16.4,27,24.6c7.7,7,15.4,14.1,23.2,21.1
	c6,5.5,12,10.9,18,16.4c2.7,2.5,5.4,4.9,8.1,7.4c2.3,2.1,4.2,4.3,7.4,5.2c4.1,1.1,8.8,0.2,13.1,0.3c4.7,0.1,9.4,0,14.2,0
	c13.2,0,26.5,0,39.7,0c13.3,0,26.6,0,39.9,0c7.5,0,14.9,0,22.4,0c0.3,0,0.6,0,0.8,0c11.3,0,20.4-9,20.4-20V270
	C886,259,876.9,250,865.6,250z"/>
</svg>
