<?xml version="1.0" encoding="utf-8"?>
<!-- Generator: Adobe Illustrator 19.0.0, SVG Export Plug-In . SVG Version: 6.00 Build 0)  -->
<svg version="1.1" id="Layer_1" xmlns="http://www.w3.org/2000/svg" xmlns:xlink="http://www.w3.org/1999/xlink" x="0px" y="0px"
	 viewBox="-449 451 100 100" style="enable-background:new -449 451 100 100;" xml:space="preserve">
<style type="text/css">
	.st0{fill:#FFFFFF;}
</style>
<path class="st0" d="M-398.7,541.1c-0.2,0-0.4,0-0.4,0c0,0,0,0-0.1,0l0,0c-0.1,0-0.1,0-0.2,0c0,0,0,0,0.1,0l0,0
	c0-0.1-0.1-0.1-0.2-0.1c-1.1-0.3-2.1-0.6-3.2-0.9c-4.6-1.3-9.3-2.6-13.9-3.9c-3.7-1-7.4-2-11-3.1c-0.2,0-0.2-0.1-0.3-0.3
	c0-0.5-0.1-0.9-0.1-1.5c-0.1-1-0.2-2-0.3-3c-0.1-0.7-0.2-1.6-0.2-2.3c-0.1-1-0.2-2-0.3-3c-0.1-0.7-0.1-1.5-0.2-2.2
	c-0.1-1-0.2-2-0.3-3c-0.1-1-0.2-2-0.3-3c-0.1-1-0.2-2-0.3-3.1c-0.1-0.7-0.1-1.5-0.2-2.2c-0.1-1-0.2-2-0.3-3c-0.1-1-0.2-2-0.3-3
	c-0.1-1-0.2-2-0.3-3c-0.1-1-0.2-2-0.3-3c-0.1-1-0.2-2-0.3-3c-0.1-1-0.2-2-0.3-3c-0.1-1-0.2-2-0.3-3c-0.1-1-0.2-2-0.3-3
	c-0.1-1.2-0.3-2.4-0.4-3.6c-0.1-1.2-0.2-2.4-0.4-3.6c-0.1-1.4-0.3-2.9-0.4-4.3c-0.1-1.2-0.2-2.4-0.4-3.6c-0.1-1.4-0.3-2.9-0.4-4.3
	c-0.1-1.4-0.3-2.9-0.4-4.3c0-0.1,0.1-0.2-0.1-0.2c0-0.2,0-0.4,0-0.6c0.1,0,0-0.1,0-0.1c0-0.1,0-0.3,0-0.4c0.2,0,0.3,0,0.4,0
	c23.2,0.3,46.3,0.3,69.5,0.3c0.3,0,0.5,0,0.8,0c0,0.1,0,0.3,0,0.4c0,0,0-0.1-0.1,0v0.1c-0.1,0.7-0.2,1.5-0.2,2.2
	c-0.1,0.7-0.1,1.5-0.2,2.2c-0.1,1-0.2,2-0.3,3.1c-0.1,0.7-0.1,1.5-0.2,2.2c-0.1,1-0.2,2-0.3,3c-0.1,0.7-0.1,1.5-0.2,2.2
	c-0.1,1-0.2,2-0.3,3c-0.1,0.9-0.2,2-0.3,2.9c-0.1,1-0.2,2-0.3,3c-0.1,1-0.2,2-0.3,3c-0.1,1.2-0.3,2.4-0.4,3.6c-0.1,1-0.2,2-0.3,3
	c-0.1,1.2-0.3,2.4-0.4,3.6c-0.1,1.2-0.2,2.4-0.4,3.6c-0.1,1.2-0.3,2.4-0.4,3.6c-0.1,1.2-0.2,2.4-0.4,3.6c-0.1,1.2-0.3,2.4-0.4,3.6
	c-0.1,1.2-0.2,2.4-0.4,3.6c-0.1,1.2-0.3,2.4-0.4,3.6c-0.1,1.2-0.2,2.4-0.4,3.6c-0.1,1.4-0.3,2.9-0.4,4.3c-0.2,1.5-0.3,3.1-0.4,4.6
	c0,0.2-0.1,0.3-0.3,0.3c-3.8,1-7.4,2-11.2,3.1c-4.5,1.2-8.9,2.5-13.4,3.7c-1.2,0.4-2.4,0.7-3.6,1
	C-398.6,541-398.7,540.9-398.7,541.1z M-399,475.9L-399,475.9c-0.1,0-0.3,0-0.4,0c-7.1,0-14.2,0-21.3,0c-0.1,0-0.2,0-0.3,0
	c-0.2,0-0.2,0.1-0.2,0.2c0.3,2.7,0.5,5.5,0.7,8.2c0,0.3,0.1,0.4,0.4,0.4c11,0,22,0,32.9,0c0.1,0,0.1,0,0.2,0c0.2,0,0.3,0.1,0.3,0.3
	c-0.1,0.9-0.2,1.8-0.3,2.7c-0.2,2-0.4,3.8-0.5,5.8c0,0.3-0.1,0.4-0.4,0.4c-8.1,0-16.1,0-24.2,0c-2.5,0-4.8,0-7.3,0
	c-0.1,0-0.2,0-0.2,0c-0.2,0-0.2,0.1-0.2,0.2c0.1,1.1,0.2,2.1,0.3,3.3c0.2,1.7,0.4,3.3,0.4,5c0,0.3,0.1,0.4,0.4,0.4
	c10,0,19.9,0,29.9,0c0.1,0,0.2,0,0.3,0c0.2,0,0.2,0.1,0.2,0.2c-0.2,1.8-0.4,3.4-0.4,5.2c-0.2,2-0.4,3.8-0.5,5.8
	c0,0.2-0.1,0.4-0.4,0.4c-3.2,0.8-6.3,1.7-9.5,2.5c-0.1,0-0.2,0-0.3,0c-3.2-0.8-6.3-1.7-9.5-2.5c-0.2,0-0.3-0.1-0.3-0.3
	c-0.1-0.7-0.1-1.5-0.2-2.2c-0.1-1.5-0.3-2.9-0.4-4.4c0-0.2-0.1-0.2-0.3-0.2c-2.8,0-5.6,0-8.3,0c-0.2,0-0.3,0-0.3,0.3
	c0.1,1.1,0.2,2.3,0.4,3.4c0.2,1.7,0.3,3.3,0.4,4.9c0.2,1.7,0.3,3.3,0.4,4.9c0,0.2,0.1,0.3,0.3,0.4c5.9,1.6,11.7,3.3,17.6,4.9
	c0.2,0,0.3,0.1,0.4,0c2.5-0.7,5-1.4,7.5-2c3.4-0.9,6.7-1.9,10.2-2.8c0.2-0.1,0.3-0.1,0.3-0.3c0-0.3,0.1-0.6,0.1-0.8
	c0.2-1.7,0.3-3.3,0.4-5s0.3-3.3,0.4-4.9c0.2-1.9,0.4-3.7,0.5-5.6c0.2-1.9,0.4-3.7,0.5-5.6c0.2-1.9,0.4-3.7,0.5-5.6
	c0.2-1.9,0.4-3.7,0.5-5.6c0.2-1.9,0.4-3.7,0.5-5.6c0.2-1.9,0.4-3.8,0.5-5.7c0-0.4,0-0.4-0.4-0.4c-5.7,0-11.4,0-17.1,0
	C-395.9,475.9-397.5,475.9-399,475.9z"/>
</svg>
