<?xml version="1.0" encoding="utf-8"?>
<!-- Generator: Adobe Illustrator 19.0.0, SVG Export Plug-In . SVG Version: 6.00 Build 0)  -->
<svg version="1.1" id="Layer_1" xmlns="http://www.w3.org/2000/svg" xmlns:xlink="http://www.w3.org/1999/xlink" x="0px" y="0px"
	 viewBox="571 -50 1452 200" style="enable-background:new 571 -50 1452 200;" xml:space="preserve">
<style type="text/css">
	.st0{stroke:#000000;stroke-width:7;stroke-miterlimit:10;}
	.st1{font-family:'MyriadPro-Regular';}
	.st2{font-size:164.1785px;}
	.st3{fill:none;stroke:#000000;stroke-width:15;stroke-miterlimit:10;}
</style>
<path id="XMLID_3_" d="M641.3,111.1c-21.6,0-38-6-49.4-18.1c-11.3-12.1-17-29.2-17-51.4c0-11,1.7-20.9,5.2-29.6
	c3.5-8.7,8.2-16,14.2-22s13.2-10.5,21.5-13.6c8.3-3.1,17.3-4.6,27-4.6c5.6,0,10.7,0.4,15.3,1.3c4.6,0.8,8.6,1.8,12.1,2.9
	c3.4,1.1,6.3,2.2,8.6,3.4c0.4,0.2,0.8,0.4,1.1,0.6c2.2,1.1,3.3,3.8,2.4,6.1l-5.3,15c-1,2.7-4,4-6.7,2.9c-2.9-1.2-6-2.3-9.4-3.3
	c-5.4-1.5-11.6-2.3-18.5-2.3c-4.6,0-9.1,0.8-13.5,2.3s-8.3,4-11.7,7.4c-3.4,3.4-6.1,7.8-8.1,13.2c-2,5.4-3.1,11.9-3.1,19.6
	c0,6.2,0.7,11.9,2,17.2c1.3,5.3,3.5,9.9,6.5,13.8c3,3.9,6.9,6.9,11.8,9.1c4.9,2.2,10.7,3.4,17.6,3.4c4.3,0,8.2-0.3,11.7-0.8
	c3.4-0.5,6.5-1.1,9.2-1.8c2.7-0.7,5-1.5,7.1-2.4c0.2-0.1,0.4-0.2,0.6-0.3c2.7-1.2,5.8,0.2,6.7,3l5.1,14.8c0.8,2.4-0.3,5.1-2.6,6.2
	c-3.7,1.7-8.3,3.3-13.8,4.8C660.3,110.1,651.4,111.1,641.3,111.1z"/>
<path id="XMLID_5_" d="M795.1,57.6c0,8-1.1,15.2-3.4,21.9c-2.3,6.6-5.6,12.3-10,16.9c-4.3,4.7-9.6,8.3-15.6,10.9
	c-6.1,2.6-12.9,3.9-20.4,3.9c-7.4,0-14.2-1.3-20.2-3.9c-6.1-2.6-11.3-6.2-15.6-10.9c-4.3-4.7-7.7-10.3-10.2-16.9
	c-2.4-6.6-3.6-13.9-3.6-21.9s1.2-15.2,3.7-21.8c2.5-6.5,5.9-12.1,10.3-16.8c4.4-4.6,9.6-8.2,15.7-10.8c6.1-2.6,12.7-3.9,19.8-3.9
	c7.3,0,14,1.3,20,3.9c6.1,2.6,11.3,6.2,15.6,10.8c4.3,4.6,7.7,10.2,10.2,16.8C793.8,42.4,795.1,49.6,795.1,57.6z M765.9,57.6
	c0-8.9-1.8-15.8-5.3-20.9s-8.5-7.6-15-7.6s-11.6,2.5-15.1,7.6c-3.6,5.1-5.4,12-5.4,20.9s1.8,15.9,5.4,21.1c3.6,5.2,8.6,7.8,15.1,7.8
	s11.5-2.6,15-7.8C764.2,73.5,765.9,66.4,765.9,57.6z"/>
<path id="XMLID_8_" d="M906,101.3c0,2.3-1.5,4.3-3.7,4.8c-1.6,0.4-3.3,0.8-5.1,1.2c-3.3,0.7-6.8,1.3-10.4,1.8
	c-3.6,0.5-7.3,0.9-11.1,1.3c-3.8,0.3-7.4,0.5-10.8,0.5c-8.3,0-15.7-1.2-22.2-3.7c-6.5-2.4-12-5.9-16.5-10.5s-7.9-10.1-10.3-16.6
	s-3.5-13.8-3.5-21.9c0-8.2,1-15.6,3.1-22.2c2-6.6,5-12.2,8.8-16.8c3.8-4.6,8.5-8.2,14.1-10.6s11.9-3.7,19.1-3.7
	c4,0,7.5,0.4,10.6,1.2c1,0.2,2,0.5,3,0.8c3.2,1,6.5-1.4,6.5-4.8v-34.2c0-2.5,1.8-4.5,4.2-4.9l18.6-3c3-0.5,5.8,1.9,5.8,4.9v136.4
	H906z M841.4,57c0,8.9,2,16,5.9,21.4c4,5.4,9.8,8.1,17.6,8.1c2.6,0,4.9-0.1,7.1-0.3c0.3,0,0.6-0.1,0.8-0.1c2.6-0.2,4.5-2.4,4.5-5
	V36.4c0-2-1.2-3.9-3.1-4.6c-1.2-0.5-2.5-0.9-3.9-1.3c-2.9-0.8-5.8-1.2-8.7-1.2C848.2,29.3,841.4,38.5,841.4,57z"/>
<path id="XMLID_11_" d="M928.1,58.5c0-9,1.4-16.8,4.1-23.6c2.7-6.7,6.4-12.4,10.8-16.9c4.5-4.5,9.6-7.9,15.4-10.2
	c5.8-2.3,11.8-3.5,17.9-3.5c14.3,0,25.6,4.4,33.9,13.2c8.3,8.8,12.5,21.7,12.5,38.8c0,1.7-0.1,3.5-0.2,5.5c0,0.2,0,0.4,0,0.6
	c-0.2,2.6-2.4,4.7-5,4.7H964c-3.8,0-6.2,4.1-4.4,7.4c1.4,2.6,3.4,4.8,6,6.7c4.9,3.5,11.4,5.2,19.5,5.2c5.2,0,10.4-0.5,15.4-1.4
	c2.6-0.5,4.9-1,7-1.7c2.9-0.8,5.8,1,6.3,4l2.2,13.5c0.4,2.4-1,4.7-3.3,5.5c-0.7,0.2-1.4,0.5-2.2,0.7c-2.6,0.8-5.4,1.4-8.5,2
	s-6.5,1.1-10.1,1.4c-3.6,0.4-7.2,0.6-10.7,0.6c-9.1,0-17-1.3-23.7-4s-12.3-6.4-16.7-11.1c-4.4-4.7-7.7-10.2-9.8-16.7
	C929.1,72.9,928.1,66,928.1,58.5z M989.3,47.6c3.3,0,5.7-3.1,4.8-6.3c-0.1-0.3-0.1-0.5-0.2-0.8c-0.7-2.3-1.8-4.4-3.3-6.2
	c-1.5-1.8-3.3-3.3-5.6-4.4c-2.2-1.2-5-1.7-8.3-1.7c-3.2,0-5.9,0.5-8.2,1.6s-4.2,2.5-5.7,4.3s-2.7,3.9-3.5,6.3
	c-0.1,0.2-0.2,0.4-0.2,0.7c-1.1,3.2,1.3,6.6,4.8,6.6L989.3,47.6L989.3,47.6z"/>
<path id="XMLID_14_" d="M1044.8,14.4c0-2.3,1.6-4.3,3.8-4.8c4.2-1,9.2-2,15-2.9c7.7-1.2,15.7-1.8,24.1-1.8c8.6,0,15.7,1.1,21.4,3.4
	c5.7,2.2,10.2,5.4,13.5,9.5s5.7,9,7.1,14.6c1.4,5.7,2.1,11.9,2.1,18.9v52.2c0,2.8-2.2,5-5,5h-18.6c-2.8,0-5-2.2-5-5V54.8
	c0-9.2-1.2-15.8-3.6-19.6c-2.4-3.9-7-5.8-13.6-5.8c-2,0-4.2,0.1-6.5,0.3c-0.6,0-1.1,0.1-1.6,0.1c-2.6,0.2-4.5,2.4-4.5,5v68.7
	c0,2.8-2.2,5-5,5h-18.6c-2.8,0-5-2.2-5-5V14.4L1044.8,14.4z"/>
<path id="XMLID_16_" d="M1252,57.6c0,8-1.1,15.2-3.4,21.9c-2.3,6.6-5.6,12.3-10,16.9c-4.3,4.7-9.6,8.3-15.6,10.9
	c-6.1,2.6-12.9,3.9-20.4,3.9c-7.4,0-14.2-1.3-20.2-3.9c-6.1-2.6-11.3-6.2-15.6-10.9c-4.3-4.7-7.7-10.3-10.2-16.9
	c-2.4-6.6-3.6-13.9-3.6-21.9s1.2-15.2,3.7-21.8c2.5-6.5,5.9-12.1,10.3-16.8s9.6-8.2,15.7-10.8c6.1-2.6,12.7-3.9,19.8-3.9
	c7.3,0,14,1.3,20,3.9c6.1,2.6,11.3,6.2,15.6,10.8s7.7,10.2,10.2,16.8C1250.7,42.4,1252,49.6,1252,57.6z M1222.8,57.6
	c0-8.9-1.8-15.8-5.3-20.9s-8.5-7.6-15-7.6s-11.6,2.5-15.1,7.6c-3.6,5.1-5.4,12-5.4,20.9s1.8,15.9,5.4,21.1c3.6,5.2,8.6,7.8,15.1,7.8
	s11.5-2.6,15-7.8C1221.1,73.5,1222.8,66.4,1222.8,57.6z"/>
<path id="XMLID_19_" d="M1360,101.1c0,2.3-1.6,4.3-3.8,4.8c-4.2,1-9.2,2-15,2.9c-7.7,1.2-15.7,1.8-24.1,1.8
	c-8.6,0-15.7-1.2-21.4-3.5s-10.2-5.6-13.5-9.7c-3.3-4.2-5.7-9.1-7.1-14.9c-1.4-5.8-2.1-12.1-2.1-19.1V12.1c0-2.8,2.2-5,5-5h18.6
	c2.8,0,5,2.2,5,5v48c0,9.2,1.2,15.9,3.6,20c2.4,4.1,7,6.2,13.6,6.2c2,0,4.2-0.1,6.5-0.3c0.6,0,1.1-0.1,1.6-0.1
	c2.6-0.2,4.5-2.4,4.5-5V12.1c0-2.8,2.2-5,5-5h18.6c2.8,0,5,2.2,5,5L1360,101.1L1360,101.1z"/>
<path id="XMLID_21_" d="M1448.7,27.5c-0.6,2.7-3.2,4.5-6,3.9c-1.3-0.3-2.6-0.6-4.1-0.9c-3.5-0.7-7.2-1.1-11.1-1.1
	c-1.8,0-3.9,0.2-6.4,0.5c-0.5,0.1-1,0.1-1.4,0.2c-2.4,0.4-4.2,2.5-4.2,4.9v68.3c0,2.8-2.2,5-5,5h-18.6c-2.8,0-5-2.2-5-5V16.1
	c0-2.2,1.4-4.1,3.5-4.8c4.3-1.4,9.2-2.7,14.7-3.9c7-1.6,14.7-2.4,23.3-2.4c1.5,0,3.4,0.1,5.6,0.3s4.3,0.5,6.5,0.8s4.3,0.7,6.5,1.2
	c0.3,0.1,0.6,0.1,0.8,0.2c2.7,0.6,4.4,3.2,3.8,5.9L1448.7,27.5z"/>
<path id="XMLID_23_" d="M1556.7,7.1c3.4,0,5.8,3.2,4.8,6.5c-5.2,17.1-10.6,33.2-16.1,48.4c-6.3,17.1-13.1,33.6-20.6,49.7
	c-2.7,5.8-5.4,10.7-8.1,14.7s-5.6,7.4-8.8,10c-3.2,2.6-6.8,4.6-10.8,5.8s-8.7,1.8-14.1,1.8c-4.5,0-8.6-0.4-12.4-1.3
	c-1.8-0.4-3.4-0.8-4.9-1.2c-2.5-0.7-4.1-3.3-3.5-5.9l2.9-13.3c0.6-2.8,3.4-4.5,6.1-3.8c1,0.3,2,0.5,2.9,0.6c2.3,0.4,4.7,0.6,7.3,0.6
	c5.1,0,9-1.4,11.8-4.1c2.3-2.3,4.3-5.4,6.1-9.2c0.6-1.4,0.6-2.9-0.1-4.3c-6.2-12.3-12.3-26-18.5-41.2c-5.8-14.2-11.3-30-16.5-47.4
	c-1-3.2,1.4-6.4,4.8-6.4h19.7c2.3,0,4.2,1.5,4.8,3.7c1.1,4,2.2,8.1,3.6,12.6c1.7,5.8,3.6,11.7,5.5,17.7c1.9,6,3.9,11.8,5.9,17.4
	c0.3,0.7,0.5,1.4,0.8,2.1c1.6,4.5,8,4.4,9.5-0.1c0.2-0.7,0.4-1.3,0.6-2c1.8-5.6,3.6-11.5,5.3-17.4c1.7-6,3.4-11.9,5-17.7
	c1.2-4.4,2.3-8.6,3.4-12.5c0.6-2.2,2.6-3.7,4.8-3.7h18.8V7.1z"/>
<text transform="matrix(1.1569 0 0 1 1629.729 111.2002)" class="st0 st1 st2">Docs</text>
<line class="st3" x1="1596" y1="-33.6" x2="1596" y2="133.6"/>
</svg>
