<!-- Generator: Adobe Illustrator 19.0.0, SVG Export Plug-In  -->
<svg version="1.1"
	 xmlns="http://www.w3.org/2000/svg" xmlns:xlink="http://www.w3.org/1999/xlink" xmlns:a="http://ns.adobe.com/AdobeSVGViewerExtensions/3.0/"
	 x="0px" y="0px" width="501.5px" height="377.1px" viewBox="0 0 501.5 377.1" style="enable-background:new 0 0 501.5 377.1;"
	 xml:space="preserve">
<style type="text/css">
	.st0{fill:#FFFFFF;stroke:#BCBCBC;stroke-miterlimit:10;}
	.st1{fill:#455A64;}
	.st2{fill:#E0E0E0;}
	.st3{fill:#FFB301;}
	.st4{fill:none;stroke:#E0E0E0;stroke-miterlimit:10;}
	.st5{opacity:0.5;fill:#FFB301;}
	.st6{fill:#FFFFFF;}
</style>
<defs>
</defs>
<g id="XMLID_35_">
	<g id="XMLID_39_">
		<path id="XMLID_140_" class="st0" d="M489.9,376.6H11.8c-6.1,0-11.1-5-11.1-11.1V29.6H501v335.9C501,371.6,496,376.6,489.9,376.6z
			"/>
		<path id="XMLID_139_" class="st1" d="M497.4,0H4.2C1.9,0,0,1.9,0,4.2v26.9h501.5V4.2C501.5,1.9,499.7,0,497.4,0z"/>
		<path id="XMLID_138_" class="st2" d="M38.7,67.4H22.3c-2.3,0-4.2-1.9-4.2-4.2v-8c0-2.3,1.9-4.2,4.2-4.2h16.4
			c2.3,0,4.2,1.9,4.2,4.2v8C42.8,65.5,40.9,67.4,38.7,67.4z"/>
		<path id="XMLID_137_" class="st3" d="M260.4,59.2H58c-1.4,0-2.5-1.1-2.5-2.5v-0.5c0-1.4,1.1-2.5,2.5-2.5h202.4
			c1.4,0,2.5,1.1,2.5,2.5v0.5C262.8,58.1,261.7,59.2,260.4,59.2z"/>
		<path id="XMLID_136_" class="st3" d="M343,59.2h-67.2c-0.8,0-1.4-0.6-1.4-1.4v-2.5c0-0.8,0.6-1.4,1.4-1.4H343
			c0.8,0,1.4,0.6,1.4,1.4v2.5C344.4,58.6,343.8,59.2,343,59.2z"/>
		<path id="XMLID_135_" class="st4" d="M480,186.7H369.3c-2.6,0-4.8-2.2-4.8-4.8V47c0-2.6,2.2-4.8,4.8-4.8H480
			c2.6,0,4.8,2.2,4.8,4.8v134.9C484.8,184.5,482.7,186.7,480,186.7z"/>
		<path id="XMLID_134_" class="st4" d="M480,350.1H369.3c-2.6,0-4.8-2.2-4.8-4.8V210.7c0-2.6,2.2-4.8,4.8-4.8H480
			c2.6,0,4.8,2.2,4.8,4.8v134.6C484.8,347.9,482.7,350.1,480,350.1z"/>
		<path id="XMLID_133_" class="st2" d="M175.3,74.8H57.4c-1,0-1.9-0.8-1.9-1.9v-1.6c0-1,0.8-1.9,1.9-1.9h117.9c1,0,1.9,0.8,1.9,1.9
			V73C177.2,74,176.4,74.8,175.3,74.8z"/>
		<path id="XMLID_132_" class="st2" d="M262.8,74.8h-77c-0.8,0-1.5-0.7-1.5-1.5V71c0-0.8,0.7-1.5,1.5-1.5h77c0.8,0,1.5,0.7,1.5,1.5
			v2.3C264.4,74.1,263.7,74.8,262.8,74.8z"/>
		<path id="XMLID_131_" class="st2" d="M144,88.4H57.1c-0.9,0-1.6-0.7-1.6-1.6v-2.2c0-0.9,0.7-1.6,1.6-1.6H144
			c0.9,0,1.6,0.7,1.6,1.6v2.2C145.6,87.7,144.9,88.4,144,88.4z"/>
		<path id="XMLID_130_" class="st2" d="M229.1,88.4h-75.4c-0.8,0-1.5-0.7-1.5-1.5v-2.4c0-0.8,0.7-1.5,1.5-1.5h75.4
			c0.8,0,1.5,0.7,1.5,1.5v2.4C230.6,87.7,229.9,88.4,229.1,88.4z"/>
		<path id="XMLID_129_" class="st2" d="M342.6,88.4H236.5c-1,0-1.8-0.8-1.8-1.8v-1.8c0-1,0.8-1.8,1.8-1.8h106.1c1,0,1.8,0.8,1.8,1.8
			v1.8C344.4,87.6,343.6,88.4,342.6,88.4z"/>
		<path id="XMLID_128_" class="st2" d="M342.2,105.1H186.5c-1.2,0-2.2-1-2.2-2.2v-1.1c0-1.2,1-2.2,2.2-2.2h155.8
			c1.2,0,2.2,1,2.2,2.2v1.1C344.4,104.1,343.4,105.1,342.2,105.1z"/>
		<path id="XMLID_127_" class="st2" d="M38.7,91.2H22.3c-2.3,0-4.2-1.9-4.2-4.2v-8c0-2.3,1.9-4.2,4.2-4.2h16.4
			c2.3,0,4.2,1.9,4.2,4.2v8C42.8,89.3,40.9,91.2,38.7,91.2z"/>
		<path id="XMLID_126_" class="st2" d="M38.7,117.1H22.3c-2.3,0-4.2-1.9-4.2-4.2v-8c0-2.3,1.9-4.2,4.2-4.2h16.4
			c2.3,0,4.2,1.9,4.2,4.2v8C42.8,115.2,40.9,117.1,38.7,117.1z"/>
		<path id="XMLID_125_" class="st2" d="M175.3,105.1H57.4c-1,0-1.9-0.8-1.9-1.9v-1.6c0-1,0.8-1.9,1.9-1.9h117.9c1,0,1.9,0.8,1.9,1.9
			v1.6C177.2,104.2,176.4,105.1,175.3,105.1z"/>
		<path id="XMLID_124_" class="st3" d="M341.8,117.4H58.1c-1.4,0-2.6-1.2-2.6-2.6v-0.2c0-1.4,1.2-2.6,2.6-2.6h283.7
			c1.4,0,2.6,1.2,2.6,2.6v0.2C344.4,116.2,343.2,117.4,341.8,117.4z"/>
		<path id="XMLID_123_" class="st5" d="M72.5,154.6H56.2c-0.4,0-0.6-0.3-0.6-0.6v-4.1c0-0.4,0.3-0.6,0.6-0.6h16.4
			c0.4,0,0.6,0.3,0.6,0.6v4.1C73.2,154.3,72.9,154.6,72.5,154.6z"/>
		<path id="XMLID_122_" class="st3" d="M341.9,154.6H79.8c-1.4,0-2.5-1.1-2.5-2.5v-0.4c0-1.4,1.1-2.5,2.5-2.5h262.1
			c1.4,0,2.5,1.1,2.5,2.5v0.4C344.4,153.5,343.3,154.6,341.9,154.6z"/>
		<path id="XMLID_121_" class="st3" d="M342.1,166.8H128.3c-1.2,0-2.3-1-2.3-2.3v-0.9c0-1.2,1-2.3,2.3-2.3h213.8
			c1.2,0,2.3,1,2.3,2.3v0.9C344.4,165.8,343.4,166.8,342.1,166.8z"/>
		<path id="XMLID_120_" class="st3" d="M341.9,177.8H79.8c-1.4,0-2.5-1.1-2.5-2.5v-0.4c0-1.4,1.1-2.5,2.5-2.5h262.1
			c1.4,0,2.5,1.1,2.5,2.5v0.4C344.4,176.7,343.3,177.8,341.9,177.8z"/>
		<path id="XMLID_119_" class="st3" d="M342.1,191.8H112.4c-1.3,0-2.3-1.1-2.3-2.3v-0.7c0-1.3,1.1-2.3,2.3-2.3h229.7
			c1.3,0,2.3,1.1,2.3,2.3v0.7C344.4,190.7,343.4,191.8,342.1,191.8z"/>
		<path id="XMLID_118_" class="st3" d="M342.5,203.4H159c-1.2,0-2.1-0.9-2.1-2.1v-1.2c0-1.2,0.9-2.1,2.1-2.1h183.6
			c1.2,0,2.1,0.9,2.1,2.1v1.2C344.6,202.4,343.7,203.4,342.5,203.4z"/>
		<path id="XMLID_117_" class="st2" d="M341.7,224.5H80c-1.5,0-2.7-1.2-2.7-2.7v-0.2c0-1.5,1.2-2.7,2.7-2.7h261.7
			c1.5,0,2.7,1.2,2.7,2.7v0.2C344.4,223.3,343.2,224.5,341.7,224.5z"/>
		<path id="XMLID_116_" class="st2" d="M341.7,238.3H80c-1.5,0-2.7-1.2-2.7-2.7v-0.2c0-1.5,1.2-2.7,2.7-2.7h261.7
			c1.5,0,2.7,1.2,2.7,2.7v0.2C344.4,237.1,343.2,238.3,341.7,238.3z"/>
		<path id="XMLID_115_" class="st2" d="M38.7,160.1H22.3c-2.3,0-4.2-1.9-4.2-4.2v-8c0-2.3,1.9-4.2,4.2-4.2h16.4
			c2.3,0,4.2,1.9,4.2,4.2v8C42.8,158.2,40.9,160.1,38.7,160.1z"/>
		<path id="XMLID_114_" class="st2" d="M38.7,186H22.3c-2.3,0-4.2-1.9-4.2-4.2v-8c0-2.3,1.9-4.2,4.2-4.2h16.4c2.3,0,4.2,1.9,4.2,4.2
			v8C42.8,184.2,40.9,186,38.7,186z"/>
		<path id="XMLID_113_" class="st2" d="M38.7,211.6H22.3c-2.3,0-4.2-1.9-4.2-4.2v-8c0-2.3,1.9-4.2,4.2-4.2h16.4
			c2.3,0,4.2,1.9,4.2,4.2v8C42.8,209.7,40.9,211.6,38.7,211.6z"/>
		<path id="XMLID_112_" class="st2" d="M38.7,236.3H22.3c-2.3,0-4.2-1.9-4.2-4.2v-8c0-2.3,1.9-4.2,4.2-4.2h16.4
			c2.3,0,4.2,1.9,4.2,4.2v8C42.8,234.4,40.9,236.3,38.7,236.3z"/>
		<path id="XMLID_111_" class="st5" d="M72.5,177.7H56.2c-0.4,0-0.6-0.3-0.6-0.6v-4.1c0-0.4,0.3-0.6,0.6-0.6h16.4
			c0.4,0,0.6,0.3,0.6,0.6v4.1C73.2,177.4,72.9,177.7,72.5,177.7z"/>
		<path id="XMLID_110_" class="st5" d="M72.5,222.8H56.2c-0.4,0-0.6-0.3-0.6-0.6V218c0-0.4,0.3-0.6,0.6-0.6h16.4
			c0.4,0,0.6,0.3,0.6,0.6v4.1C73.2,222.5,72.9,222.8,72.5,222.8z"/>
		<path id="XMLID_109_" class="st5" d="M72.5,238.2H56.2c-0.4,0-0.6-0.3-0.6-0.6v-4.1c0-0.4,0.3-0.6,0.6-0.6h16.4
			c0.4,0,0.6,0.3,0.6,0.6v4.1C73.2,237.9,72.9,238.2,72.5,238.2z"/>
		<path id="XMLID_108_" class="st5" d="M444.3,64.6h-70.7c-0.7,0-1.3-0.6-1.3-1.3v-2.8c0-0.7,0.6-1.3,1.3-1.3h70.7
			c0.7,0,1.3,0.6,1.3,1.3v2.8C445.6,64,445,64.6,444.3,64.6z"/>
		<path id="XMLID_107_" class="st5" d="M431.4,81.6h-58c-0.7,0-1.2-0.5-1.2-1.2v-3c0-0.7,0.5-1.2,1.2-1.2h58c0.7,0,1.2,0.5,1.2,1.2
			v3C432.6,81.1,432.1,81.6,431.4,81.6z"/>
		<path id="XMLID_106_" class="st5" d="M461.6,100.7h-87.9c-0.8,0-1.5-0.7-1.5-1.5v-2.5c0-0.8,0.7-1.5,1.5-1.5h87.9
			c0.8,0,1.5,0.7,1.5,1.5v2.5C463.1,100.1,462.4,100.7,461.6,100.7z"/>
		<path id="XMLID_105_" class="st5" d="M419.2,120.1h-45.9c-0.6,0-1.1-0.5-1.1-1.1v-3.3c0-0.6,0.5-1.1,1.1-1.1h45.9
			c0.6,0,1.1,0.5,1.1,1.1v3.3C420.3,119.6,419.8,120.1,419.2,120.1z"/>
		<path id="XMLID_87_" class="st5" d="M435.5,135.9h-62c-0.7,0-1.2-0.6-1.2-1.2v-2.9c0-0.7,0.6-1.2,1.2-1.2h62
			c0.7,0,1.2,0.6,1.2,1.2v2.9C436.7,135.3,436.2,135.9,435.5,135.9z"/>
		<path id="XMLID_86_" class="st5" d="M408,155.6h-34.8c-0.5,0-0.9-0.4-0.9-0.9v-3.5c0-0.5,0.4-0.9,0.9-0.9H408
			c0.5,0,0.9,0.4,0.9,0.9v3.5C408.9,155.2,408.5,155.6,408,155.6z"/>
		<path id="XMLID_85_" class="st5" d="M408,172.8h-34.8c-0.5,0-0.9-0.4-0.9-0.9v-3.5c0-0.5,0.4-0.9,0.9-0.9H408
			c0.5,0,0.9,0.4,0.9,0.9v3.5C408.9,172.4,408.5,172.8,408,172.8z"/>
		<path id="XMLID_84_" class="st5" d="M446.9,227.3h-70.7c-0.7,0-1.3-0.6-1.3-1.3v-2.8c0-0.7,0.6-1.3,1.3-1.3h70.7
			c0.7,0,1.3,0.6,1.3,1.3v2.8C448.2,226.7,447.6,227.3,446.9,227.3z"/>
		<path id="XMLID_83_" class="st5" d="M434,244.3h-58c-0.7,0-1.2-0.5-1.2-1.2v-3c0-0.7,0.5-1.2,1.2-1.2h58c0.7,0,1.2,0.5,1.2,1.2v3
			C435.2,243.8,434.7,244.3,434,244.3z"/>
		<path id="XMLID_76_" class="st5" d="M464.2,263.5h-87.9c-0.8,0-1.5-0.7-1.5-1.5v-2.5c0-0.8,0.7-1.5,1.5-1.5h87.9
			c0.8,0,1.5,0.7,1.5,1.5v2.5C465.7,262.8,465,263.5,464.2,263.5z"/>
		<path id="XMLID_75_" class="st5" d="M421.8,282.8h-45.9c-0.6,0-1.1-0.5-1.1-1.1v-3.3c0-0.6,0.5-1.1,1.1-1.1h45.9
			c0.6,0,1.1,0.5,1.1,1.1v3.3C422.9,282.4,422.4,282.8,421.8,282.8z"/>
		<path id="XMLID_74_" class="st5" d="M438.1,298.6h-62c-0.7,0-1.2-0.6-1.2-1.2v-2.9c0-0.7,0.6-1.2,1.2-1.2h62
			c0.7,0,1.2,0.6,1.2,1.2v2.9C439.3,298.1,438.8,298.6,438.1,298.6z"/>
		<path id="XMLID_73_" class="st5" d="M410.6,318.3h-34.8c-0.5,0-0.9-0.4-0.9-0.9v-3.5c0-0.5,0.4-0.9,0.9-0.9h34.8
			c0.5,0,0.9,0.4,0.9,0.9v3.5C411.5,317.9,411.1,318.3,410.6,318.3z"/>
		<path id="XMLID_72_" class="st5" d="M410.6,335.5h-34.8c-0.5,0-0.9-0.4-0.9-0.9v-3.5c0-0.5,0.4-0.9,0.9-0.9h34.8
			c0.5,0,0.9,0.4,0.9,0.9v3.5C411.5,335.1,411.1,335.5,410.6,335.5z"/>
		<path id="XMLID_71_" class="st3" d="M343.2,266.2H115.7c-1.3,0-2.3-1-2.3-2.3v-0.7c0-1.3,1-2.3,2.3-2.3h227.5c1.3,0,2.3,1,2.3,2.3
			v0.7C345.5,265.1,344.5,266.2,343.2,266.2z"/>
		<path id="XMLID_70_" class="st3" d="M343.2,278.3H115.7c-1.3,0-2.3-1-2.3-2.3v-0.7c0-1.3,1-2.3,2.3-2.3h227.5c1.3,0,2.3,1,2.3,2.3
			v0.7C345.5,277.2,344.5,278.3,343.2,278.3z"/>
		<path id="XMLID_67_" class="st2" d="M342.7,291.3H83.5c-1.5,0-2.7-1.2-2.7-2.7v-0.3c0-1.5,1.2-2.7,2.7-2.7h259.2
			c1.5,0,2.7,1.2,2.7,2.7v0.3C345.4,290.1,344.2,291.3,342.7,291.3z"/>
		<path id="XMLID_66_" class="st5" d="M72.5,266.2H56.2c-0.4,0-0.6-0.3-0.6-0.6v-4.1c0-0.4,0.3-0.6,0.6-0.6h16.4
			c0.4,0,0.6,0.3,0.6,0.6v4.1C73.2,265.9,72.9,266.2,72.5,266.2z"/>
		<path id="XMLID_65_" class="st5" d="M72.5,278.5H56.2c-0.4,0-0.6-0.3-0.6-0.6v-4.1c0-0.4,0.3-0.6,0.6-0.6h16.4
			c0.4,0,0.6,0.3,0.6,0.6v4.1C73.2,278.2,72.9,278.5,72.5,278.5z"/>
		<path id="XMLID_64_" class="st5" d="M72.5,291.5H56.2c-0.4,0-0.6-0.3-0.6-0.6v-4.1c0-0.4,0.3-0.6,0.6-0.6h16.4
			c0.4,0,0.6,0.3,0.6,0.6v4.1C73.2,291.2,72.9,291.5,72.5,291.5z"/>
		<path id="XMLID_63_" class="st3" d="M343.2,326.3H154.5c-1.3,0-2.4-1.1-2.4-2.4v-0.7c0-1.3,1.1-2.4,2.4-2.4h188.7
			c1.3,0,2.4,1.1,2.4,2.4v0.7C345.6,325.2,344.5,326.3,343.2,326.3z"/>
		<path id="XMLID_62_" class="st3" d="M143.7,326.3H82.2c-0.8,0-1.4-0.6-1.4-1.4v-2.7c0-0.8,0.6-1.4,1.4-1.4h61.5
			c0.8,0,1.4,0.6,1.4,1.4v2.7C145.1,325.7,144.5,326.3,143.7,326.3z"/>
		<path id="XMLID_61_" class="st2" d="M342.9,339H83.7c-1.5,0-2.7-1.2-2.7-2.7v-0.3c0-1.5,1.2-2.7,2.7-2.7h259.2
			c1.5,0,2.7,1.2,2.7,2.7v0.3C345.6,337.8,344.4,339,342.9,339z"/>
		<path id="XMLID_60_" class="st5" d="M72.5,326.3H56.2c-0.4,0-0.6-0.3-0.6-0.6v-4.1c0-0.4,0.3-0.6,0.6-0.6h16.4
			c0.4,0,0.6,0.3,0.6,0.6v4.1C73.2,326,72.9,326.3,72.5,326.3z"/>
		<path id="XMLID_59_" class="st5" d="M72.5,338.9H56.2c-0.4,0-0.6-0.3-0.6-0.6v-4.1c0-0.4,0.3-0.6,0.6-0.6h16.4
			c0.4,0,0.6,0.3,0.6,0.6v4.1C73.2,338.6,72.9,338.9,72.5,338.9z"/>
		<path id="XMLID_42_" class="st2" d="M38.7,275.6H22.3c-2.3,0-4.2-1.9-4.2-4.2v-8c0-2.3,1.9-4.2,4.2-4.2h16.4
			c2.3,0,4.2,1.9,4.2,4.2v8C42.8,273.7,40.9,275.6,38.7,275.6z"/>
		<path id="XMLID_41_" class="st2" d="M38.7,338.3H22.3c-2.3,0-4.2-1.9-4.2-4.2v-8c0-2.3,1.9-4.2,4.2-4.2h16.4
			c2.3,0,4.2,1.9,4.2,4.2v8C42.8,336.5,40.9,338.3,38.7,338.3z"/>
		<path id="XMLID_40_" class="st2" d="M38.7,297H22.3c-2.3,0-4.2-1.9-4.2-4.2v-8c0-2.3,1.9-4.2,4.2-4.2h16.4c2.3,0,4.2,1.9,4.2,4.2
			v8C42.8,295.1,40.9,297,38.7,297z"/>
	</g>
	<circle id="XMLID_38_" class="st6" cx="485.4" cy="17.6" r="5"/>
	<circle id="XMLID_37_" class="st6" cx="463.4" cy="17.6" r="5"/>
	<circle id="XMLID_36_" class="st6" cx="440.4" cy="17.6" r="5"/>
</g>
</svg>
