<!-- Generator: Adobe Illustrator 19.0.0, SVG Export Plug-In  -->
<svg version="1.1"
	 xmlns="http://www.w3.org/2000/svg" xmlns:xlink="http://www.w3.org/1999/xlink" xmlns:a="http://ns.adobe.com/AdobeSVGViewerExtensions/3.0/"
	 x="0px" y="0px" width="404.4px" height="570.3px" viewBox="0 0 404.4 570.3" style="enable-background:new 0 0 404.4 570.3;"
	 xml:space="preserve">
<style type="text/css">
	.st0{fill:#F0F0F0;}
	.st1{fill:#FAFAFA;}
	.st2{fill:#E0E0E0;}
	.st3{opacity:0.1;enable-background:new    ;}
	.st4{fill:#FFB301;}
	.st5{opacity:0.3;fill:#FFFFFF;enable-background:new    ;}
	.st6{opacity:0.2;enable-background:new    ;}
	.st7{fill:#FFFFFF;}
	.st8{opacity:0.2;}
	.st9{fill:#455A64;}
	.st10{fill:#263238;}
	.st11{fill:#BA68C8;}
	.st12{opacity:0.55;fill:#FFB301;enable-background:new    ;}
	.st13{fill:#37474F;}
	.st14{opacity:0.65;fill:#FFB301;enable-background:new    ;}
</style>
<defs>
</defs>
<path id="XMLID_114_" class="st0" d="M4.1,561.2l-1-0.6c-1.8-1.2-2.9-3.2-3-5.3v-306L380.1,25.5c1.9-1,4.2-1,6.1,0l1,0.6
	c1.8,1.2,2.9,3.2,3,5.3v302.2c-0.1,2.2-1.2,4.2-3,5.3L10.1,561.1C8.2,562.1,6,562.2,4.1,561.2z"/>
<path id="XMLID_113_" class="st1" d="M8.8,560.8c-0.7,0-0.8-0.8-0.8-1.3V254L389.3,29.4v302.6c-0.2,3-1.7,5.6-4.1,7.3L9.7,560.4
	C9.4,560.6,9.1,560.7,8.8,560.8z"/>
<path id="XMLID_110_" class="st2" d="M388.4,30.9v301c-0.2,2.6-1.5,5-3.7,6.5L9.2,559.7c-0.1,0.1-0.2,0.1-0.4,0.2c0-0.1,0-0.3,0-0.4
	v-305L388.4,30.9 M390.2,27.8L7.1,253.4v306c0,1.4,0.7,2.2,1.6,2.2c0.5,0,0.9-0.2,1.4-0.4L385.6,340c2.7-1.8,4.4-4.8,4.6-8.1
	L390.2,27.8L390.2,27.8z"/>
<path id="XMLID_109_" class="st2" d="M9.4,561.5c-1.7,0.7-3.7,0.5-5.3-0.3l-1-0.6c-1.8-1.2-2.9-3.2-3-5.3v-306l7.1,4.2v306
	C7.1,561.1,8.1,562,9.4,561.5z"/>
<path id="XMLID_108_" class="st3" d="M9.4,561.5c-1.7,0.7-3.7,0.5-5.3-0.3l-1-0.6c-1.8-1.2-2.9-3.2-3-5.3v-306l7.1,4.2v306
	C7.1,561.1,8.1,562,9.4,561.5z"/>
<path id="XMLID_107_" class="st4" d="M0,249.2v-20.4c0.1-2.7,1.6-5.2,3.8-6.7L379.2,1c2.3-1.3,5-1.3,7.4-0.1
	c2.1,1.5,3.5,3.9,3.6,6.6v20.4L7.1,253.4L0,249.2z"/>
<path id="XMLID_105_" class="st5" d="M390.1,6.8c-0.3-2-1.9-2.7-3.7-1.6L10.9,226.3c-1.1,0.7-2,1.7-2.7,2.9L1.1,225
	c0.7-1.2,1.6-2.2,2.8-2.9L379.2,1c2.3-1.3,5-1.3,7.4-0.1C388.6,2.2,389.9,4.4,390.1,6.8z"/>
<path id="XMLID_104_" class="st6" d="M7.1,253.4V233c0-1.4,0.4-2.7,1.1-3.8L1.1,225l0,0c-0.2,0.3-0.3,0.7-0.5,1.1l-0.1,0.4
	c0,0.2-0.2,0.5-0.2,0.7c-0.1,0.5-0.2,1.1-0.2,1.6v20.4L7.1,253.4z"/>
<path id="XMLID_103_" class="st7" d="M379.3,19.7c1.6-1,2.9-0.2,2.9,1.7c-0.1,2.1-1.2,4-2.9,5.2c-1.6,1-2.9,0.2-2.9-1.7
	C376.5,22.8,377.6,20.9,379.3,19.7z"/>
<path id="XMLID_102_" class="st7" d="M368.8,25.9c1.6-1,2.9-0.2,2.9,1.7c-0.1,2.1-1.2,4-2.9,5.2c-1.6,0.9-2.9,0.2-2.9-1.7
	C366,28.9,367,27,368.8,25.9z"/>
<path id="XMLID_101_" class="st7" d="M358.3,32.1c1.6-1,2.9-0.2,2.9,1.7c-0.1,2.1-1.2,4-2.9,5.2c-1.6,1-2.9,0.2-2.9-1.7
	C355.5,35.1,356.5,33.2,358.3,32.1z"/>
<path id="XMLID_100_" class="st0" d="M18.3,569.6l-1-0.6c-1.8-1.2-2.9-3.2-3-5.3V261.4c0.1-2.2,1.2-4.2,3-5.4l8.3-4.9
	c1.8-1,3.1-2.8,3.6-4.9l5.5-22.7c0.5-2.1,1.8-3.9,3.7-4.9l79-46.6c2-1.2,4.5-1.2,6.5,0l1.9,1.1c1.3,0.7,2.2,1.9,2.8,3.2l4.4,11.2
	L394.3,34c1.9-1,4.2-1,6.1,0l1,0.6c1.8,1.2,2.9,3.2,3,5.3v302.1c-0.1,2.2-1.2,4.2-3,5.3l-377,222.1
	C22.4,570.5,20.2,570.5,18.3,569.6z"/>
<path id="XMLID_99_" class="st1" d="M23,569.1c-0.7,0-0.8-0.8-0.8-1.3V267.4c0.2-3,1.7-5.7,4.1-7.3l6.8-4c2-1.2,3.5-3.2,4.1-5.5
	l5.5-22.7c0.4-1.8,1.6-3.4,3.2-4.4l79.2-46.7c0.4-0.2,0.8-0.3,1.2-0.2c0.9,0,1.7,0.5,2,1.4l5.4,13.7c0.8,2.1,3.1,3.1,5.2,2.2
	c0.2-0.1,0.3-0.1,0.5-0.2L401.8,38.8c0.3-0.2,0.6-0.3,0.9-0.3c0.7,0,0.8,0.8,0.8,1.3v300.5c-0.2,3-1.7,5.7-4.1,7.3L23.9,568.9
	C23.6,569,23.3,569.1,23,569.1z"/>
<path id="XMLID_96_" class="st2" d="M402.6,39.5c0,0.1,0,0.3,0,0.4v300.4c-0.2,2.6-1.5,5-3.7,6.5L23.4,568c-0.1,0.1-0.2,0.1-0.4,0.2
	c0-0.1,0-0.3,0-0.4V267.4c0.2-2.6,1.5-5,3.7-6.5l6.8-4c2.2-1.3,3.8-3.5,4.5-6.1l5.5-22.7c0.4-1.6,1.4-3,2.8-3.8l79.2-46.7
	c0.2-0.1,0.4-0.2,0.7-0.2c0.5,0,1,0.3,1.2,0.8l5.4,13.6c0.7,1.9,2.5,3.1,4.5,3.1c0.8,0,1.7-0.2,2.4-0.6L402.3,39.7
	C402.4,39.6,402.5,39.6,402.6,39.5 M402.8,37.8c-0.5,0-0.9,0.2-1.4,0.4L138.8,192.8c-1.5,0.9-3.3,0.3-4.2-1.2
	c-0.1-0.1-0.1-0.3-0.2-0.4l-5.4-13.6c-0.5-1.2-1.6-2-2.8-2c-0.6,0-1.1,0.1-1.6,0.4l-79.2,46.7c-1.8,1.1-3.1,2.8-3.6,4.9l-5.5,22.7
	c-0.5,2.1-1.8,3.8-3.6,4.9l-6.8,4c-2.7,1.9-4.3,5-4.4,8.3v300.4c0,1.4,0.7,2.2,1.6,2.2c0.5,0,1-0.2,1.4-0.4l375.5-221.2
	c2.7-1.8,4.4-4.8,4.6-8.1V39.9C404.4,38.5,403.7,37.7,402.8,37.8L402.8,37.8z"/>
<path id="XMLID_95_" class="st2" d="M404.4,39.9c0-2-1.4-2.8-3-1.8L138.8,192.8c-1.5,0.9-3.3,0.3-4.2-1.2c-0.1-0.1-0.1-0.3-0.2-0.4
	l-5.4-13.6c-0.6-1.6-2.4-2.4-4-1.8c-0.1,0.1-0.3,0.1-0.4,0.2l-79.2,46.7c-1.8,1.1-3.1,2.8-3.6,4.9l-5.5,22.7
	c-0.5,2.1-1.8,3.8-3.6,4.9l-6.8,4c-2.7,1.9-4.4,5-4.5,8.3v19.7l383-225.7V39.9z"/>
<path id="XMLID_94_" class="st2" d="M23.6,569.9c-1.8,0.7-3.7,0.5-5.4-0.3l-1-0.6c-1.8-1.2-2.9-3.2-3-5.3V261.4c0-1.2,0.4-2.3,1-3.2
	l7.6,4.4c-0.9,1.5-1.4,3.1-1.5,4.9v300.3C21.4,569.5,22.3,570.3,23.6,569.9z"/>
<path id="XMLID_93_" class="st3" d="M23.6,569.9c-1.8,0.7-3.7,0.5-5.4-0.3l-1-0.6c-1.8-1.2-2.9-3.2-3-5.3V261.4c0-1.2,0.4-2.3,1-3.2
	l7.6,4.4c-0.9,1.5-1.4,3.1-1.5,4.9v300.3C21.4,569.5,22.3,570.3,23.6,569.9z"/>
<path id="XMLID_92_" class="st6" d="M36.4,265.8l-6.4,3.8l2.4-4.9c0.2-0.4,0.2-0.8,0-1.2c-0.2-0.2-0.5,0-0.7,0.4l-3.5,6.8l0,0
	c0,0.1-0.1,0.2-0.1,0.3c0,0,0,0,0,0.1c0,0.1,0,0.2,0,0.3c0,0.1,0,0.2,0,0.3l0,0c0,0,0,0.1,0.1,0.1l0,0l3.5,2.7
	c0.1,0.1,0.2,0.1,0.3,0c0.2-0.1,0.3-0.3,0.4-0.5c0.2-0.4,0.2-0.9,0-1.1L30,271l6.4-3.8c0.3-0.3,0.5-0.7,0.5-1.1
	C36.9,265.8,36.6,265.6,36.4,265.8z"/>
<path id="XMLID_91_" class="st6" d="M41.7,262.5l6.4-3.8l-2.4-1.9c-0.2-0.2-0.2-0.7,0-1.1s0.5-0.7,0.7-0.5l3.5,2.7l0,0l0.1,0.1l0,0
	c0,0.1,0,0.2,0,0.3c0,0.1,0,0.2,0,0.3c0,0,0,0,0,0.1l-0.1,0.2l0,0l-3.5,6.8c-0.1,0.2-0.2,0.3-0.3,0.4c-0.1,0.1-0.3,0.1-0.4,0
	c-0.2-0.4-0.2-0.8,0-1.2l2.4-4.9l-6.4,3.8c-0.3,0.2-0.5,0-0.5-0.5C41.2,263.2,41.4,262.8,41.7,262.5z"/>
<path id="XMLID_90_" class="st6" d="M62.7,243.8c0-0.4-0.4-0.3-0.5,0.1l-0.9,2.2c-1.5-0.2-3.3,1.3-4.5,4c-1.6,3.4-1.6,7.5,0,9
	c0.8,0.7,2,0.8,2.9,0.2c1.3-0.9,2.3-2.1,2.9-3.5c0.2-0.4,0.2-0.8,0-1.2c-0.2-0.2-0.5,0-0.7,0.4c-1.2,2.5-3.2,3.7-4.3,2.5
	c-1.1-1.2-1.2-4.2,0-6.7c0.8-1.8,2.1-2.9,3.2-3l-0.7,1.6c-0.2,0.4,0,0.8,0.3,0.6l2.6-1.8c0.2-0.2,0.3-0.5,0.3-0.7L62.7,243.8z"/>
<path id="XMLID_89_" class="st6" d="M124.5,188.9l2.3-5c0.3-0.5,0.3-1.1,0-1.6c-0.3-0.3-0.7,0-1,0.6l-2.3,5.2l-2.3-2.3
	c-0.3-0.3-0.7,0-1,0.6c-0.3,0.5-0.3,1.1,0,1.6l2.3,2.3l-2.3,5c-0.3,0.5-0.3,1.1,0,1.6c0.2,0.1,0.4,0.1,0.5,0
	c0.2-0.2,0.4-0.4,0.5-0.6l2.3-5l2.3,2.3c0.1,0.1,0.3,0.1,0.5,0c0.2-0.2,0.4-0.4,0.5-0.6c0.3-0.5,0.3-1.1,0-1.6L124.5,188.9z"/>
<path id="XMLID_88_" class="st1" d="M69.5,248.6v-4.9c0.2-2.9,1.7-5.6,4.1-7.2L377.9,57.5c2.3-1.3,4.1-0.3,4.1,2.4v4.9
	c-0.2,2.9-1.7,5.6-4.1,7.2L73.6,251C71.4,252.4,69.5,251.3,69.5,248.6z"/>
<path id="XMLID_80_" class="st2" d="M372.7,72.3c-0.1,0-0.2,0-0.3,0c-0.3-0.2-0.5-0.5-0.4-0.9l0.3-2.5l-1.1-0.8
	c-0.2-0.2-0.3-0.4-0.3-0.7c0-0.4,0.2-0.8,0.5-1.1l1.7-1.4c0,0,0.1-0.1,0.1-0.1l0.8-2.6c0.1-0.4,0.4-0.8,0.9-0.8
	c0.3,0,0.5,0.1,0.7,0.4l0.7,1.4l1.5-0.6c0.3-0.1,0.6,0,0.8,0.2c0.2,0.4,0.2,0.8,0,1.2l-1.2,2.4c0,0,0,0.1,0,0.1l0.3,2.2
	c0,0.4-0.1,0.8-0.4,1.1c-0.2,0.2-0.4,0.3-0.7,0.3L375,70l-1.6,2C373.3,72.2,373,72.3,372.7,72.3z M371.9,67.3l1.1,0.8
	c0.2,0.2,0.4,0.5,0.3,0.8l-0.2,1.6l1-1.3c0.2-0.3,0.5-0.4,0.8-0.4l1.4,0.2c0-0.1,0-0.1,0-0.2l-0.3-2.2c0-0.3,0-0.5,0.1-0.8l1.1-2.1
	l-1.1,0.5c-0.3,0.1-0.7,0-0.9-0.4l-0.5-1.1l-0.7,2.3c-0.1,0.3-0.2,0.5-0.4,0.7l-1.7,1.3C371.9,67.2,371.9,67.3,371.9,67.3
	L371.9,67.3z"/>
<g id="XMLID_69_" class="st8">
	<path id="XMLID_79_" d="M389,54.3c-0.4,0-0.7-0.2-0.9-0.6c-0.3-0.5-0.1-1.2,0.4-1.5c0,0,0,0,0,0l8.6-5.1c0.5-0.3,1.2-0.1,1.5,0.4
		c0.3,0.5,0.1,1.2-0.4,1.5l-8.6,5.1C389.3,54.3,389.2,54.3,389,54.3z"/>
	<path id="XMLID_78_" d="M389,59.4c-0.4,0-0.7-0.2-0.9-0.5c-0.3-0.5-0.1-1.2,0.4-1.5c0,0,0,0,0,0l8.6-5.1c0.5-0.3,1.2-0.1,1.5,0.4
		c0,0,0,0,0,0c0.3,0.5,0.1,1.2-0.4,1.5l-8.6,5.1C389.3,59.4,389.2,59.4,389,59.4z"/>
	<path id="XMLID_77_" d="M389,64.5c-0.4,0-0.7-0.2-0.9-0.6c-0.3-0.5-0.1-1.2,0.4-1.5c0,0,0,0,0,0l8.6-5.1c0.5-0.3,1.2-0.1,1.5,0.4
		c0.3,0.5,0.1,1.2-0.4,1.5l-8.6,5.1C389.3,64.5,389.2,64.5,389,64.5z"/>
</g>
<path id="XMLID_68_" class="st4" d="M86,268.9l1-8.9c0-0.2,0.1-0.4,0.2-0.6c0.1-0.1,0.2-0.2,0.3-0.3l2-1.2c0.1-0.1,0.2-0.1,0.3,0
	c0.1,0.1,0.1,0.2,0.1,0.3c0,0.1,0,0.1,0,0.2l-2,16.8c0,0.3-0.1,0.5-0.2,0.8c-0.1,0.2-0.3,0.5-0.5,0.6l-1.3,0.8
	c-0.1,0.1-0.4,0.1-0.5,0c-0.1-0.1-0.2-0.3-0.3-0.5l-1.2-4.9l-1.2,6.3c-0.1,0.3-0.1,0.5-0.3,0.8c-0.1,0.2-0.3,0.5-0.5,0.6l-1.3,0.8
	c-0.2,0.1-0.4,0.1-0.5,0c-0.2-0.1-0.2-0.3-0.3-0.5l-2-14.4c0-0.1,0-0.1,0-0.2c0-0.2,0-0.3,0.1-0.4c0-0.1,0.1-0.2,0.2-0.3l2.1-1.2
	c0.1,0,0.2,0,0.3,0c0.1,0,0.2,0.2,0.2,0.4l1,7.7l0.9-5c0-0.2,0.1-0.4,0.1-0.5c0.1-0.2,0.2-0.4,0.4-0.5l1.5-0.9
	c0.2-0.1,0.3-0.1,0.4,0c0.1,0.1,0.1,0.2,0.1,0.4L86,268.9z"/>
<path id="XMLID_60_" class="st4" d="M99.3,265.4c0.1-0.1,0.2-0.1,0.3,0c0.1,0.1,0.1,0.3,0.1,0.4v2.6c0,0.2,0,0.4-0.1,0.6
	c-0.1,0.1-0.2,0.3-0.3,0.4l-7.4,4.4c-0.1,0.1-0.2,0.1-0.3,0c-0.1-0.1-0.1-0.2-0.1-0.4v-15.9c0-0.2,0-0.4,0.1-0.6
	c0.1-0.2,0.2-0.3,0.3-0.4l7.3-4.3c0.1-0.1,0.2-0.1,0.3,0c0.1,0.1,0.1,0.2,0.1,0.4v2.6c0,0.2,0,0.4-0.1,0.5c-0.1,0.2-0.2,0.3-0.3,0.4
	l-4.8,2.8v2.7l4.5-2.6c0.1-0.1,0.2-0.1,0.3,0c0.1,0.1,0.1,0.2,0.1,0.4v2.6c0,0.2,0,0.4-0.1,0.5c-0.1,0.2-0.2,0.3-0.3,0.4l-4.5,2.7
	v2.8L99.3,265.4z"/>
<path id="XMLID_56_" class="st4" d="M102,267.8c-0.1,0.1-0.2,0.1-0.3,0c-0.1-0.1-0.1-0.3-0.1-0.4v-15.9c0-0.2,0-0.4,0.1-0.5
	c0.1-0.2,0.2-0.3,0.3-0.4l5.1-3c0.5-0.4,1.1-0.6,1.8-0.6c0.4,0,0.9,0.2,1.2,0.5c0.3,0.4,0.5,0.8,0.6,1.3c0.1,0.6,0.2,1.2,0.2,1.7
	c0,0.4,0,0.9-0.1,1.3c-0.1,0.4-0.2,0.7-0.3,1.1c-0.1,0.3-0.2,0.5-0.3,0.8c-0.1,0.2-0.2,0.4-0.2,0.5c0.4,0.2,0.7,0.6,0.9,1
	c0.2,0.6,0.3,1.3,0.2,2c0,0.7-0.1,1.4-0.2,2.1c-0.1,0.7-0.3,1.4-0.6,2.1c-0.3,0.7-0.7,1.3-1.1,1.9c-0.5,0.6-1,1.1-1.7,1.5L102,267.8
	z M107.9,252.3c0-0.3-0.1-0.6-0.2-0.9c-0.2-0.2-0.4-0.1-0.7,0l-2.4,1.4v2.8l2.4-1.4c0.3-0.2,0.6-0.5,0.7-0.8
	C107.8,253.1,107.9,252.7,107.9,252.3L107.9,252.3z M104.5,262.5l2.7-1.6c0.3-0.2,0.6-0.5,0.7-0.9c0.2-0.4,0.3-0.8,0.3-1.2
	c0-0.3-0.1-0.7-0.3-0.9c-0.2-0.2-0.5-0.2-0.7,0l-2.6,1.5L104.5,262.5z"/>
<path id="XMLID_55_" class="st9" d="M117.3,241.3c0.5-0.3,1.1-0.5,1.7-0.5c0.4,0,0.9,0.1,1.2,0.4c0.3,0.3,0.6,0.6,0.8,1
	c0.2,0.4,0.3,0.8,0.3,1.2c0,0.2,0,0.3-0.1,0.4c-0.1,0.1-0.1,0.2-0.3,0.3l-0.6,0.4c-0.1,0-0.2,0.1-0.3,0c-0.1-0.1-0.1-0.1-0.2-0.3
	c-0.1-0.2-0.2-0.3-0.3-0.5c-0.1-0.2-0.3-0.3-0.5-0.5c-0.2-0.1-0.5-0.2-0.7-0.2c-0.4,0-0.7,0.1-1,0.3c-0.3,0.2-0.6,0.4-0.8,0.7
	c-0.3,0.3-0.5,0.6-0.7,0.9c-0.2,0.3-0.4,0.7-0.5,1.1c-0.1,0.4-0.2,0.8-0.2,1.2c0,0.3,0,0.7,0.2,1c0.1,0.2,0.3,0.4,0.6,0.5
	c0.3,0.1,0.7,0.1,1,0l1.5-0.2c0.5-0.1,1-0.1,1.5-0.1c0.4,0,0.7,0.2,1,0.4c0.3,0.2,0.5,0.6,0.6,0.9c0.1,0.5,0.2,1,0.2,1.5
	c0,0.8-0.1,1.5-0.3,2.2c-0.2,0.7-0.5,1.4-0.9,2.1c-0.4,0.7-0.8,1.3-1.3,1.8c-0.5,0.5-1.1,1-1.7,1.4c-0.5,0.3-1.1,0.5-1.7,0.6
	c-0.5,0-0.9-0.1-1.3-0.3c-0.4-0.2-0.7-0.6-0.9-1c-0.2-0.4-0.3-0.9-0.3-1.4c0-0.2,0-0.3,0.1-0.4c0-0.1,0.1-0.2,0.2-0.3l0.7-0.4
	c0.1,0,0.2,0,0.3,0c0.1,0,0.1,0.1,0.2,0.3c0.1,0.2,0.2,0.4,0.3,0.6c0.1,0.2,0.3,0.4,0.5,0.5c0.2,0.1,0.5,0.2,0.8,0.1
	c0.4,0,0.8-0.2,1.1-0.4c0.4-0.2,0.7-0.5,1-0.8c0.3-0.3,0.6-0.7,0.9-1.1c0.3-0.4,0.5-0.8,0.6-1.2c0.1-0.4,0.2-0.9,0.2-1.3
	c0-0.3-0.1-0.7-0.3-1c-0.2-0.2-0.4-0.4-0.7-0.4c-0.4-0.1-0.8-0.1-1.1,0c-0.5,0-1,0.1-1.6,0.3c-0.4,0.1-0.9,0.1-1.3,0
	c-0.3-0.1-0.7-0.3-0.9-0.5c-0.2-0.3-0.4-0.6-0.5-1c-0.1-0.5-0.1-1-0.1-1.5c0-0.7,0.1-1.3,0.2-1.9c0.2-0.7,0.4-1.3,0.7-1.9
	c0.3-0.6,0.7-1.2,1.2-1.8C116.1,242.1,116.6,241.6,117.3,241.3z"/>
<path id="XMLID_54_" class="st9" d="M124,254.8c-0.1,0.1-0.2,0.1-0.3,0c-0.1-0.1-0.1-0.3-0.1-0.4v-15.9c0-0.2,0-0.4,0.1-0.5
	c0.1-0.2,0.2-0.3,0.3-0.4l0.7-0.4c0.1-0.1,0.2-0.1,0.3,0c0.1,0.1,0.1,0.2,0.1,0.4v15.9c0,0.2,0,0.4-0.1,0.6
	c-0.1,0.2-0.2,0.3-0.3,0.4L124,254.8z"/>
<path id="XMLID_53_" class="st9" d="M134.6,231.3c0.1-0.1,0.2-0.1,0.3,0c0.1,0.1,0.1,0.2,0.1,0.4v0.9c0,0.2,0,0.4-0.1,0.5
	c-0.1,0.1-0.2,0.3-0.3,0.4l-2.9,1.7v14.4c0,0.2,0,0.4-0.1,0.6c-0.1,0.2-0.2,0.3-0.3,0.4l-0.6,0.4c-0.1,0.1-0.2,0.1-0.3,0
	c-0.1-0.1-0.1-0.2-0.1-0.4v-14.4l-2.9,1.7c-0.1,0.1-0.2,0.1-0.3,0c-0.1-0.1-0.1-0.2-0.1-0.4v-0.9c0-0.2,0-0.4,0.1-0.6
	c0.1-0.1,0.2-0.3,0.3-0.4L134.6,231.3z"/>
<path id="XMLID_52_" class="st9" d="M143.5,241.2c0.1-0.1,0.2-0.1,0.3,0c0.1,0.1,0.1,0.2,0.1,0.4v0.9c0,0.2,0,0.4-0.1,0.6
	c-0.1,0.2-0.2,0.3-0.3,0.4l-6.4,3.7c-0.1,0.1-0.2,0.1-0.3,0c-0.1-0.1-0.1-0.2-0.1-0.4v-15.9c0-0.2,0-0.4,0.1-0.6
	c0.1-0.2,0.2-0.3,0.3-0.4l6.2-3.7c0.1-0.1,0.2-0.1,0.3,0c0.1,0.1,0.1,0.3,0.1,0.4v0.9c0,0.2,0,0.4-0.1,0.6c-0.1,0.2-0.2,0.3-0.3,0.4
	l-5.1,3v5.2l4.8-2.8c0.1,0,0.2,0,0.3,0c0.1,0.1,0.1,0.3,0.1,0.4v0.9c0,0.2,0,0.4-0.1,0.5c-0.1,0.2-0.2,0.3-0.3,0.4l-4.8,2.8v5.4
	L143.5,241.2z"/>
<path id="XMLID_51_" class="st10" d="M242.2,173.5L216,189c-1.2,0.8-2,2.1-2.1,3.5c0,1.3,0.9,1.7,2.1,1.1l26.3-15.5
	c1.2-0.8,2-2.1,2.1-3.5C244.3,173.4,243.4,172.9,242.2,173.5z"/>
<path id="XMLID_50_" class="st9" d="M281.3,150.6l-20.6,12.2c-1.2,0.8-2,2.1-2.1,3.5c0,1.3,0.9,1.7,2.1,1.1l20.6-12.2
	c1.2-0.8,2-2.1,2.1-3.5C283.4,150.4,282.4,149.9,281.3,150.6z"/>
<path id="XMLID_49_" class="st9" d="M316.8,129.6l-17.2,10.1c-1.2,0.8-2,2.1-2.1,3.5c0,1.3,0.9,1.7,2.1,1.1l17.2-10.1
	c1.2-0.8,1.9-2.1,2.1-3.5C318.9,129.5,318,129,316.8,129.6z"/>
<path id="XMLID_48_" class="st9" d="M361.5,103.4l-26.3,15.5c-1.2,0.8-2,2.1-2.1,3.5c0,1.3,0.9,1.7,2.1,1.1l26.3-15.5
	c1.2-0.8,1.9-2.1,2-3.5C363.5,103.2,362.6,102.7,361.5,103.4z"/>
<polygon id="XMLID_47_" class="st4" points="21.3,447.6 404.4,221.9 404.4,96.6 21.3,322.2 "/>
<path id="XMLID_46_" class="st1" d="M75,309l70.5-41.5c2.1-1.2,3.8-0.2,3.8,2.2v0.7c-0.2,2.7-1.6,5.2-3.8,6.7L75,318.6
	c-2.1,1.2-3.8,0.2-3.8-2.2v-2.5C71.2,311.5,72.9,310.2,75,309z"/>
<path id="XMLID_45_" class="st11" d="M75,325.7l45.9-27.1c2.1-1.2,3.8-0.2,3.8,2.2v0.7c-0.2,2.7-1.6,5.2-3.8,6.7l-45.9,27
	c-2.1,1.2-3.8,0.2-3.8-2.2v-2.5C71.2,328.2,72.9,326.9,75,325.7z"/>
<path id="XMLID_44_" class="st12" d="M75,325.7l45.9-27.1c2.1-1.2,3.8-0.2,3.8,2.2v0.7c-0.2,2.7-1.6,5.2-3.8,6.7l-45.9,27
	c-2.1,1.2-3.8,0.2-3.8-2.2v-2.5C71.2,328.2,72.9,326.9,75,325.7z"/>
<path id="XMLID_43_" class="st2" d="M71.2,356.1c-0.2,0-0.4-0.1-0.6-0.3c-0.2-0.3-0.1-0.7,0.2-0.9c0,0,0,0,0,0l134.8-79.3
	c0.3-0.2,0.7-0.1,0.9,0.3c0.2,0.3,0.1,0.7-0.2,0.9L71.5,356.1C71.4,356.1,71.3,356.1,71.2,356.1z"/>
<path id="XMLID_42_" class="st2" d="M71.2,364.5c-0.4,0-0.7-0.3-0.7-0.7c0-0.2,0.1-0.5,0.3-0.6l49.7-29.3c0.3-0.2,0.7-0.1,0.9,0.2
	c0.2,0.3,0.1,0.7-0.2,0.9l-49.7,29.2C71.4,364.4,71.3,364.4,71.2,364.5z"/>
<path id="XMLID_41_" class="st2" d="M127.9,331c-0.4,0-0.7-0.3-0.7-0.6c0-0.3,0.1-0.5,0.3-0.6l28.4-16.7c0.3-0.2,0.7-0.1,0.9,0.2
	c0.2,0.3,0.1,0.7-0.2,0.9l-28.4,16.7C128.2,331,128.1,331,127.9,331z"/>
<path id="XMLID_40_" class="st2" d="M163.3,310.2c-0.2,0-0.4-0.1-0.6-0.3c-0.2-0.3-0.1-0.7,0.2-0.9c0,0,0,0,0,0l42.6-25.1
	c0.3-0.2,0.7-0.1,0.9,0.2c0.2,0.3,0.1,0.7-0.2,0.9c0,0,0,0,0,0l-42.6,25.1C163.5,310.1,163.4,310.2,163.3,310.2z"/>
<path id="XMLID_39_" class="st2" d="M71.2,372.8c-0.2,0-0.4-0.1-0.6-0.3c-0.2-0.3-0.1-0.7,0.2-0.9c0,0,0,0,0,0L92.1,359
	c0.3-0.2,0.7-0.1,0.9,0.2c0.2,0.3,0.1,0.7-0.2,0.9l-21.3,12.6C71.4,372.8,71.3,372.8,71.2,372.8z"/>
<path id="XMLID_38_" class="st2" d="M99.6,356.1c-0.2,0-0.4-0.1-0.6-0.3c-0.1-0.3,0-0.6,0.2-0.8l49.7-29.2c0.3-0.2,0.7-0.1,0.9,0.3
	c0.2,0.3,0.1,0.7-0.2,0.9l-49.7,29.2C99.8,356.1,99.7,356.1,99.6,356.1z"/>
<path id="XMLID_37_" class="st2" d="M156.4,322.7c-0.2,0-0.4-0.1-0.6-0.3c-0.2-0.3-0.1-0.7,0.2-0.9l49.7-29.2
	c0.3-0.2,0.7-0.1,0.9,0.3s0.1,0.7-0.2,0.9l-49.7,29.2C156.6,322.6,156.5,322.7,156.4,322.7z"/>
<path id="XMLID_36_" class="st2" d="M71.2,381.2c-0.2,0-0.5-0.1-0.6-0.3c-0.2-0.3-0.1-0.7,0.2-0.9c0,0,0,0,0,0l134.8-79.4
	c0.3-0.2,0.7-0.1,0.9,0.2c0.2,0.3,0.1,0.7-0.2,0.9c0,0,0,0,0,0L71.5,381.1C71.4,381.2,71.3,381.2,71.2,381.2z"/>
<path id="XMLID_35_" class="st2" d="M71.2,389.5c-0.2,0-0.4-0.1-0.6-0.3c-0.2-0.3-0.1-0.7,0.2-0.9c0,0,0,0,0,0l49.7-29.2
	c0.3-0.2,0.7-0.2,0.9,0.1c0.2,0.3,0.2,0.7-0.1,1c0,0-0.1,0.1-0.1,0.1l-49.7,29.2C71.4,389.5,71.3,389.5,71.2,389.5z"/>
<path id="XMLID_34_" class="st2" d="M127.9,356.1c-0.4,0-0.7-0.3-0.7-0.6c0-0.3,0.1-0.5,0.3-0.6l28.4-16.7c0.3-0.2,0.7-0.1,0.9,0.2
	c0.2,0.3,0.1,0.7-0.2,0.9L128.3,356C128.2,356.1,128.1,356.1,127.9,356.1z"/>
<path id="XMLID_33_" class="st2" d="M163.3,335.2c-0.2,0-0.5-0.1-0.6-0.3c-0.2-0.3-0.1-0.7,0.2-0.9c0,0,0,0,0,0l42.6-25.1
	c0.3-0.2,0.7-0.1,0.9,0.2c0.2,0.3,0.1,0.7-0.2,0.9c0,0,0,0,0,0l-42.6,25.1C163.5,335.2,163.4,335.2,163.3,335.2z"/>
<path id="XMLID_32_" class="st2" d="M71.2,397.9c-0.2,0-0.5-0.1-0.6-0.3c-0.2-0.3-0.1-0.7,0.2-0.9c0,0,0,0,0,0l21.3-12.5
	c0.3-0.2,0.7-0.1,0.9,0.3c0.2,0.3,0.1,0.7-0.2,0.9l-21.3,12.5C71.4,397.9,71.3,397.9,71.2,397.9z"/>
<path id="XMLID_31_" class="st2" d="M99.6,381.2c-0.2,0-0.5-0.1-0.6-0.3c-0.2-0.3-0.1-0.7,0.2-0.9l49.7-29.3
	c0.3-0.2,0.7-0.1,0.9,0.3c0.2,0.3,0.1,0.7-0.2,0.9L99.9,381C99.8,381.1,99.7,381.2,99.6,381.2z"/>
<path id="XMLID_30_" class="st2" d="M156.4,347.7c-0.2,0-0.5-0.1-0.6-0.3c-0.2-0.3-0.1-0.7,0.2-0.9l49.6-29.3
	c0.3-0.2,0.7-0.1,0.9,0.2c0.2,0.3,0.1,0.7-0.2,0.9c0,0,0,0,0,0l-49.7,29.2C156.6,347.6,156.5,347.7,156.4,347.7z"/>
<path id="XMLID_29_" class="st13" d="M364.1,136v93.6c-0.1,2.1-1.2,3.9-2.9,5.1l-141.9,84c-0.2,0.1-0.3,0.2-0.5,0.2l0,0
	c-1.4,0.5-2.4-0.2-2.4-1.9v-93.6c0-1,0.3-2,0.8-2.9c0.5-0.9,1.2-1.6,2-2.2l142-84c1.3-0.8,2.4-0.4,2.8,0.9c0-0.1,0-0.2,0-0.2
	c0.1,0.2,0.1,0.4,0.1,0.6C364.1,135.7,364.1,135.8,364.1,136z"/>
<polygon id="XMLID_28_" class="st9" points="224.4,305.2 356.1,227.7 356.1,205.1 320.4,199.2 295.1,230.6 302,238.6 261.4,213.5 
	224.4,274.6 "/>
<path id="XMLID_27_" class="st9" d="M342.2,161.2c3.9-2.3,7.1-0.5,7.1,4.1c-0.3,5.1-2.9,9.7-7.1,12.5c-3.9,2.3-7.1,0.5-7.1-4.1
	C335.4,168.6,338,164,342.2,161.2z"/>
<path id="XMLID_26_" class="st11" d="M152.6,396.5v70.2c-0.1,1.5-0.9,2.8-2.1,3.7l-76.8,45.2l-0.3,0.2l0,0c-1,0.4-1.7-0.2-1.7-1.4
	v-70.3c0.1-1.5,0.8-2.8,2.1-3.6l76.7-45.1c1-0.6,1.8-0.3,2,0.6c0-0.1,0-0.1,0-0.2c0,0.1,0,0.3,0,0.4
	C152.6,396.3,152.6,396.4,152.6,396.5z"/>
<path id="XMLID_25_" class="st14" d="M152.6,396.5v70.2c-0.1,1.5-0.9,2.8-2.1,3.7l-76.8,45.2l-0.3,0.2l0,0c-1,0.4-1.7-0.2-1.7-1.4
	v-70.3c0.1-1.5,0.8-2.8,2.1-3.6l76.7-45.1c1-0.6,1.8-0.3,2,0.6c0-0.1,0-0.1,0-0.2c0,0.1,0,0.3,0,0.4
	C152.6,396.3,152.6,396.4,152.6,396.5z"/>
<polygon id="XMLID_24_" class="st7" points="77.6,505.9 146.8,465.1 146.8,446.8 131.9,437.7 117.5,459.1 121.8,464.8 95.7,445.5 
	77.6,482.7 "/>
<path id="XMLID_23_" class="st7" d="M119.7,423.3c2.8-1.7,5.1-0.4,5.1,3c-0.2,3.7-2.1,7.2-5.1,9.3c-2.8,1.7-5.1,0.3-5.1-3
	C114.8,428.8,116.7,425.4,119.7,423.3z"/>
<path id="XMLID_22_" class="st11" d="M364,272v70.2c-0.1,1.5-0.9,2.8-2.1,3.7L285.2,391l-0.3,0.2l0,0c-1,0.4-1.7-0.2-1.7-1.4v-70.3
	c0.1-1.5,0.8-2.8,2.1-3.6l76.7-45.1c1-0.6,1.8-0.3,2,0.6c0-0.1,0-0.1,0-0.2c0,0.1,0,0.3,0,0.4C364,271.7,364,271.8,364,272z"/>
<path id="XMLID_21_" class="st14" d="M364,272v70.2c-0.1,1.5-0.9,2.8-2.1,3.7L285.2,391l-0.3,0.2l0,0c-1,0.4-1.7-0.2-1.7-1.4v-70.3
	c0.1-1.5,0.8-2.8,2.1-3.6l76.7-45.1c1-0.6,1.8-0.3,2,0.6c0-0.1,0-0.1,0-0.2c0,0.1,0,0.3,0,0.4C364,271.7,364,271.8,364,272z"/>
<polygon id="XMLID_20_" class="st7" points="289,381.4 358.2,340.5 358.2,322.2 343.3,313.2 328.9,334.6 333.2,340.2 307.1,321 
	289,358.2 "/>
<path id="XMLID_19_" class="st7" d="M331.1,298.8c2.8-1.7,5.1-0.4,5.1,3c-0.1,3.8-2,7.2-5.1,9.4c-2.8,1.7-5.1,0.3-5.1-3
	C326.2,304.4,328.1,300.9,331.1,298.8z"/>
<path id="XMLID_18_" class="st11" d="M258.3,334.2v70.2c-0.1,1.5-0.9,2.8-2.1,3.7l-76.7,45.2c-0.1,0.1-0.2,0.1-0.3,0.2l0,0
	c-1,0.4-1.7-0.2-1.7-1.4v-70.3c0.1-1.5,0.8-2.8,2.1-3.6l76.7-45.1c1-0.6,1.8-0.3,2,0.6c0-0.1,0-0.1,0-0.2c0,0.1,0,0.3,0,0.4
	C258.3,334,258.3,334.1,258.3,334.2z"/>
<path id="XMLID_17_" class="st14" d="M258.3,334.2v70.2c-0.1,1.5-0.9,2.8-2.1,3.7l-76.7,45.2c-0.1,0.1-0.2,0.1-0.3,0.2l0,0
	c-1,0.4-1.7-0.2-1.7-1.4v-70.3c0.1-1.5,0.8-2.8,2.1-3.6l76.7-45.1c1-0.6,1.8-0.3,2,0.6c0-0.1,0-0.1,0-0.2c0,0.1,0,0.3,0,0.4
	C258.3,334,258.3,334.1,258.3,334.2z"/>
<polygon id="XMLID_16_" class="st7" points="183.3,443.6 252.5,402.8 252.5,384.5 237.6,375.4 223.2,396.8 227.5,402.5 201.4,383.3 
	183.3,420.5 "/>
<path id="XMLID_15_" class="st7" d="M225.4,361.1c2.8-1.7,5.1-0.4,5.1,3c-0.2,3.7-2.1,7.2-5.1,9.3c-2.8,1.7-5.1,0.3-5.1-3
	C220.5,366.6,222.4,363.2,225.4,361.1z"/>
</svg>
