<?xml version="1.0" encoding="utf-8"?>
<!-- Generator: Adobe Illustrator 19.0.0, SVG Export Plug-In . SVG Version: 6.00 Build 0)  -->
<svg version="1.1" id="Layer_1" xmlns="http://www.w3.org/2000/svg" xmlns:xlink="http://www.w3.org/1999/xlink" x="0px" y="0px"
	 viewBox="0 0 200 200" style="enable-background:new 0 0 200 200;" xml:space="preserve">
<style type="text/css">
	.st0{fill:#FFFFFF;}
</style>
<path id="XMLID_29_" class="st0" d="M99.7,194.9c-52,0-94.7-43-94.6-95.3c0.1-51.8,43-94.5,95.1-94.5c52,0,94.7,43,94.6,95.3
	C194.8,152.2,151.8,194.9,99.7,194.9z M160.6,56c-0.6-0.8-0.9-1.3-1.2-1.7c-18.4-22.4-42.1-32.7-70.7-28
	c-31.2,5.1-51.2,24.1-60.7,54.2c-0.7,2.4-0.3,3.9,1.5,5.7c27.2,27,54.2,54.2,81.3,81.3c5.9,5.9,6,6,13.8,3.1
	c27.3-10.5,43.9-30.1,49.4-58.8c0.7-3.8,0.7-7.7,1-11.5c-16.4,0-32.1,0-47.8,0c0,4.6,0,9,0,13.7c10.8,0,21.4,0,32.3,0
	c-0.1,0.7-0.2,1.1-0.3,1.5c-5.6,19.5-17.5,33.3-36.2,41.3c-1.8,0.8-2.9,0.6-4.3-0.8C95.3,132.3,72,109,48.7,85.7
	c-2-2-5.4-4.1-5.6-6.4c-0.2-2.7,2-5.8,3.6-8.5C58.1,51.3,75,40.3,97.6,39.3c20.6-0.9,37.5,7.5,50.7,23.3c0.6,0.7,1.2,1.5,2,2.3
	C153.8,61.8,157.1,59,160.6,56z M98.7,174.8c0.1-0.2,0.3-0.4,0.4-0.6c-24.4-24.2-48.9-48.4-73.3-72.7c-0.2,0.2-0.4,0.3-0.7,0.5
	c0.6,20,7.9,37.2,22.2,51.4C61.5,167.4,79.1,173.8,98.7,174.8z"/>
</svg>
