<?xml version="1.0" encoding="utf-8"?>
<!-- Generator: Adobe Illustrator 19.0.0, SVG Export Plug-In . SVG Version: 6.00 Build 0)  -->
<svg version="1.1" id="Layer_1" xmlns="http://www.w3.org/2000/svg" xmlns:xlink="http://www.w3.org/1999/xlink" x="0px" y="0px"
	 viewBox="-399 151 200 200" style="enable-background:new -399 151 200 200;" xml:space="preserve">
<style type="text/css">
	.st0{fill:url(#XMLID_30_);}
	.st1{fill:#FFB301;}
	.st2{fill:#FFFFFF;}
	.st3{fill:#373F6B;}
	.st4{fill:url(#XMLID_31_);}
	.st5{fill:#D4D4D4;}
	.st6{fill:#4CB4D8;}
	.st7{fill:none;stroke:#000000;stroke-miterlimit:10;}
	.st8{fill:url(#XMLID_32_);}
	.st9{fill:url(#XMLID_33_);}
	.st10{fill:url(#XMLID_42_);}
	.st11{fill:#EFB56F;}
	.st12{fill:#E57A1A;}
	.st13{fill:url(#XMLID_43_);}
	.st14{fill:url(#XMLID_49_);}
	.st15{fill:url(#XMLID_52_);}
</style>
<linearGradient id="XMLID_30_" gradientUnits="userSpaceOnUse" x1="-374.1498" y1="199.8584" x2="-180.2252" y2="311.8208" gradientTransform="matrix(1 0 0 -1 0 504)">
	<stop  offset="0" style="stop-color:#000000"/>
	<stop  offset="0" style="stop-color:#FFFFFF;stop-opacity:0"/>
	<stop  offset="0.1183" style="stop-color:#B8B8B8;stop-opacity:0.1"/>
	<stop  offset="0.2527" style="stop-color:#616161;stop-opacity:0.2"/>
	<stop  offset="0.3226" style="stop-color:#434343;stop-opacity:0.2255"/>
	<stop  offset="0.4023" style="stop-color:#282828;stop-opacity:0.2546"/>
	<stop  offset="0.4729" style="stop-color:#181818;stop-opacity:0.2803"/>
	<stop  offset="0.5269" style="stop-color:#121212;stop-opacity:0.3"/>
	<stop  offset="0.9946" style="stop-color:#121212;stop-opacity:0.9615"/>
</linearGradient>
<path id="XMLID_39_" class="st0" d="M-341.3,354.1c-7.4-6.4-16.1-16.3-17.2-29.5c-0.9-11.8,5.6-14.6,6.6-28.9
	c1.6-22.1-11.8-40.2-14.8-44.3c-9.9-13.4-15.4-11.3-22.7-24.1c-2.2-3.8-9.5-17.2-7.2-34.9c0.7-5.4,3.6-20.5,17-32.3
	c5.7-5.1,11.6-7.1,15.6-9.1h160v203L-341.3,354.1z"/>
<path id="XMLID_38_" class="st1" d="M-336.8,351c-7.4-6.3-16.4-16-17.4-28.9c-0.9-11.6,5.5-14.3,6.5-28.3
	c1.6-21.6-11.9-39.4-14.9-43.4c-10-13.2-15.5-11.1-22.8-23.6c-2.2-3.7-9.5-16.8-7.2-34.2c0.7-5.3,3.6-20.6,17-32.2
	c5.8-5,11.6-7.4,15.6-9.4h161v199.9L-336.8,351z"/>
<path id="XMLID_20_" class="st2" d="M-339.5,199.7H-365c-1.7,0-3-1.3-3-3V184c0-1.7,1.4-3,3-3h25.5c1.7,0,3,1.4,3,3v12.7
	C-336.5,198.4-337.8,199.7-339.5,199.7z"/>
<g id="XMLID_40_">
	<path id="XMLID_55_" class="st2" d="M-347.5,193c1.7,0,2.3,1.2,1.5,2.6l-4.5,7.5c-0.8,1.4-2.2,1.4-3.1,0l-4.5-7.5
		c-0.8-1.4-0.2-2.6,1.5-2.6H-347.5z"/>
</g>
<path id="XMLID_41_" d="M-342.9,185.8h-21.3c-0.4,0-0.8-0.4-0.8-0.8l0,0c0-0.4,0.4-0.8,0.8-0.8h21.3c0.4,0,0.8,0.4,0.8,0.8l0,0
	C-342.1,185.5-342.4,185.8-342.9,185.8z"/>
<path id="XMLID_44_" d="M-348.8,189.4h-15.5c-0.4,0-0.7-0.3-0.7-0.7v-0.2c0-0.4,0.3-0.7,0.7-0.7h15.5c0.4,0,0.7,0.3,0.7,0.7v0.2
	C-348.1,189.1-348.4,189.4-348.8,189.4z"/>
<path id="XMLID_45_" d="M-345.2,193.1h-19c-0.4,0-0.7-0.3-0.7-0.7v-0.1c0-0.4,0.3-0.7,0.7-0.7h19c0.4,0,0.7,0.3,0.7,0.7v0.1
	C-344.5,192.7-344.8,193.1-345.2,193.1z"/>
<path id="XMLID_46_" d="M-354.1,196.5h-10.3c-0.3,0-0.6-0.3-0.6-0.6v-0.5c0-0.3,0.3-0.6,0.6-0.6h10.3c0.3,0,0.6,0.3,0.6,0.6v0.6
	C-353.5,196.3-353.8,196.5-354.1,196.5z"/>
<path id="XMLID_68_" class="st3" d="M-353.8,342.8L-353.8,342.8c-1,0-1.9-0.8-1.9-1.9v-1.8c0-1,0.8-1.9,1.9-1.9l0,0
	c1,0,1.9,0.8,1.9,1.9v1.8C-351.9,341.9-352.8,342.8-353.8,342.8z"/>
<g id="Layer_2">
	
		<linearGradient id="XMLID_31_" gradientUnits="userSpaceOnUse" x1="-224.9946" y1="249.85" x2="-382.7" y2="249.85" gradientTransform="matrix(1 0 0 -1 0 504)">
		<stop  offset="0.1882" style="stop-color:#000000;stop-opacity:0.3"/>
		<stop  offset="0.5323" style="stop-color:#000000;stop-opacity:0.2"/>
		<stop  offset="0.7742" style="stop-color:#000000;stop-opacity:0.1"/>
		<stop  offset="0.9355" style="stop-color:#000000;stop-opacity:0"/>
	</linearGradient>
	<path id="XMLID_1_" class="st4" d="M-227.8,293.9h-152.1c-1.6,0-2.8-1.3-2.8-2.8v-73.9c0-1.6,1.3-2.8,2.8-2.8h152.1
		c1.6,0,2.8,1.3,2.8,2.8V291C-224.9,292.6-226.2,293.9-227.8,293.9z"/>
	<path id="XMLID_2_" class="st5" d="M-221.9,291h-154.2c-1.6,0-2.9-1.3-2.9-2.9v-74.2c0-1.6,1.3-2.9,2.9-2.9h154.3
		c1.6,0,2.9,1.3,2.9,2.9v74.3C-219,289.7-220.3,291-221.9,291z"/>
	<path id="XMLID_5_" class="st2" d="M-253.7,288.1h-28.8c-0.3,0-0.6-0.3-0.6-0.6v-16.8c0-0.3,0.3-0.6,0.6-0.6h28.8
		c0.3,0,0.6,0.3,0.6,0.6v16.8C-253.1,287.8-253.4,288.1-253.7,288.1z"/>
	<path id="XMLID_3_" class="st2" d="M-253.7,232.4h-28.8c-0.3,0-0.6-0.3-0.6-0.6V215c0-0.3,0.3-0.6,0.6-0.6h28.8
		c0.3,0,0.6,0.3,0.6,0.6v16.8C-253.1,232.1-253.4,232.4-253.7,232.4z"/>
	<path id="XMLID_4_" class="st2" d="M-253.7,259.4h-28.8c-0.3,0-0.6-0.3-0.6-0.6V242c0-0.3,0.3-0.6,0.6-0.6h28.8
		c0.3,0,0.6,0.3,0.6,0.6v16.8C-253.1,259.1-253.4,259.4-253.7,259.4z"/>
	<g id="XMLID_9_">
		<path id="XMLID_6_" class="st2" d="M-225.9,218.9h-24.9c-0.5,0-1-0.4-1-1v-0.4c0-0.5,0.4-1,1-1h24.9c0.5,0,1,0.4,1,1v0.5
			C-224.9,218.5-225.4,218.9-225.9,218.9z"/>
		<path id="XMLID_7_" class="st2" d="M-225.9,224.5h-24.9c-0.5,0-1-0.4-1-1v-0.4c0-0.5,0.4-1,1-1h24.9c0.5,0,1,0.4,1,1v0.4
			C-224.9,224.1-225.4,224.5-225.9,224.5z"/>
		<path id="XMLID_8_" class="st2" d="M-236.9,229.9H-251c-0.4,0-0.7-0.3-0.7-0.7v-0.8c0-0.4,0.3-0.7,0.7-0.7h14.1
			c0.4,0,0.7,0.3,0.7,0.7v0.8C-236.2,229.6-236.5,229.9-236.9,229.9z"/>
	</g>
	<g id="XMLID_10_">
		<path id="XMLID_13_" class="st2" d="M-225.9,246.7h-24.9c-0.5,0-1-0.4-1-1v-0.4c0-0.5,0.4-1,1-1h24.9c0.5,0,1,0.4,1,1v0.4
			C-224.9,246.2-225.4,246.7-225.9,246.7z"/>
		<path id="XMLID_12_" class="st2" d="M-225.9,252.2h-24.9c-0.5,0-1-0.4-1-1v-0.4c0-0.5,0.4-1,1-1h24.9c0.5,0,1,0.4,1,1v0.4
			C-224.9,251.8-225.4,252.2-225.9,252.2z"/>
		<path id="XMLID_11_" class="st2" d="M-236.9,257.6H-251c-0.4,0-0.7-0.3-0.7-0.7v-0.8c0-0.4,0.3-0.7,0.7-0.7h14.1
			c0.4,0,0.7,0.3,0.7,0.7v0.8C-236.2,257.3-236.5,257.6-236.9,257.6z"/>
	</g>
	<g id="XMLID_14_">
		<path id="XMLID_17_" class="st2" d="M-225.9,274.7h-24.9c-0.5,0-1-0.4-1-1v-0.4c0-0.5,0.4-1,1-1h24.9c0.5,0,1,0.4,1,1v0.4
			C-224.9,274.3-225.4,274.7-225.9,274.7z"/>
		<path id="XMLID_16_" class="st2" d="M-225.9,280.3h-24.9c-0.5,0-1-0.4-1-1V279c0-0.5,0.4-1,1-1h24.9c0.5,0,1,0.4,1,1v0.4
			C-224.9,279.9-225.4,280.3-225.9,280.3z"/>
		<path id="XMLID_15_" class="st2" d="M-236.9,285.7H-251c-0.4,0-0.7-0.3-0.7-0.7v-0.8c0-0.4,0.3-0.7,0.7-0.7h14.1
			c0.4,0,0.7,0.3,0.7,0.7v0.8C-236.2,285.4-236.5,285.7-236.9,285.7z"/>
	</g>
	<path id="XMLID_18_" class="st6" d="M-290.1,288.1h-82.3c-1.6,0-3-1.4-3-3v-67.7c0-1.7,1.4-3,3-3h82.3c1.7,0,3,1.4,3,3v67.7
		C-287.1,286.7-288.5,288.1-290.1,288.1z"/>
</g>
<g id="Layer_3">
	<g id="XMLID_19_">
	</g>
	<path id="XMLID_37_" class="st2" d="M-210.7,190.4h-93.5c-1.8,0-3.3-1.5-3.3-3.3v-7c0-1.8,1.5-3.3,3.3-3.3h93.5
		c1.8,0,3.3,1.5,3.3,3.3v7C-207.4,188.9-208.9,190.4-210.7,190.4z"/>
</g>
<path id="XMLID_36_" class="st2" d="M-300.6,336.5h-42.3c-1.4,0-2.6-1.1-2.6-2.6v-39.1c0-1.4,1.1-2.6,2.6-2.6h42.4
	c1.4,0,2.6,1.1,2.6,2.6v39.1C-298,335.4-299.2,336.5-300.6,336.5z"/>
<line id="XMLID_22_" class="st7" x1="-352" y1="300.5" x2="-292" y2="300.5"/>
<line id="XMLID_24_" class="st7" x1="-298.5" y1="340" x2="-298.5" y2="280"/>
<line id="XMLID_23_" class="st7" x1="-345.5" y1="340" x2="-345.5" y2="280"/>
<line id="XMLID_26_" class="st7" x1="-336.5" y1="340" x2="-336.5" y2="280"/>
<line id="XMLID_25_" class="st7" x1="-307.5" y1="340" x2="-307.5" y2="280"/>
<line id="XMLID_21_" class="st7" x1="-352" y1="326.5" x2="-292" y2="326.5"/>
<line id="XMLID_34_" class="st7" x1="-351" y1="336.5" x2="-291" y2="336.5"/>
<line id="XMLID_35_" class="st7" x1="-354" y1="292.5" x2="-294" y2="292.5"/>
<linearGradient id="XMLID_32_" gradientUnits="userSpaceOnUse" x1="-245.2182" y1="288.3083" x2="-235.2165" y2="305.6317" gradientTransform="matrix(1 0 0 -1 0 504)">
	<stop  offset="0" style="stop-color:#4F4F4F"/>
	<stop  offset="0.6935" style="stop-color:#353535"/>
	<stop  offset="0.9323" style="stop-color:#333333"/>
</linearGradient>
<circle id="XMLID_54_" class="st8" cx="-240.2" cy="207" r="10"/>
<circle id="XMLID_48_" class="st2" cx="-239.9" cy="203.4" r="2.5"/>
<linearGradient id="XMLID_33_" gradientUnits="userSpaceOnUse" x1="-341.5016" y1="235.9766" x2="-321.4984" y2="270.6234" gradientTransform="matrix(1 0 0 -1 0 504)">
	<stop  offset="0" style="stop-color:#4F4F4F"/>
	<stop  offset="0.6935" style="stop-color:#353535"/>
	<stop  offset="0.9323" style="stop-color:#333333"/>
</linearGradient>
<circle id="XMLID_47_" class="st9" cx="-331.5" cy="250.7" r="20"/>
<polygon id="XMLID_50_" class="st2" points="-338,243.2 -323,250.7 -338,258.2 "/>
<linearGradient id="XMLID_42_" gradientUnits="userSpaceOnUse" x1="-277.2625" y1="203.9" x2="-266.7625" y2="203.9" gradientTransform="matrix(1 0 0 -1 0 504)">
	<stop  offset="0" style="stop-color:#353535;stop-opacity:0"/>
	<stop  offset="0.2043" style="stop-color:#353535;stop-opacity:4.677419e-002"/>
	<stop  offset="0.3226" style="stop-color:#353535;stop-opacity:5.650364e-002"/>
	<stop  offset="0.4247" style="stop-color:#353535;stop-opacity:0.1"/>
	<stop  offset="0.5161" style="stop-color:#202020;stop-opacity:0.1"/>
	<stop  offset="0.6505" style="stop-color:#181818;stop-opacity:0.2"/>
	<stop  offset="0.9247" style="stop-color:#000000;stop-opacity:0"/>
</linearGradient>
<rect id="XMLID_64_" x="-277.3" y="284.2" class="st10" width="10.5" height="31.8"/>
<g id="XMLID_63_">
	<path id="XMLID_62_" class="st2" d="M-211.3,317.7h-58.5c-1.7,0-3-1.4-3-3v-31.1c0-1.7,1.4-3,3-3h58.5c1.7,0,3,1.4,3,3v31.1
		C-208.3,316.3-209.7,317.7-211.3,317.7z"/>
	<rect id="XMLID_56_" x="-270.4" y="282.9" class="st11" width="59.6" height="32.1"/>
	<polygon id="XMLID_51_" class="st12" points="-270.4,315 -251.1,286.5 -231.7,315 	"/>
	<polygon id="XMLID_57_" class="st12" points="-236.1,315 -223.2,297.3 -210.3,315 	"/>
	<ellipse id="XMLID_61_" class="st2" cx="-235.3" cy="290" rx="2.2" ry="2.4"/>
</g>
<linearGradient id="XMLID_43_" gradientUnits="userSpaceOnUse" x1="-302.9782" y1="318.186" x2="-300.4778" y2="322.5169" gradientTransform="matrix(1 0 0 -1 0 504)">
	<stop  offset="0" style="stop-color:#353535"/>
	<stop  offset="0.9323" style="stop-color:#333333"/>
</linearGradient>
<circle id="XMLID_65_" class="st13" cx="-301.7" cy="183.6" r="2.5"/>
<linearGradient id="XMLID_49_" gradientUnits="userSpaceOnUse" x1="-264.8465" y1="306.3979" x2="-246.2635" y2="338.5847" gradientTransform="matrix(1 0 0 -1 0 504)">
	<stop  offset="0" style="stop-color:#353535"/>
	<stop  offset="0.9323" style="stop-color:#333333"/>
</linearGradient>
<path id="XMLID_66_" class="st14" d="M-219.7,182.2h-71.7c-0.4,0-0.7-0.3-0.7-0.7l0,0c0-0.4,0.3-0.7,0.7-0.7h71.7
	c0.4,0,0.7,0.3,0.7,0.7l0,0C-219,181.9-219.3,182.2-219.7,182.2z"/>
<linearGradient id="XMLID_52_" gradientUnits="userSpaceOnUse" x1="-272.6951" y1="306.6038" x2="-259.3038" y2="329.7982" gradientTransform="matrix(1 0 0 -1 0 504)">
	<stop  offset="0" style="stop-color:#353535"/>
	<stop  offset="0.9323" style="stop-color:#333333"/>
</linearGradient>
<path id="XMLID_67_" class="st15" d="M-240.5,186.5h-51c-0.3,0-0.6-0.3-0.6-0.6v-0.2c0-0.3,0.3-0.6,0.6-0.6h51
	c0.3,0,0.6,0.3,0.6,0.6v0.2C-239.9,186.2-240.2,186.5-240.5,186.5z"/>
<g id="XMLID_69_">
</g>
<g id="XMLID_70_">
</g>
<g id="XMLID_71_">
</g>
<g id="XMLID_72_">
</g>
<g id="XMLID_73_">
</g>
<g id="XMLID_74_">
</g>
<g id="XMLID_75_">
</g>
<g id="XMLID_76_">
</g>
<g id="XMLID_77_">
</g>
<g id="XMLID_78_">
</g>
<g id="XMLID_79_">
</g>
<g id="XMLID_80_">
</g>
<g id="XMLID_81_">
</g>
<g id="XMLID_82_">
</g>
<g id="XMLID_83_">
</g>
<g id="Layer_1_2_">
	<circle id="XMLID_28_" class="st1" cx="-321.7" cy="314.4" r="10"/>
	<path id="XMLID_27_" class="st1" d="M-320.8,314.3l0.1-9.2c0-0.4-0.4-0.8-0.9-0.8h-9.2c-0.5,0-0.9,0.4-0.9,0.8l0,9.2"/>
</g>
</svg>
