<?xml version="1.0" encoding="utf-8"?>
<!-- Generator: Adobe Illustrator 19.0.0, SVG Export Plug-In . SVG Version: 6.00 Build 0)  -->
<svg version="1.1" id="Layer_1" xmlns="http://www.w3.org/2000/svg" xmlns:xlink="http://www.w3.org/1999/xlink" x="0px" y="0px"
	 viewBox="0 0 2000 1750" style="enable-background:new 0 0 2000 1750;" xml:space="preserve">
<style type="text/css">
	.st0{fill:#FFB301;}
</style>
<path id="XMLID_12_" class="st0" d="M323.9,433.7c78.4-38.5,157.3-49.6,244.5-56.8c130.6-10.7,256.7-36.6,377.3-84.5
	c120-47.6,237-106.8,367.8-125c162-22.5,334.7-21.4,472.7,71.6c199.9,134.7,212.7,377,213.6,402c5.2,142.8-82.2,271.8-165.5,385.7
	c-110.6,151.2-224.6,301.5-361,434.4c-122.6,119.5-282.3,275.1-471.8,288.1c-307.5,21.1-566.5-169-753.9-374
	c-80.4-87.9-166.9-170.8-208.5-281.7c-16.8-44.8-83.4-222.4,8.2-407.1C122.6,534.7,262.1,464,323.9,433.7z"/>
<g id="XMLID_15_">
	<defs>
		<rect id="XMLID_14_" x="334.7" y="3.2" width="1202.4" height="1225.5"/>
	</defs>
	<clipPath id="XMLID_19_">
		<use xlink:href="#XMLID_14_"  style="overflow:visible;"/>
	</clipPath>
	<g style="clip-path:url(#XMLID_19_);">
		
			<image style="overflow:visible;" width="2000" height="2024" id="XMLID_7_" xlink:href="public_html\Assets\index-transparent.png"  transform="matrix(0.8404 0 0 0.8523 103.3636 25.7304)">
		</image>
	</g>
</g>
<g id="XMLID_13_">
	<defs>
		<path id="XMLID_1_" d="M323.9,433.7c78.4-38.5,157.3-49.6,244.5-56.8c130.6-10.7,256.7-36.6,377.3-84.5
			c120-47.6,237-106.8,367.8-125c162-22.5,334.7-21.4,472.7,71.6c199.9,134.7,212.7,377,213.6,402c5.2,142.8-82.2,271.8-165.5,385.7
			c-110.6,151.2-224.6,301.5-361,434.4c-122.6,119.5-282.3,275.1-471.8,288.1c-307.5,21.1-566.5-169-753.9-374
			c-80.4-87.9-166.9-170.8-208.5-281.7c-16.8-44.8-83.4-222.4,8.2-407.1C122.6,534.7,262.1,464,323.9,433.7z"/>
	</defs>
	<clipPath id="XMLID_20_">
		<use xlink:href="#XMLID_1_"  style="overflow:visible;"/>
	</clipPath>
	<g style="clip-path:url(#XMLID_20_);">
		
			<image style="overflow:visible;" width="2000" height="2024" id="XMLID_2_" xlink:href="public_html\Assets\index-transparent.png"  transform="matrix(0.8404 0 0 0.8523 103.3636 25.7304)">
		</image>
	</g>
</g>
</svg>
