<?xml version="1.0" encoding="utf-8"?>
<!-- Generator: Adobe Illustrator 19.0.0, SVG Export Plug-In . SVG Version: 6.00 Build 0)  -->
<svg version="1.1" id="Layer_1" xmlns="http://www.w3.org/2000/svg" xmlns:xlink="http://www.w3.org/1999/xlink" x="0px" y="0px"
	 viewBox="0 0 100 100" style="enable-background:new 0 0 100 100;" xml:space="preserve">
<style type="text/css">
	.st0{fill:#FFFFFF;}
</style>
<path class="st0" d="M84.2,9.8c-22.8,0-45.5,0-68.3,0c-0.7,0-1.4-0.2-1.3,0.7c0.1,0.9,0.2,1.9,0.3,2.8c0.5,5.5,1,10.9,1.5,16.4
	c0.5,5.5,0.9,10.9,1.4,16.4c0.6,6.2,1.1,12.4,1.7,18.7c0.5,5.4,1,10.9,1.4,16.3c0.1,0.7,0.3,1,1,1.2c7,1.9,14.1,3.9,21.1,5.8
	c1.1,0.3,2.2,0.6,3.3,0.9c0.5,0.1,1.1,0.3,1.6,0.5c0.5,0.2,1,0.4,1.6,0.5c0.4,0.1,0.8,0,1.1-0.2c0.3-0.1,0.6-0.2,0.9-0.3
	c0.6-0.2,1.1-0.3,1.7-0.5c1.1-0.3,2.3-0.6,3.4-1c2.3-0.6,4.6-1.3,6.9-1.9c2.3-0.6,4.6-1.3,6.9-1.9c2-0.6,4-1.1,6-1.7
	c0.9-0.2,2-0.2,2.5-1.1c0.3-0.5,0.2-1.1,0.3-1.7c0-0.6,0-1.2,0.1-1.8c0.1-1.1,0.2-2.2,0.3-3.3c0.2-2.1,0.4-4.2,0.6-6.4
	c0.2-1.7,0.3-3.4,0.5-5.2c0.5-5.5,0.9-10.9,1.4-16.4c0.6-6.2,1.1-12.4,1.7-18.6c0.5-5.7,1-11.5,1.5-17.2C85.4,9.8,85.5,9.8,84.2,9.8
	z M71.3,33.3c-0.1,0.4-0.7,0.3-0.9,0.3c-2.2-0.1-4.5,0-6.7,0.1c-3.7,0.1-4.3,0-6.4,0.1c0,0,0,0-0.1,0c-4.3,0.1-8.7,0.2-13,0.2
	c0,0-0.1,0-0.1,0c-1.5,0-2.9,0-4.4,0c-1.5,0-1.6,0.1-1.6,1.6c0.1,1.7,0.3,3.4,0.4,5c0.1,1.1,0.6,1.8,1.7,1.8c2.2,0,7.9,0,9.7,0
	c6.5,0,13,0.1,19.5,0c1,0,0.9,0,1,0.2c-0.2,2.6-0.4,5.1-0.6,7.7c-0.6,6.2-1.1,12.4-1.7,18.7c0,0.5-0.2,0.8-0.7,0.9
	c-1,0.2-2,0.5-2.9,0.8c-1,0.3-2,0.5-3,0.8c-2,0.5-4,1.1-5.9,1.6c-1,0.3-2,0.5-3,0.8c-0.5,0.1-1,0.3-1.5,0.4
	c-0.5,0.1-0.9,0.3-1.4,0.3c-0.5,0-1-0.2-1.4-0.3c-0.5-0.1-1-0.3-1.5-0.4c-1-0.3-2-0.6-3-0.8c-2-0.6-3.9-1.1-5.9-1.7
	c-1.8-0.5-3.5-1-5.3-1.5c-0.7-0.2-1-0.5-1.1-1.2c-0.3-4-0.7-8.1-1.1-12.1c-0.1-0.7,0.1-0.9,0.8-0.9c2.4,0,4.8,0,7.2,0
	c0.6,0,0.9,0.1,0.9,0.8c0.1,1.9,0.3,3.8,0.5,5.6c0,0.3,0,0.7,0.5,0.8c2,0.5,4,1,6,1.5c0.6,0.2,1.2,0.3,1.9,0.5
	c0.3,0.1,0.7,0.2,1.1,0.2c0.5,0.1,0.9,0.2,1.3,0.1c0.5-0.1,0.9-0.3,1.4-0.4c0.6-0.2,1.2-0.3,1.9-0.5c1.7-0.5,3.4-0.9,5.1-1.3
	c0.7-0.2,0.9-0.5,1-1.2c0.1-1.7,0.3-3.5,0.4-5.2c0.1-1.2,0.3-2.5,0.4-3.7c0-0.3,0-0.6,0.1-0.9c0.1-0.9-1.5-0.7-2.1-0.7
	c-1.3,0-2.6,0-4,0c-0.8,0-1.6,0-2.3,0c-0.8,0-1.5,0-2.3,0c-4.3,0-8.7,0-13,0c-2,0-3.9,0-5.9,0c-0.8,0-1.1-0.2-1.1-1.1
	c-0.6-7.6-1.4-15.2-2.1-22.7c0-0.4-0.1-0.8-0.1-1.2c-0.1-1.9-0.1-1.9,1.8-1.9c4.4,0,8.7,0,13.1,0c4.3,0,8.7,0,13,0
	c1.8,0,3.7,0,5.5,0c1.8,0,3.6,0,5.4,0c0.9,0,1.8,0,2.7,0c0.4,0,0.9,0,1.3,0c0.5,0,1.3-0.2,1.4,0.5c0,0.5-0.1,1-0.1,1.5
	c0,0.5-0.1,1.1-0.1,1.6C71.7,29.9,71.5,31.6,71.3,33.3z"/>
</svg>
