<?xml version="1.0" encoding="utf-8"?>
<!-- Generator: Adobe Illustrator 19.0.0, SVG Export Plug-In . SVG Version: 6.00 Build 0)  -->
<svg version="1.1" id="Layer_1" xmlns="http://www.w3.org/2000/svg" xmlns:xlink="http://www.w3.org/1999/xlink" x="0px" y="0px"
	 viewBox="0 0 100 100" style="enable-background:new 0 0 100 100;" xml:space="preserve">
<style type="text/css">
	.st0{fill:#FFFFFF;}
</style>
<g>
	<path class="st0" d="M50.4,72.3c3.9-2.4,7.7-4.8,11.6-7.2c0.1,0.2,0.2,0.3,0.3,0.4c1.3,2.2,2.8,4.3,4.8,5.8
		c2.1,1.6,4.4,2.6,6.9,2.9c2.3,0.3,4.5,0.1,6.6-0.7c1.6-0.6,3-1.5,4-3.1c1.7-2.5,1.4-6.7-1.3-9.2c-1.4-1.2-3-2.1-4.6-2.9
		c-2.9-1.4-5.7-2.7-8.6-4c-2.9-1.4-5.6-3-8.1-5.1c-3.6-3-6-6.8-6.9-11.6c-0.9-4.6-0.8-9.1,1-13.5c1.9-4.7,5.1-7.9,9.4-10
		c2.4-1.1,4.9-1.8,7.4-2c4-0.3,7.9,0,11.7,1.4c3.9,1.5,7,4.2,9.4,7.8c0.6,0.9,1.2,1.9,1.8,2.9c-3.7,2.6-7.4,5.1-11.2,7.7
		c-0.1-0.2-0.2-0.3-0.3-0.5c-0.9-1.6-1.8-3-3.2-4.1c-1.4-1.2-3-1.7-4.8-1.9c-1.4-0.1-2.8,0-4.2,0.6c-2.3,1.1-3.5,3.1-3.6,5.8
		c-0.1,2.6,1,4.6,3,6.1c1.5,1.1,3.2,2,4.9,2.8c3.2,1.5,6.3,3,9.5,4.6c3,1.5,5.8,3.4,8.2,5.9c3,3,4.8,6.7,5.4,11.1
		c0.6,4,0.5,8-0.8,11.9c-1.7,4.9-4.8,8.4-9.1,10.7c-2.5,1.3-5.1,2.2-7.9,2.6c-2.2,0.4-4.3,0.5-6.5,0.4c-4.7-0.1-9.3-1.1-13.6-3.4
		c-5-2.7-8.8-6.7-11.3-11.9C50.4,72.5,50.4,72.4,50.4,72.3z"/>
	<path class="st0" d="M28.4,12.9c0.2,0,0.3,0,0.5,0c4.5,0,8.9,0,13.4,0c0.4,0,0.5,0.1,0.5,0.5c0,17.1,0,34.3,0,51.4
		c0,3.4-0.3,6.7-1.4,9.9C39.2,81,35.1,85,29.1,86.8c-2.3,0.7-4.6,1-6.9,1c-2.9,0.1-5.8-0.2-8.5-1.1C7.4,84.8,3,80.5,0.1,74.2
		c0-0.1-0.1-0.2-0.1-0.3c3.9-2.5,7.7-5,11.6-7.5c0.1,0.2,0.2,0.3,0.3,0.4c0.8,1.3,1.5,2.6,2.3,3.8c1.2,1.8,2.8,3.1,5,3.4
		c1.7,0.3,3.5,0.2,5.2-0.4c2-0.7,3.1-2.3,3.6-4.4c0.4-1.6,0.5-3.2,0.5-4.9c0-16.9,0-33.9,0-50.8C28.4,13.4,28.4,13.2,28.4,12.9z"/>
</g>
</svg>
