<?xml version="1.0" encoding="utf-8"?>
<!-- Generator: Adobe Illustrator 19.0.0, SVG Export Plug-In . SVG Version: 6.00 Build 0)  -->
<svg version="1.1" id="Layer_1" xmlns="http://www.w3.org/2000/svg" xmlns:xlink="http://www.w3.org/1999/xlink" x="0px" y="0px"
	 viewBox="0 0 100 100" style="enable-background:new 0 0 100 100;" xml:space="preserve">
<style type="text/css">
	.st0{fill:#FFFFFF;}
</style>
<path id="XMLID_64_" class="st0" d="M64.2,56.2c3.2-0.6,6.4-1.3,9.3-2.7c2.6-1.3,5-3,7.2-5.3c0.2,1.1-0.4,1.6-0.7,2.2
	C74.8,58.4,67.4,62.9,57.9,64c-21,2.4-37.4-14.4-39.1-30.7c-0.2-2.3-0.4-4.5,0.2-6.8c0.4,0.2,0.2,0.5,0.2,0.8c0-0.4,0.1-0.8-0.2-1.1
	c0.5-5.4,3.2-9.7,7.1-13.9C26,13,26,13.4,25.9,13.6c-3.2,10-1.1,19.2,5,27.4c7.6,10.2,17.8,15.4,30.7,15.2c0.6,0,1.3,0,1.9,0
	C63.8,56.4,64.1,56.7,64.2,56.2z"/>
<path id="XMLID_63_" class="st0" d="M42.1,8.6c-4,15.9,11.4,31.3,27.6,29.6c4.2-0.4,8.1-1.9,11.1-5c0.3-0.3,0.6-0.9,1.2-0.8
	c-0.9,5.4-9.7,11.2-17,11.2c-1.4-0.3-2.9-0.3-4.3,0c-2.6,0.2-5-0.5-7.4-1.6c-8.8-4-14.6-10.5-15.9-20.3c-0.7-5.1,0.6-9.8,4-13.8
	C42,8.1,42.1,8.3,42.1,8.6z"/>
<path id="XMLID_60_" class="st0" d="M45.1,90.7c-0.5,0-1,0-1.6,0c-4.4,0-5.9-1.6-5.3-6c0.3-2.5,1-5,1.5-7.4c0.4-1.7,1.7-1.6,2.9-1.4
	c1.5,0.2,1.1,1.4,0.9,2.3c-0.4,2.1-0.8,4.2-1.2,6.3c-0.2,1.3,0,2.4,1.5,2.6c1.5,0.2,2.9,0.3,3.3-1.7c0.5-2.6,1.2-5.2,1.7-7.8
	c0.3-1.5,1.3-1.8,2.6-1.7c1.1,0.1,1.6,0.6,1.4,1.7c-0.8,3.9-1.7,7.9-2.5,11.8c-0.2,1-0.9,1.4-1.9,1.4C47.3,90.7,46.2,90.6,45.1,90.7
	C45.1,90.7,45.1,90.7,45.1,90.7z"/>
<path id="XMLID_59_" class="st0" d="M79.9,21.1c-2.4,3.7-6,5.2-10.3,5.1c-6.5,0-12.5-4.1-15-10c-1.8-4.4-1.3-9.3,1.7-12.3
	c-0.9,6.8,1.4,12.1,6.8,15.7C68.3,23.1,73.9,24,79.9,21.1z"/>
<path id="XMLID_58_" class="st0" d="M81.2,87.5c0-1.7-0.6-3-0.9-4.4c-0.2-0.8-1-1.9,0.2-2.4c1.1-0.5,2.7-0.7,3.5,0.3
	c1.2,1.6,1.7,0.6,2.3-0.3c1.3-1.9,2.6-3.8,3.9-5.6c1-1.4,3.3-2.1,4.8-1.5c1.2,0.5,0.4,1.2,0,1.7c-2.5,3.3-5,6.7-7.5,10
	c-0.9,1.1-1.6,2.3-2,3.7c-0.4,1.6-2.7,2.4-4.1,1.6c-0.5-0.3-0.6-0.7-0.5-1.1C81,88.7,81.1,88,81.2,87.5z"/>
<path id="XMLID_57_" class="st0" d="M79.1,79.3c-5.3,0-4.4-0.2-5.5,4.4c-0.4,1.7-0.7,3.4-1.1,5.2c-0.3,1.7-1.5,1.9-2.9,1.7
	c-1.6-0.2-1.2-1.5-1-2.4c0.7-3.4,1.5-6.9,2.2-10.3c0.3-1.6,1.1-2.2,2.7-2.1c2.3,0.1,4.5,0,6.8,0c0.8,0,1.6,0.1,2.2,0.6
	c0.7,0.6,1.1,1.3,0.9,2.2c-0.2,0.9-1.1,0.7-1.8,0.8C80.8,79.4,80,79.3,79.1,79.3z"/>
<path id="XMLID_56_" class="st0" d="M8.6,96.9c-0.8-0.1-2.1,0.3-2.3-1C6.2,94.6,6.4,93.3,8,93c1.5-0.3,2-1.6,2.3-2.8
	c0.6-2.5,1.2-5.1,1.7-7.6c0.3-1.6,1.1-2.2,2.7-2.1c1.4,0.1,2,0.6,1.7,2.1c-0.8,3.4-1.4,6.9-2.3,10.3C13.2,95.8,11.7,96.9,8.6,96.9z"
	/>
<path id="XMLID_55_" class="st0" d="M15,79.3c-0.8-0.1-1.9,0.2-1.9-1.3c0-1.7,0.9-2.6,2.7-2.5c0.9,0,1.9,0.1,1.8,1.4
	C17.4,78.5,16.8,79.5,15,79.3z"/>
<path id="XMLID_54_" class="st0" d="M60.8,43.8c1.4-0.5,2.9-0.5,4.3,0C63.7,44,62.3,44,60.8,43.8z"/>
<path id="XMLID_53_" class="st0" d="M42.1,8.6c-0.2-0.2-0.3-0.3-0.5-0.5c0.1-0.3,0.3-0.7,0.6-0.6C42.7,7.8,42.3,8.3,42.1,8.6z"/>
<path id="XMLID_52_" class="st0" d="M19,26.2c0.1,0.3,0.2,0.6,0.4,0.9c-0.5-0.1-0.3-0.4-0.4-0.6C19,26.4,19,26.3,19,26.2z"/>
<path id="XMLID_51_" class="st0" d="M64.2,56.2c0.1,0.1,0.2,0.2,0.3,0.3c-0.4,0.2-0.7-0.1-1-0.2C63.8,56.2,64,56.2,64.2,56.2z"/>
<path id="XMLID_50_" class="st0" d="M68.7,39c-1,0-1.6,0.2-2.2-0.2C67.2,38.7,67.8,38.6,68.7,39z"/>
<path id="XMLID_6_" class="st0" d="M36.3,81.1c1.4-6.1-2.7-10.4-8.9-9.4c-6.4,1-11.2,9.8-8.5,15.8c0.8,1.8,2.3,2.8,4.2,3.2
	c2.1,0.5,4.3,0.4,6.4,0.3c1.6,0,3.1,0,4.7,0c1,0,1.6-0.6,1.8-1.5c0.1-0.7,0.7-1.7-0.1-2.1c-1.4-0.7-0.9-1.6-0.5-2.6
	C35.6,83.4,36.1,82.3,36.3,81.1z M31.9,80.6c-0.2,1.1-0.6,2.3-0.9,3.4c-0.8,2.7-0.9,2.8-3.8,2.8c-3.7,0-4.7-1.3-4.1-5
	c0.2-1.5,0.6-2.9,1.5-4.2c1.2-1.8,3.6-2.6,5.5-1.8C31.9,76.5,32.5,78.1,31.9,80.6z"/>
<path id="XMLID_9_" class="st0" d="M59,84.8c2,0,3.9,0,5.9,0c0.7,0,1.4,0,2-0.5c1.9-1.7,1-7-1.3-8.1c-3.5-1.8-8.9-0.3-10.9,3.1
	c-1.3,2.3-1.8,4.9-1.7,7.5c0.1,1.9,1.1,3.1,2.9,3.8c1.6,0.6,3.3,0.5,5,0.4c1.2,0,2.3,0.1,3.5,0c1.5-0.1,1.5-1.4,1.6-2.5
	c0.1-1.2-0.9-1.2-1.8-1.3c-1.8-0.1-3.6-0.1-5.5-0.2c-0.7,0-1.3-0.5-1.3-1.2C57.6,84.8,58.4,84.8,59,84.8z M61.2,79.1
	c1,0,2.2,0.2,2.2,1.4c-0.1,1.7-1.6,0.9-2.6,1.2c-0.8-0.2-2.2,0.4-2.2-0.9C58.5,79.4,60,79.1,61.2,79.1z"/>
<path id="XMLID_47_" class="st0" d="M55.7,7.2c-0.1,0.2-0.1,0.3-0.2,0.4c-0.1-0.2-0.1-0.3-0.2-0.5c0-0.1,0.1-0.2,0.1-0.3
	C55.6,7,55.7,7.1,55.7,7.2z"/>
</svg>
