<?xml version="1.0" encoding="utf-8"?>
<!-- Generator: Adobe Illustrator 19.0.0, SVG Export Plug-In . SVG Version: 6.00 Build 0)  -->
<svg version="1.1" id="Layer_1" xmlns="http://www.w3.org/2000/svg" xmlns:xlink="http://www.w3.org/1999/xlink" x="0px" y="0px"
	 viewBox="0 0 1241.4 200" style="enable-background:new 0 0 1241.4 200;" xml:space="preserve">
<style type="text/css">
	.st0{fill:#FFB301;}
</style>
<path id="XMLID_3_" class="st0" d="M317.3,165c-21.6,0-38-6-49.4-18.1c-11.3-12.1-17-29.2-17-51.4c0-11,1.7-20.9,5.2-29.6
	s8.2-16,14.2-22c6-6,13.2-10.5,21.5-13.6c8.3-3.1,17.3-4.6,27-4.6c5.6,0,10.7,0.4,15.3,1.3c4.6,0.8,8.6,1.8,12.1,2.9
	c3.4,1.1,6.3,2.2,8.6,3.4c0.4,0.2,0.8,0.4,1.1,0.6c2.2,1.1,3.3,3.8,2.4,6.1l-5.3,15c-1,2.7-4,4-6.7,2.9c-2.9-1.2-6-2.3-9.4-3.3
	c-5.4-1.5-11.6-2.3-18.5-2.3c-4.6,0-9.1,0.8-13.5,2.3s-8.3,4-11.7,7.4c-3.4,3.4-6.1,7.8-8.1,13.2c-2,5.4-3.1,11.9-3.1,19.6
	c0,6.2,0.7,11.9,2,17.2c1.3,5.3,3.5,9.9,6.5,13.8c3,3.9,6.9,6.9,11.8,9.1c4.9,2.2,10.7,3.4,17.6,3.4c4.3,0,8.2-0.3,11.7-0.8
	c3.4-0.5,6.5-1.1,9.2-1.8c2.7-0.7,5-1.5,7.1-2.4c0.2-0.1,0.4-0.2,0.6-0.3c2.7-1.2,5.8,0.2,6.7,3l5.1,14.8c0.8,2.4-0.3,5.1-2.6,6.2
	c-3.7,1.7-8.3,3.3-13.8,4.8C336.3,164,327.4,165,317.3,165z"/>
<path id="XMLID_5_" class="st0" d="M471.1,111.5c0,8-1.1,15.2-3.4,21.9c-2.3,6.6-5.6,12.3-10,16.9c-4.3,4.7-9.6,8.3-15.6,10.9
	c-6.1,2.6-12.9,3.9-20.4,3.9c-7.4,0-14.2-1.3-20.2-3.9c-6.1-2.6-11.3-6.2-15.6-10.9c-4.3-4.7-7.7-10.3-10.2-16.9
	c-2.4-6.6-3.6-13.9-3.6-21.9c0-8,1.2-15.2,3.7-21.8c2.5-6.5,5.9-12.1,10.3-16.8c4.4-4.6,9.6-8.2,15.7-10.8
	c6.1-2.6,12.7-3.9,19.8-3.9c7.3,0,14,1.3,20,3.9c6.1,2.6,11.3,6.2,15.6,10.8c4.3,4.6,7.7,10.2,10.2,16.8
	C469.8,96.3,471.1,103.5,471.1,111.5z M441.9,111.5c0-8.9-1.8-15.8-5.3-20.9c-3.5-5.1-8.5-7.6-15-7.6c-6.5,0-11.6,2.5-15.1,7.6
	c-3.6,5.1-5.4,12-5.4,20.9c0,8.9,1.8,15.9,5.4,21.1c3.6,5.2,8.6,7.8,15.1,7.8c6.5,0,11.5-2.6,15-7.8
	C440.2,127.4,441.9,120.3,441.9,111.5z"/>
<path id="XMLID_8_" class="st0" d="M582,155.2c0,2.3-1.5,4.3-3.7,4.8c-1.6,0.4-3.3,0.8-5.1,1.2c-3.3,0.7-6.8,1.3-10.4,1.8
	c-3.6,0.5-7.3,0.9-11.1,1.3c-3.8,0.3-7.4,0.5-10.8,0.5c-8.3,0-15.7-1.2-22.2-3.7c-6.5-2.4-12-5.9-16.5-10.5
	c-4.5-4.6-7.9-10.1-10.3-16.6c-2.4-6.5-3.5-13.8-3.5-21.9c0-8.2,1-15.6,3.1-22.2c2-6.6,5-12.2,8.8-16.8c3.8-4.6,8.5-8.2,14.1-10.6
	c5.6-2.4,11.9-3.7,19.1-3.7c4,0,7.5,0.4,10.6,1.2c1,0.2,2,0.5,3,0.8c3.2,1,6.5-1.4,6.5-4.8V21.8c0-2.5,1.8-4.5,4.2-4.9l18.6-3
	c3-0.5,5.8,1.9,5.8,4.9V155.2z M517.4,110.9c0,8.9,2,16,5.9,21.4c4,5.4,9.8,8.1,17.6,8.1c2.6,0,4.9-0.1,7.1-0.3
	c0.3,0,0.6-0.1,0.8-0.1c2.6-0.2,4.5-2.4,4.5-5V90.3c0-2-1.2-3.9-3.1-4.6c-1.2-0.5-2.5-0.9-3.9-1.3c-2.9-0.8-5.8-1.2-8.7-1.2
	C524.2,83.2,517.4,92.4,517.4,110.9z"/>
<path id="XMLID_11_" class="st0" d="M604.1,112.4c0-9,1.4-16.8,4.1-23.6c2.7-6.7,6.4-12.4,10.8-16.9c4.5-4.5,9.6-7.9,15.4-10.2
	c5.8-2.3,11.8-3.5,17.9-3.5c14.3,0,25.6,4.4,33.9,13.2c8.3,8.8,12.5,21.7,12.5,38.8c0,1.7-0.1,3.5-0.2,5.5c0,0.2,0,0.4,0,0.6
	c-0.2,2.6-2.4,4.7-5,4.7H640c-3.8,0-6.2,4.1-4.4,7.4c1.4,2.6,3.4,4.8,6,6.7c4.9,3.5,11.4,5.2,19.5,5.2c5.2,0,10.4-0.5,15.4-1.4
	c2.6-0.5,4.9-1,7-1.7c2.9-0.8,5.8,1,6.3,4l2.2,13.5c0.4,2.4-1,4.7-3.3,5.5c-0.7,0.2-1.4,0.5-2.2,0.7c-2.6,0.8-5.4,1.4-8.5,2
	c-3.1,0.6-6.5,1.1-10.1,1.4c-3.6,0.4-7.2,0.6-10.7,0.6c-9.1,0-17-1.3-23.7-4c-6.7-2.7-12.3-6.4-16.7-11.1
	c-4.4-4.7-7.7-10.2-9.8-16.7C605.1,126.8,604.1,119.9,604.1,112.4z M665.3,101.5c3.3,0,5.7-3.1,4.8-6.3c-0.1-0.3-0.1-0.5-0.2-0.8
	c-0.7-2.3-1.8-4.4-3.3-6.2c-1.5-1.8-3.3-3.3-5.6-4.4c-2.2-1.2-5-1.7-8.3-1.7c-3.2,0-5.9,0.5-8.2,1.6c-2.3,1.1-4.2,2.5-5.7,4.3
	c-1.5,1.8-2.7,3.9-3.5,6.3c-0.1,0.2-0.2,0.4-0.2,0.7c-1.1,3.2,1.3,6.6,4.8,6.6H665.3z"/>
<path id="XMLID_14_" class="st0" d="M720.8,68.3c0-2.3,1.6-4.3,3.8-4.8c4.2-1,9.2-2,15-2.9c7.7-1.2,15.7-1.8,24.1-1.8
	c8.6,0,15.7,1.1,21.4,3.4c5.7,2.2,10.2,5.4,13.5,9.5c3.3,4.1,5.7,9,7.1,14.6c1.4,5.7,2.1,11.9,2.1,18.9v52.2c0,2.8-2.2,5-5,5h-18.6
	c-2.8,0-5-2.2-5-5v-48.7c0-9.2-1.2-15.8-3.6-19.6c-2.4-3.9-7-5.8-13.6-5.8c-2,0-4.2,0.1-6.5,0.3c-0.6,0-1.1,0.1-1.6,0.1
	c-2.6,0.2-4.5,2.4-4.5,5v68.7c0,2.8-2.2,5-5,5h-18.6c-2.8,0-5-2.2-5-5V68.3z"/>
<path id="XMLID_16_" class="st0" d="M928,111.5c0,8-1.1,15.2-3.4,21.9c-2.3,6.6-5.6,12.3-10,16.9c-4.3,4.7-9.6,8.3-15.6,10.9
	c-6.1,2.6-12.9,3.9-20.4,3.9c-7.4,0-14.2-1.3-20.2-3.9c-6.1-2.6-11.3-6.2-15.6-10.9c-4.3-4.7-7.7-10.3-10.2-16.9
	c-2.4-6.6-3.6-13.9-3.6-21.9c0-8,1.2-15.2,3.7-21.8c2.5-6.5,5.9-12.1,10.3-16.8s9.6-8.2,15.7-10.8c6.1-2.6,12.7-3.9,19.8-3.9
	c7.3,0,14,1.3,20,3.9c6.1,2.6,11.3,6.2,15.6,10.8c4.3,4.6,7.7,10.2,10.2,16.8C926.7,96.3,928,103.5,928,111.5z M898.8,111.5
	c0-8.9-1.8-15.8-5.3-20.9c-3.5-5.1-8.5-7.6-15-7.6c-6.5,0-11.6,2.5-15.1,7.6c-3.6,5.1-5.4,12-5.4,20.9c0,8.9,1.8,15.9,5.4,21.1
	c3.6,5.2,8.6,7.8,15.1,7.8c6.5,0,11.5-2.6,15-7.8C897.1,127.4,898.8,120.3,898.8,111.5z"/>
<path id="XMLID_19_" class="st0" d="M1036,155c0,2.3-1.6,4.3-3.8,4.8c-4.2,1-9.2,2-15,2.9c-7.7,1.2-15.7,1.8-24.1,1.8
	c-8.6,0-15.7-1.2-21.4-3.5c-5.7-2.3-10.2-5.6-13.5-9.7c-3.3-4.2-5.7-9.1-7.1-14.9c-1.4-5.8-2.1-12.1-2.1-19.1V66c0-2.8,2.2-5,5-5
	h18.6c2.8,0,5,2.2,5,5v48c0,9.2,1.2,15.9,3.6,20c2.4,4.1,7,6.2,13.6,6.2c2,0,4.2-0.1,6.5-0.3c0.6,0,1.1-0.1,1.6-0.1
	c2.6-0.2,4.5-2.4,4.5-5V66c0-2.8,2.2-5,5-5h18.6c2.8,0,5,2.2,5,5V155z"/>
<path id="XMLID_21_" class="st0" d="M1124.7,81.4c-0.6,2.7-3.2,4.5-6,3.9c-1.3-0.3-2.6-0.6-4.1-0.9c-3.5-0.7-7.2-1.1-11.1-1.1
	c-1.8,0-3.9,0.2-6.4,0.5c-0.5,0.1-1,0.1-1.4,0.2c-2.4,0.4-4.2,2.5-4.2,4.9v68.3c0,2.8-2.2,5-5,5h-18.6c-2.8,0-5-2.2-5-5V70
	c0-2.2,1.4-4.1,3.5-4.8c4.3-1.4,9.2-2.7,14.7-3.9c7-1.6,14.7-2.4,23.3-2.4c1.5,0,3.4,0.1,5.6,0.3c2.2,0.2,4.3,0.5,6.5,0.8
	c2.2,0.3,4.3,0.7,6.5,1.2c0.3,0.1,0.6,0.1,0.8,0.2c2.7,0.6,4.4,3.2,3.8,5.9L1124.7,81.4z"/>
<path id="XMLID_23_" class="st0" d="M1232.7,61c3.4,0,5.8,3.2,4.8,6.5c-5.2,17.1-10.6,33.2-16.1,48.4c-6.3,17.1-13.1,33.6-20.6,49.7
	c-2.7,5.8-5.4,10.7-8.1,14.7c-2.7,4-5.6,7.4-8.8,10c-3.2,2.6-6.8,4.6-10.8,5.8c-4,1.2-8.7,1.8-14.1,1.8c-4.5,0-8.6-0.4-12.4-1.3
	c-1.8-0.4-3.4-0.8-4.9-1.2c-2.5-0.7-4.1-3.3-3.5-5.9l2.9-13.3c0.6-2.8,3.4-4.5,6.1-3.8c1,0.3,2,0.5,2.9,0.6c2.3,0.4,4.7,0.6,7.3,0.6
	c5.1,0,9-1.4,11.8-4.1c2.3-2.3,4.3-5.4,6.1-9.2c0.6-1.4,0.6-2.9-0.1-4.3c-6.2-12.3-12.3-26-18.5-41.2c-5.8-14.2-11.3-30-16.5-47.4
	c-1-3.2,1.4-6.4,4.8-6.4h19.7c2.3,0,4.2,1.5,4.8,3.7c1.1,4,2.2,8.1,3.6,12.6c1.7,5.8,3.6,11.7,5.5,17.7c1.9,6,3.9,11.8,5.9,17.4
	c0.3,0.7,0.5,1.4,0.8,2.1c1.6,4.5,8,4.4,9.5-0.1c0.2-0.7,0.4-1.3,0.6-2c1.8-5.6,3.6-11.5,5.3-17.4c1.7-6,3.4-11.9,5-17.7
	c1.2-4.4,2.3-8.6,3.4-12.5c0.6-2.2,2.6-3.7,4.8-3.7H1232.7z"/>
<g id="XMLID_25_">
	<circle id="XMLID_2_" class="st0" cx="105.7" cy="101.5" r="90"/>
	<path id="XMLID_1_" class="st0" d="M113.5,101.3l0.6-82.6c0.1-4-3.5-7.3-7.8-7.3H23.7c-4.3,0-7.8,3.2-7.8,7.2l-0.1,82.8"/>
</g>
</svg>
