<?xml version="1.0" encoding="utf-8"?>
<!-- Generator: Adobe Illustrator 19.0.0, SVG Export Plug-In . SVG Version: 6.00 Build 0)  -->
<svg version="1.1" xmlns="http://www.w3.org/2000/svg" xmlns:xlink="http://www.w3.org/1999/xlink" x="0px" y="0px"
	 viewBox="0 0 500 500" style="enable-background:new 0 0 500 500;" xml:space="preserve">
<style type="text/css">
	.st0{fill:#FFB301;}
	.st1{fill:#FFFFFF;}
</style>
<g id="Layer_1">
	<circle id="XMLID_1_" class="st0" cx="250" cy="250.1" r="150"/>
	<path id="XMLID_3_" class="st0" d="M263,249.9l1-137.7c0.1-6.7-5.8-12.1-13-12.1H113.2c-7.2,0-13,5.4-13,12l-0.2,138"/>
</g>
<g id="Layer_2">
	<path id="XMLID_20_" class="st1" d="M265.9,222.6c0-2.3,1.6-4.3,3.8-4.8c4.2-1,9.2-2,15-2.9c7.7-1.2,15.7-1.8,24.1-1.8
		c8.6,0,15.7,1.1,21.4,3.4c5.7,2.2,10.2,5.4,13.5,9.5c3.3,4.1,5.7,9,7.1,14.6c1.4,5.7,2.1,11.9,2.1,18.9v52.2c0,2.8-2.2,5-5,5h-18.6
		c-2.8,0-5-2.2-5-5v-48.7c0-9.2-1.2-15.8-3.6-19.6c-2.4-3.9-7-5.8-13.6-5.8c-2,0-4.2,0.1-6.5,0.3c-0.6,0-1.1,0.1-1.6,0.1
		c-2.6,0.2-4.5,2.4-4.5,5v68.7c0,2.8-2.2,5-5,5h-18.6c-2.8,0-5-2.2-5-5V222.6z"/>
	<path id="XMLID_2_" class="st1" d="M213.4,316.6c-21.6,0-38-6-49.4-18.1c-11.3-12.1-17-29.2-17-51.4c0-11,1.7-20.9,5.2-29.6
		s8.2-16,14.2-22c6-6,13.2-10.5,21.5-13.6c8.3-3.1,17.3-4.6,27-4.6c5.6,0,10.7,0.4,15.3,1.3c4.6,0.8,8.6,1.8,12.1,2.9
		c3.4,1.1,6.3,2.2,8.6,3.4c0.4,0.2,0.8,0.4,1.1,0.6c2.2,1.1,3.3,3.8,2.4,6.1l-5.3,15c-1,2.7-4,4-6.7,2.9c-2.9-1.2-6-2.3-9.4-3.3
		c-5.4-1.5-11.6-2.3-18.5-2.3c-4.6,0-9.1,0.8-13.5,2.3s-8.3,4-11.7,7.4c-3.4,3.4-6.1,7.8-8.1,13.2c-2,5.4-3.1,11.9-3.1,19.6
		c0,6.2,0.7,11.9,2,17.2c1.3,5.3,3.5,9.9,6.5,13.8c3,3.9,6.9,6.9,11.8,9.1c4.9,2.2,10.7,3.4,17.6,3.4c4.3,0,8.2-0.3,11.7-0.8
		c3.4-0.5,6.5-1.1,9.2-1.8c2.7-0.7,5-1.5,7.1-2.4c0.2-0.1,0.4-0.2,0.6-0.3c2.7-1.2,5.8,0.2,6.7,3l5.1,14.8c0.8,2.4-0.3,5.1-2.6,6.2
		c-3.7,1.7-8.3,3.3-13.8,4.8C232.4,315.5,223.5,316.6,213.4,316.6z"/>
</g>
</svg>
