<?xml version="1.0" encoding="utf-8"?>
<!-- Generator: Adobe Illustrator 19.0.0, SVG Export Plug-In . SVG Version: 6.00 Build 0)  -->
<svg version="1.1" id="Layer_1" xmlns="http://www.w3.org/2000/svg" xmlns:xlink="http://www.w3.org/1999/xlink" x="0px" y="0px"
	 viewBox="0 0 500 500" style="enable-background:new 0 0 500 500;" xml:space="preserve">
<style type="text/css">
	.st0{fill:#FFFFFF;}
</style>
<path id="XMLID_87_" class="st0" d="M104.5,352.6c0-20.9,0-41.3,0-61.8c-0.2-0.1-0.4-0.2-0.6-0.3c-0.4,0.8-0.9,1.6-1.3,2.5
	c-7.2,16-14.4,32-21.5,47.9c-5,11.1-9.5,13.9-19.4,12.5c-5.4-0.8-9.2-4-11.9-10.2c-7.1-16.4-14.5-32.6-21.8-48.9
	c-0.6-1.3-1.2-2.5-2.3-3.6c0,20.4,0,40.8,0,61.9c-3.7,0-7,0-10.3,0c-5.4,0-5.4,0-5.4-6.9c0-18.1,0-36.2,0-54.3
	c0-7.4,1.5-10.4,7.1-11.7c4.4-1,9-1.4,13.5-1.1c4.8,0.3,8.4,3.9,10.8,9.5c7,16.5,14.2,32.9,21.3,49.3c0.5,1.2,1.1,2.5,1.9,4.1
	c0.7-1.4,1.2-2.5,1.7-3.6c7.2-16.1,14.5-32.1,21.5-48.4c3.7-8.7,9.2-12,16.3-11.6c3.7,0.2,7.4,1.2,10.9,2.5c3.7,1.4,5,4.2,5,9.1
	c0,20.1,0,40.1,0,60.2c0,0.9-0.7,2.6-1.1,2.6C114.2,352.7,109.5,352.6,104.5,352.6z"/>
<path id="XMLID_84_" class="st0" d="M372.2,350c4.8,4.4,9.3,8.5,13.7,12.5c-0.1,0.3-0.1,0.6-0.2,1c-2.2,0-4.5-0.3-6.6,0.1
	c-6.5,1.2-12.1-1.4-16.9-7.1c-3-3.5-6.3-4.8-10.6-4.4c-8.5,0.8-17.1,0.8-25.6,0.3c-5-0.3-10-1.8-14.8-3.8c-5.9-2.5-7.9-7.2-7.9-15.3
	c0-11.6,0.1-23.2-0.1-34.7c-0.1-7.2,2.4-12.1,7.3-14.3c4.7-2.1,9.6-3.9,14.5-4.1c11.6-0.6,23.3-0.6,35,0c4.9,0.3,10,2.2,14.7,4.3
	c4.6,2.1,7,6.9,6.9,13.6c-0.1,11.6-0.2,23.2,0,34.7c0.2,7.8-2.1,13.2-7.8,15.8C373.5,348.8,373.1,349.2,372.2,350z M335.6,332.3
	c0.1-0.3,0.2-0.7,0.2-1c1.3,0,2.6,0.2,3.9,0c8-1.3,14.9,1.1,21,8.3c2.2,2.6,4,2.1,5.6-1.2c0.8-1.7,1.3-3.9,1.3-5.9
	c0.1-10,0.1-20.1,0.1-30.1c0-8.6-2.2-11.8-8.8-12.8c-1-0.1-2-0.2-3-0.2c-8.1,0-16.2-0.1-24.3,0.1c-2.2,0-4.4,0.5-6.5,1.3
	c-4.1,1.5-5.6,4-5.6,9.5c0,10.4,0,20.7,0,31.1c0,6.3,1.8,10,6.5,10.7c6.3,1,12.8,0.8,19.2,1.1c0.3,0,0.5-0.4,1.3-0.9
	C342.6,338.7,339.1,335.5,335.6,332.3z"/>
<path id="XMLID_83_" class="st0" d="M484.6,264.7c-8.6,1.7-17.2,3.4-25.8,5.1c-0.1,0.4-0.2,0.7-0.3,1.1c1.3,1.4,2.5,3.1,3.9,4.1
	c4.9,3.6,10.2,6.6,14.9,10.5c4,3.3,7.6,7.7,11.3,11.7c0.7,0.8,1.1,2,1.4,2.5c-6-3.6-12.2-7.4-18.4-11.2c-4.8-2.9-9.7-5.7-14.4-8.9
	c-3.9-2.6-6.9-6.7-8.9-12.3c9.1-5,18.5-5.7,28.2-5.4c0.1-0.3,0.2-0.7,0.4-1c-1-1-2-2.3-3.1-3.1c-10.5-7.4-21.1-15-33.1-17.6
	c-3.5-0.8-6.1-3.1-7.9-7c-4.8-10.1-10.1-19.9-14.3-30.5c-5.6-14.2-13.6-25.4-23.1-35.1c-10.6-10.8-22.4-19-35.6-23.1
	c-4.3-1.3-8.9-1.1-13.3-1.9c-1.8-0.3-3.7-0.9-5.2-2.1c-5.9-4.7-12.3-7.8-19.1-9.3c-1.5-0.3-3.8,0.6-4.8,2c-0.6,0.9,0,4.1,0.8,5.8
	c1.1,2.3,2.6,4.3,4.2,6.2c5.5,6.5,9.6,14.1,12.2,23.2c1.3,4.4,2.9,8.7,4.8,12.7c1.4,2.8,3.3,5.3,5.3,7.5c2.7,3.1,3.2,4.7,1.9,9.2
	c-1.4,4.6-3.2,9.1-4,13.8c-1.8,10.4-0.5,20.4,4,29.5c0.4,0.8,0.8,1.8,1.4,2.3c1.2,1.1,2.6,1.8,3.9,2.7c0.4-1.5,0.9-3,1.3-4.6
	c0.3-1.4,0.4-2.8,0.5-4.2c0.8-7.4,3.4-13.3,8.4-17.7c6.1,16.3,14.3,30.6,24.6,43.3c-9.8-7.7-19.1-15.4-24-29.3
	c-0.3,0.1-0.6,0.2-0.9,0.3c-0.4,2.6-1,5.1-1.3,7.7c-0.6,4.3-0.9,8.7-4.8,10.3c-4,1.7-7.3-0.1-10.2-3.6c-6.7-8.3-9.2-18.9-8.3-30.4
	c0.6-7.4,2.8-14.6,4.2-22c0.2-1.1,0.1-2.9-0.4-3.4c-6.9-7.3-9.7-17.8-13.4-27.7c-1.4-3.7-3-7.3-5-10.5c-2.5-4-5.6-7.4-8.2-11.2
	c-2.2-3.2-3.9-6.9-2.4-11.4c1.6-4.8,4.9-6.6,8.6-6.7c8.5-0.2,16,3.8,23.2,9.1c2.3,1.7,4.4,2.9,7.1,2.9c12-0.1,22.7,5.4,33.1,12.7
	c13.5,9.5,25.3,21.5,34.9,37.2c1.2,1.9,2.2,3.9,3.1,6c5.3,11.6,10.6,23.3,15.9,34.9c1.6,3.5,3.6,6,6.9,7.1
	c12.1,4.2,23,12.1,33.3,21.2c2.4,2.1,4.3,4.9,6.5,7.4C484.7,263.9,484.6,264.3,484.6,264.7z"/>
<path id="XMLID_82_" class="st0" d="M133.8,302c5.3,0,10.3,0,15.5,0c0,1.3,0,2.5,0,3.6c0,9.9,0.1,19.8,0,29.8c0,3.6,1.2,5.7,3.7,6.5
	c2,0.7,4.2,1.1,6.2,1.2c10.6,0.1,21.3,0,31.9,0.1c1.9,0,2.6-0.7,2.6-3.4c-0.1-11.4,0-22.7,0-34.1c0-1.2,0-2.4,0-3.8
	c5.2,0,10.2,0,15.6,0c0,1.2,0,2.4,0,3.6c0,16.8-0.2,33.5,0.1,50.3c0.1,7.5-2.6,12.4-7.6,14.7c-4.7,2.1-9.8,4.1-14.7,4.3
	c-17.1,0.5-34.3,0.2-51.4,0.2c-0.4,0-0.8-0.1-1.2-0.2c-0.1-0.4-0.2-0.7-0.3-1c-0.7-8.9-0.7-8.9,6-8.9c14.2,0,28.4,0.1,42.6-0.1
	c2.7,0,5.4-0.7,7.9-1.7c2.7-1.1,4.2-6.6,2.8-9.7c-0.3-0.7-1.6-1-2.4-1c-10.1-0.1-20.3,0.3-30.4-0.2c-5.5-0.2-11-1.6-16.5-2.8
	c-1.7-0.4-3.3-1.5-4.9-2.6c-3.7-2.6-5.7-6.3-5.5-12.2C134.1,323.8,133.8,313.1,133.8,302z"/>
<path id="XMLID_81_" class="st0" d="M265.9,279.8c8,0,16.1,0.1,24.1-0.1c2.5-0.1,3.1,1.3,2.9,4.1c-0.2,2.6,0.5,5.3-2.9,5.2
	c-13.1-0.2-26.2-0.1-39.3,0c-3,0-6.1,0.4-9.1,1.1c-2.9,0.6-4,2.6-4.1,6.4c-0.1,1.4,0,2.9-0.1,4.3c-0.2,5.9,1,9.2,7.2,10.3
	c3.7,0.7,7.4,0.2,11.1,0.4c7.6,0.4,15.2,0.5,22.7,1.6c3.5,0.5,6.9,2.9,10.1,5c2.7,1.7,4,4.9,3.8,9c-0.1,2.3-0.1,4.6,0,6.9
	c0.4,6.1-1.9,10.1-5.8,12.8c-5.2,3.6-10.8,5.2-16.6,5.3c-15,0.2-30.1,0-45.1,0.1c-2,0-2.6-0.9-2.6-3.5c0.1-6.9-0.5-6.1,4.6-6.1
	c13,0,26,0,39-0.1c2.2,0,4.6-0.5,6.7-1.3c3.4-1.3,4.4-3.4,4.4-8c0-1.3,0-2.6,0-4c0-5-1.3-7.3-5.1-8.3c-3-0.7-6.2-1-9.3-1.2
	c-8.7-0.6-17.4-0.5-26-1.7c-3.7-0.5-7.3-3.2-10.7-5.4c-2.3-1.5-3.5-4.4-3.5-7.9c0-3.2-0.1-6.4,0-9.6c0.2-5.6,2.6-9.5,6.4-11.2
	c4.3-1.9,8.7-3.7,13.2-4.1c7.9-0.6,15.9-0.2,23.8-0.2C265.9,279.9,265.9,279.9,265.9,279.8z"/>
<path id="XMLID_80_" class="st0" d="M438.8,342.8c6.8,0,13.7,0.1,20.5-0.1c2.1,0,3,0.7,3,3.7c-0.2,6.7,0.3,5.9-4.5,5.9
	c-12.2,0-24.5,0.4-36.7-0.1c-6.3-0.3-12.8-1.5-19-3.4c-6.9-2.2-9.5-7.6-9.5-17c0-16,0.1-32,0-47.9c0-2.9,0.5-4.2,3-4
	c3.1,0.2,6.3,0.2,9.4,0c2.2-0.1,2.7,1,2.7,3.7c-0.1,15.8,0,31.5,0,47.3c0,8.4,1.2,10.7,7.5,11.4c6.9,0.8,13.8,0.5,20.7,0.6
	C436.8,342.9,437.8,342.8,438.8,342.8z"/>
<path id="XMLID_76_" class="st0" d="M348.1,155.9c4.1-2,7.4,1.3,8.4,4.1c0.7,2,0,4-2,6C352.4,162.7,350.3,159.4,348.1,155.9z"/>
</svg>
