<svg version="1.1"
        xmlns="http://www.w3.org/2000/svg" xmlns:xlink="http://www.w3.org/1999/xlink" xmlns:a="http://ns.adobe.com/AdobeSVGViewerExtensions/3.0/"
        x="0px" y="0px" width="83.2px" height="80.5px" viewBox="0 0 83.2 80.5" style="enable-background:new 0 0 83.2 80.5;"
        xml:space="preserve">
    <style type="text/css">
        .st0{opacity:0.5;fill:#D4D4D4;}
        .st1{fill:#373F6B;}
        .st2{fill:#FFFFFF;}
        .st3{fill:#D4D4D4;}
        .st4{fill:#222222;}
        .st5{fill:#333333;}
        .st6{fill:#F4F4F4;stroke:#333333;stroke-width:2;stroke-miterlimit:10;}
        .st7{fill:#BABABA;}
    </style>
    <defs>
    </defs>
    <path id="XMLID_72_" class="st0" d="M14.2,56.7c-1.3-10.5,0.8-12-1.4-15.8c-3.1-5.4-8.6-4-11.5-9.5c-2.5-4.7-0.9-10.2-0.2-12.3
        C4.1,9.6,14.4,1.1,25,0.6C36.3,0,40.7,8.7,50.5,5.7c5.2-1.6,5.4-4.6,10.7-5.5c6.4-1,14,1.9,18.3,7.8c5.2,7,3.5,15.5,3,17.7
        c-1.6,7.9-5.9,8.8-5.8,15.1c0.1,6.5,4.6,7.4,4.6,14c0,5.6-3.2,11.1-7.6,14.4c-0.6,0.5-7.4,5.4-14.9,3.5c-6.1-1.5-5.7-5.8-11.4-7.1
        c-4.7-1.1-6,1.5-17.3,3.4c-6.3,1-9.5,1.5-11.9-0.3C15.6,66.7,15.1,63.4,14.2,56.7z"/>
    <path id="XMLID_71_" class="st1" d="M47.2,23.7H5.5v-5.4c0-1.4,1.1-2.5,2.5-2.5h36.7c1.4,0,2.5,1.1,2.5,2.5V23.7z"/>
    <path id="XMLID_70_" class="st2" d="M44.1,53.2H8.6c-1.7,0-3.1-1.4-3.1-3.1V23.7h41.7v26.4C47.2,51.8,45.8,53.2,44.1,53.2z"/>
    <circle id="XMLID_69_" class="st2" cx="42.6" cy="20.1" r="1.5"/>
    <circle id="XMLID_68_" class="st2" cx="36.6" cy="20.1" r="1.5"/>
    <circle id="XMLID_67_" class="st2" cx="30.6" cy="20.1" r="1.5"/>
    <path id="XMLID_66_" class="st3" d="M19.6,37.7H7.5c-0.4,0-0.7-0.3-0.7-0.7V26c0-0.4,0.3-0.7,0.7-0.7h12.2c0.4,0,0.7,0.3,0.7,0.7v11
        C20.3,37.4,20,37.7,19.6,37.7z"/>
    <path id="XMLID_65_" class="st3" d="M30.1,50.8H7.3c-0.3,0-0.5-0.2-0.5-0.5v-2.6c0-0.3,0.2-0.5,0.5-0.5h22.9c0.3,0,0.5,0.2,0.5,0.5
        v2.6C30.6,50.6,30.4,50.8,30.1,50.8z"/>
    <path id="XMLID_64_" class="st3" d="M44.3,50.8H32.6c-0.2,0-0.3-0.2-0.3-0.3v-2.9c0-0.2,0.2-0.3,0.3-0.3h11.7c0.2,0,0.3,0.2,0.3,0.3
        v2.9C44.6,50.6,44.5,50.8,44.3,50.8z"/>
    <path id="XMLID_63_" class="st3" d="M44.3,27.1H23.5c-0.2,0-0.3-0.1-0.3-0.3v-1.1c0-0.2,0.1-0.3,0.3-0.3h20.8c0.2,0,0.3,0.1,0.3,0.3
        v1.1C44.6,27,44.5,27.1,44.3,27.1z"/>
    <path id="XMLID_62_" class="st3" d="M44.3,32.4H23.5c-0.2,0-0.3-0.1-0.3-0.3V31c0-0.2,0.1-0.3,0.3-0.3h20.8c0.2,0,0.3,0.1,0.3,0.3
        v1.1C44.6,32.3,44.5,32.4,44.3,32.4z"/>
    <path id="XMLID_61_" class="st3" d="M44.3,37.7H23.5c-0.2,0-0.3-0.1-0.3-0.3v-1.1c0-0.2,0.1-0.3,0.3-0.3h20.8c0.2,0,0.3,0.1,0.3,0.3
        v1.1C44.6,37.6,44.5,37.7,44.3,37.7z"/>
    <g id="XMLID_56_">
        <path id="XMLID_60_" class="st4" d="M61.6,62L61,62.6c-0.4,0.4-1,0.4-1.4,0l-4.2-4.5l2.1-2l4.2,4.5C62,61,62,61.6,61.6,62z"/>
        <path id="XMLID_59_" class="st4" d="M78,78.8l-1.1,1c-1.1,1-2.7,1-3.7-0.1l-13.3-14l4.9-4.7l13.3,14C79.1,76.1,79.1,77.8,78,78.8z"
            />
        <path id="XMLID_58_" class="st5" d="M66,60.8l-6.4,6.1c-0.7,0.6-1.7,0.6-2.4-0.1l-0.4-0.5c-0.6-0.7-0.6-1.7,0.1-2.4l6.4-6.1
            c0.7-0.6,1.7-0.6,2.4,0.1l0.4,0.5C66.7,59.1,66.7,60.2,66,60.8z"/>
        <path id="XMLID_57_" class="st5" d="M65.5,61.8l-0.7,0.7c-0.6,0.6-0.6,1.5-0.1,2.1l10.3,10.9c0.6,0.6,1.5,0.6,2.1,0.1l0.7-0.7
            L65.5,61.8z"/>
    </g>
    <circle id="XMLID_55_" class="st6" cx="48.4" cy="49.3" r="11"/>
    <g id="XMLID_47_">
        <g id="XMLID_51_">
            <path id="XMLID_52_" class="st7" d="M50.5,58.6c-5.7,0-10.3-4.7-10.3-10.6c0-2.7,1-5.2,2.7-7.1c-2.7,1.8-4.5,4.8-4.5,8.3
                c0,5.5,4.5,10,10,10c1.4,0,2.8-0.3,4-0.8C51.8,58.5,51.2,58.6,50.5,58.6z"/>
        </g>
    </g>
    <ellipse id="XMLID_45_" transform="matrix(0.7615 0.6481 -0.6481 0.7615 39.2892 -22.5967)" class="st2" cx="50.4" cy="42.1" rx="2.2" ry="1.4"/>
    <circle id="XMLID_44_" class="st2" cx="53.9" cy="45.6" r="1.4"/>
    <g id="XMLID_41_">
        <path id="XMLID_43_" d="M18.4,27.3l-9.1,9.1c-0.2,0.2-0.4,0.2-0.6,0l0,0c-0.2-0.2-0.2-0.4,0-0.6l9.1-9.1c0.2-0.2,0.4-0.2,0.6,0v0
            C18.6,26.9,18.6,27.1,18.4,27.3z"/>
        <path id="XMLID_42_" d="M8.7,27.3l9.1,9.1c0.2,0.2,0.4,0.2,0.6,0l0,0c0.2-0.2,0.2-0.4,0-0.6l-9.1-9.1c-0.2-0.2-0.4-0.2-0.6,0v0
            C8.5,26.9,8.5,27.1,8.7,27.3z"/>
    </g>
</svg>