<?xml version="1.0" encoding="utf-8"?>
<!-- Generator: Adobe Illustrator 19.0.0, SVG Export Plug-In . SVG Version: 6.00 Build 0)  -->
<svg version="1.1" id="Layer_1" xmlns="http://www.w3.org/2000/svg" xmlns:xlink="http://www.w3.org/1999/xlink" x="0px" y="0px"
	 viewBox="0 0 500 500" style="enable-background:new 0 0 500 500;" xml:space="preserve">
<style type="text/css">
	.st0{fill:#1D1D1D;}
	.st1{fill:none;stroke:#FFFFFF;stroke-width:6;stroke-miterlimit:10;}
	.st2{fill:#FFFFFF;}
</style>
<rect id="XMLID_1_" class="st0" width="500" height="500"/>
<g id="XMLID_5_">
	<path id="XMLID_3_" class="st1" d="M418.9,353.5H81.1c-3.3,0-6-2.7-6-6V90.5c0-3.3,2.7-6,6-6h337.7c3.3,0,6,2.7,6,6v256.9
		C424.9,350.8,422.2,353.5,418.9,353.5z"/>
	<circle id="XMLID_4_" class="st2" cx="147.5" cy="156" r="25"/>
	<polygon id="XMLID_6_" class="st2" points="143.4,223 94,273 94,335 411,335 411,319 305.8,181 224.9,302.4 	"/>
	<g id="XMLID_8_">
		<path id="XMLID_9_" class="st2" d="M106.5,404.8h-3.7l-14.2-27.2v27.2h-3.7v-35.3h3.7l14.3,27.3v-27.3h3.7V404.8z"/>
		<path id="XMLID_11_" class="st2" d="M111.6,391.5c0-2.6,0.4-4.9,1.2-6.9c0.8-2,1.9-3.6,3.4-4.7c1.4-1.1,3.1-1.7,4.9-1.7
			c2.9,0,5.2,1.2,6.9,3.7c1.8,2.5,2.7,5.8,2.7,9.9v0.3c0,2.6-0.4,4.8-1.2,6.9c-0.8,2-1.9,3.6-3.4,4.7s-3.1,1.7-5,1.7
			c-2.8,0-5.2-1.2-6.9-3.7c-1.8-2.5-2.7-5.7-2.7-9.8V391.5z M115.2,392c0,2.9,0.5,5.2,1.6,7c1.1,1.8,2.5,2.6,4.3,2.6
			c1.8,0,3.3-0.9,4.4-2.7s1.6-4.3,1.6-7.5c0-2.9-0.5-5.2-1.6-7c-1.1-1.8-2.5-2.7-4.4-2.7c-1.8,0-3.2,0.9-4.3,2.6
			C115.8,386.2,115.2,388.8,115.2,392z"/>
		<path id="XMLID_14_" class="st2" d="M145.1,371.7c0-0.7,0.2-1.3,0.5-1.8c0.4-0.5,0.9-0.8,1.6-0.8s1.2,0.3,1.6,0.8
			c0.4,0.5,0.5,1.1,0.5,1.8c0,0.7-0.2,1.3-0.5,1.8s-0.9,0.7-1.6,0.7s-1.2-0.2-1.6-0.7C145.3,373,145.1,372.4,145.1,371.7z
			 M149,404.8h-3.6v-26.2h3.6V404.8z"/>
		<path id="XMLID_17_" class="st2" d="M158.1,378.6l0.1,2.9c1.5-2.3,3.6-3.4,6.2-3.4c2.9,0,4.9,1.4,6,4.2c0.7-1.3,1.6-2.3,2.7-3.1
			c1.1-0.8,2.4-1.2,4-1.2c4.6,0,7,3,7,9.1v17.6h-3.6v-17.3c0-1.9-0.3-3.3-1-4.2s-1.8-1.4-3.5-1.4c-1.3,0-2.4,0.5-3.3,1.5
			c-0.9,1-1.4,2.3-1.5,4v17.4h-3.6v-17.2c0-3.8-1.5-5.7-4.5-5.7c-2.4,0-4,1.3-4.8,3.8v19.1h-3.6v-26.2H158.1z"/>
		<path id="XMLID_19_" class="st2" d="M202.6,404.8c-0.2-0.5-0.4-1.4-0.5-2.8c-1.7,2.2-3.7,3.2-6,3.2c-2.1,0-3.8-0.7-5.1-2.2
			c-1.3-1.5-2-3.3-2-5.6c0-2.7,0.8-4.8,2.5-6.4s4-2.3,7-2.3h3.5v-2.1c0-1.6-0.4-2.8-1.1-3.7c-0.8-0.9-1.9-1.4-3.3-1.4
			c-1.3,0-2.4,0.4-3.2,1.2c-0.9,0.8-1.3,1.8-1.3,2.9h-3.6c0-1.3,0.4-2.6,1.1-3.8c0.7-1.2,1.8-2.2,3-2.9c1.3-0.7,2.7-1.1,4.2-1.1
			c2.4,0,4.3,0.8,5.7,2.3c1.4,1.5,2.1,3.6,2.1,6.2v12.1c0,2.4,0.2,4.3,0.7,5.7v0.4H202.6z M196.6,401.4c1.1,0,2.2-0.4,3.2-1.1
			c1-0.7,1.7-1.7,2.2-2.8v-5.4h-2.8c-4.4,0-6.6,1.6-6.6,4.8c0,1.4,0.4,2.5,1.1,3.3C194.5,401,195.4,401.4,196.6,401.4z"/>
		<path id="XMLID_22_" class="st2" d="M210.4,391.5c0-4.1,0.8-7.3,2.3-9.7c1.5-2.4,3.5-3.6,6-3.6c2.6,0,4.6,1.1,6,3.4l0.2-2.9h3.3
			v25.6c0,3.4-0.8,6.1-2.4,8c-1.6,2-3.8,2.9-6.5,2.9c-1.5,0-3-0.4-4.4-1.2c-1.5-0.8-2.6-1.9-3.3-3.3l1.9-2.7
			c1.5,2.4,3.4,3.6,5.7,3.6c1.7,0,3.1-0.6,4.1-1.8c1-1.2,1.5-3,1.5-5.2v-2.3c-1.4,2.1-3.4,3.1-5.9,3.1c-2.5,0-4.5-1.2-6-3.7
			S210.4,395.8,210.4,391.5z M214,392c0,3,0.5,5.3,1.5,7c1,1.7,2.3,2.5,4.1,2.5c2.3,0,3.9-1.3,5-3.9v-12c-1.1-2.5-2.8-3.8-5-3.8
			c-1.7,0-3.1,0.8-4.1,2.5C214.5,386.2,214,388.7,214,392z"/>
		<path id="XMLID_25_" class="st2" d="M242.3,405.3c-2.8,0-5.2-1.2-7-3.5c-1.8-2.3-2.7-5.5-2.7-9.4v-0.8c0-2.6,0.4-4.9,1.2-7
			c0.8-2,1.9-3.6,3.3-4.8c1.4-1.2,3-1.7,4.7-1.7c2.7,0,4.9,1.1,6.4,3.4c1.5,2.2,2.3,5.5,2.3,9.6v1.9h-14.2c0.1,2.6,0.7,4.7,1.8,6.3
			s2.6,2.4,4.4,2.4c1.3,0,2.3-0.3,3.2-1c0.9-0.6,1.7-1.5,2.3-2.6l2.2,2.1C248.4,403.6,245.8,405.3,242.3,405.3z M241.8,381.8
			c-1.5,0-2.7,0.7-3.7,2c-1,1.3-1.6,3.2-1.8,5.5h10.5V389c-0.1-2.3-0.6-4-1.5-5.3C244.5,382.5,243.3,381.8,241.8,381.8z"/>
		<path id="XMLID_28_" class="st2" d="M277.5,404.8c-0.2-0.5-0.4-1.4-0.5-2.8c-1.7,2.2-3.7,3.2-6,3.2c-2.1,0-3.8-0.7-5.1-2.2
			c-1.3-1.5-2-3.3-2-5.6c0-2.7,0.8-4.8,2.5-6.4c1.7-1.5,4-2.3,7-2.3h3.5v-2.1c0-1.6-0.4-2.8-1.1-3.7c-0.8-0.9-1.9-1.4-3.3-1.4
			c-1.3,0-2.4,0.4-3.2,1.2c-0.9,0.8-1.3,1.8-1.3,2.9h-3.6c0-1.3,0.4-2.6,1.1-3.8c0.7-1.2,1.8-2.2,3-2.9c1.3-0.7,2.7-1.1,4.2-1.1
			c2.4,0,4.3,0.8,5.7,2.3c1.4,1.5,2.1,3.6,2.1,6.2v12.1c0,2.4,0.2,4.3,0.7,5.7v0.4H277.5z M271.5,401.4c1.1,0,2.2-0.4,3.2-1.1
			s1.7-1.7,2.2-2.8v-5.4h-2.8c-4.4,0-6.6,1.6-6.6,4.8c0,1.4,0.4,2.5,1.1,3.3S270.3,401.4,271.5,401.4z"/>
		<path id="XMLID_31_" class="st2" d="M292.8,398.8l5.2-20.1h3.7l-7.5,26.2h-2.7l-7.6-26.2h3.7L292.8,398.8z"/>
		<path id="XMLID_33_" class="st2" d="M317.8,404.8c-0.2-0.5-0.4-1.4-0.5-2.8c-1.7,2.2-3.7,3.2-6,3.2c-2.1,0-3.8-0.7-5.1-2.2
			c-1.3-1.5-2-3.3-2-5.6c0-2.7,0.8-4.8,2.5-6.4c1.7-1.5,4-2.3,7-2.3h3.5v-2.1c0-1.6-0.4-2.8-1.1-3.7c-0.8-0.9-1.9-1.4-3.3-1.4
			c-1.3,0-2.4,0.4-3.2,1.2c-0.9,0.8-1.3,1.8-1.3,2.9h-3.6c0-1.3,0.4-2.6,1.1-3.8c0.7-1.2,1.8-2.2,3-2.9c1.3-0.7,2.7-1.1,4.2-1.1
			c2.4,0,4.3,0.8,5.7,2.3c1.4,1.5,2.1,3.6,2.1,6.2v12.1c0,2.4,0.2,4.3,0.7,5.7v0.4H317.8z M311.8,401.4c1.1,0,2.2-0.4,3.2-1.1
			s1.7-1.7,2.2-2.8v-5.4h-2.8c-4.4,0-6.6,1.6-6.6,4.8c0,1.4,0.4,2.5,1.1,3.3S310.6,401.4,311.8,401.4z"/>
		<path id="XMLID_36_" class="st2" d="M326.4,371.7c0-0.7,0.2-1.3,0.5-1.8c0.4-0.5,0.9-0.8,1.6-0.8c0.7,0,1.2,0.3,1.6,0.8
			c0.4,0.5,0.5,1.1,0.5,1.8c0,0.7-0.2,1.3-0.5,1.8s-0.9,0.7-1.6,0.7c-0.7,0-1.2-0.2-1.6-0.7C326.6,373,326.4,372.4,326.4,371.7z
			 M330.3,404.8h-3.6v-26.2h3.6V404.8z"/>
		<path id="XMLID_39_" class="st2" d="M340,404.8h-3.6v-37.2h3.6V404.8z"/>
		<path id="XMLID_41_" class="st2" d="M358.7,404.8c-0.2-0.5-0.4-1.4-0.5-2.8c-1.7,2.2-3.7,3.2-6,3.2c-2.1,0-3.8-0.7-5.1-2.2
			c-1.3-1.5-2-3.3-2-5.6c0-2.7,0.8-4.8,2.5-6.4c1.7-1.5,4-2.3,7-2.3h3.5v-2.1c0-1.6-0.4-2.8-1.1-3.7c-0.8-0.9-1.9-1.4-3.3-1.4
			c-1.3,0-2.4,0.4-3.2,1.2c-0.9,0.8-1.3,1.8-1.3,2.9h-3.6c0-1.3,0.4-2.6,1.1-3.8c0.7-1.2,1.8-2.2,3-2.9c1.3-0.7,2.7-1.1,4.2-1.1
			c2.4,0,4.3,0.8,5.7,2.3c1.4,1.5,2.1,3.6,2.1,6.2v12.1c0,2.4,0.2,4.3,0.7,5.7v0.4H358.7z M352.7,401.4c1.1,0,2.2-0.4,3.2-1.1
			s1.7-1.7,2.2-2.8v-5.4h-2.8c-4.4,0-6.6,1.6-6.6,4.8c0,1.4,0.4,2.5,1.1,3.3S351.6,401.4,352.7,401.4z"/>
		<path id="XMLID_44_" class="st2" d="M385.2,392c0,4-0.7,7.2-2.2,9.7c-1.5,2.4-3.5,3.6-5.9,3.6c-2.7,0-4.7-1.2-6.2-3.5l-0.2,3h-3.3
			v-37.2h3.6v13.9c1.5-2.2,3.5-3.4,6-3.4c2.5,0,4.6,1.2,6,3.6c1.5,2.4,2.2,5.7,2.2,9.9V392z M381.6,391.5c0-3.1-0.5-5.4-1.4-7.1
			c-0.9-1.7-2.3-2.5-4.1-2.5c-2.4,0-4.1,1.4-5.1,4.1v11.3c1.1,2.7,2.8,4.1,5.1,4.1c1.7,0,3.1-0.8,4-2.5
			C381.1,397.4,381.6,394.9,381.6,391.5z"/>
		<path id="XMLID_47_" class="st2" d="M393.6,404.8H390v-37.2h3.6V404.8z"/>
		<path id="XMLID_49_" class="st2" d="M408.1,405.3c-2.8,0-5.2-1.2-7-3.5c-1.8-2.3-2.7-5.5-2.7-9.4v-0.8c0-2.6,0.4-4.9,1.2-7
			c0.8-2,1.9-3.6,3.3-4.8c1.4-1.2,3-1.7,4.7-1.7c2.7,0,4.9,1.1,6.4,3.4c1.5,2.2,2.3,5.5,2.3,9.6v1.9H402c0.1,2.6,0.7,4.7,1.8,6.3
			c1.2,1.6,2.6,2.4,4.4,2.4c1.3,0,2.3-0.3,3.2-1c0.9-0.6,1.7-1.5,2.3-2.6l2.2,2.1C414.2,403.6,411.6,405.3,408.1,405.3z
			 M407.6,381.8c-1.5,0-2.7,0.7-3.7,2c-1,1.3-1.6,3.2-1.8,5.5h10.5V389c-0.1-2.3-0.6-4-1.5-5.3C410.3,382.5,409.1,381.8,407.6,381.8
			z"/>
	</g>
</g>
</svg>
