<?xml version="1.0" encoding="utf-8"?>
<!-- Generator: Adobe Illustrator 19.0.0, SVG Export Plug-In . SVG Version: 6.00 Build 0)  -->
<svg version="1.1" id="Layer_1" xmlns="http://www.w3.org/2000/svg" xmlns:xlink="http://www.w3.org/1999/xlink" x="0px" y="0px"
	 viewBox="0 0 100 100" style="enable-background:new 0 0 100 100;" xml:space="preserve">
<style type="text/css">
	.st0{fill:#FFFFFF;}
</style>
<path class="st0" d="M86.5,25.1C75.5,18.7,64.4,12.3,53.3,6c-2.4-1.4-4.9-1.2-7.2,0.1c-10.8,6.2-21.6,12.5-32.4,18.7
	c-2.6,1.5-3.8,3.7-3.8,6.7c0,12.4,0,24.7,0,37.1c0,2.7,1,4.8,3.2,6.1c3.8,2.3,7.6,4.6,11.6,6.3c7.6,3.3,14.1-0.6,14.4-8.8
	c0.3-12.2,0.1-24.3,0.1-36.5c0-1.7-0.7-2.2-2.4-2.4c-2.5-0.2-3.6,0.5-3.6,3.3c0.1,11.2,0.1,22.3,0,33.5c0,5.6-3.4,7.6-8.4,5.1
	c-2.8-1.4-5.5-3-8.1-4.7c-0.8-0.6-1.5-1.9-1.5-2.9c-0.1-11.7-0.1-23.3,0-35c0-1.2,1.1-2.9,2.1-3.5c10-5.9,20-11.6,30.1-17.2
	c1.1-0.6,3-0.7,4-0.1C61.9,17.6,72,23.4,82,29.4c1,0.6,2,2.3,2,3.5c0.2,11.4,0.1,22.7,0.1,34.1c0,2.2-0.8,3.4-2.7,4.5
	c-8.8,4.9-17.6,9.7-26.1,15.1c-4,2.6-7.3,3.3-11,0c-3.2-2.9-6.3-2.2-9.8,0.5c3.8,2.3,7.4,4.3,10.9,6.5c3,1.9,5.8,1.7,8.8,0
	c10.5-6.1,21.1-12.2,31.6-18.2c2.7-1.5,4.1-3.8,4.1-6.8c0-12.3,0-24.5,0-36.8C90,28.9,89,26.5,86.5,25.1z"/>
<path class="st0" d="M65.9,62.7c-4.1,0.3-8.2,0.4-12.2-0.1c-1.6-0.2-3.5-1.8-4.3-3.3c-2.2-3.8-2-3.9-6.7-2.7c0,4.4,1.7,7.7,5.6,9.7
	c5.3,2.8,11,2.8,16.8,2.1c2.1-0.3,4.3-1.2,6.2-2.1c4.1-2.1,5.4-5.8,4.9-10.1c-0.4-4-3.1-6.1-6.6-7c-5.4-1.3-10.8-2.1-16.2-3.1
	c-1.8-0.3-3.3-1-3.3-3.3c0-2.3,1.2-3.9,3.2-4.1c3.8-0.3,7.8-0.2,11.6,0.1c1.2,0.1,2.5,1.6,3.3,2.8c2,3.3,2.7,3.6,6.7,2.3
	c-0.1-3.8-1.5-7.3-5-9c-7.2-3.6-14.7-3.7-22,0.1c-3.6,1.9-4.6,5.4-4.1,9.3c0.4,3.5,2.5,5.6,5.7,6.7c1.6,0.6,3.3,0.9,5,1.2
	c3.9,0.7,7.7,1.1,11.6,1.8c2.1,0.4,4,1.2,4.1,3.7C70.2,60.7,68.4,62.5,65.9,62.7z"/>
</svg>
