<?xml version="1.0" encoding="utf-8"?>
<!-- Generator: Adobe Illustrator 19.0.0, SVG Export Plug-In . SVG Version: 6.00 Build 0)  -->
<svg version="1.1" id="Layer_1" xmlns="http://www.w3.org/2000/svg" xmlns:xlink="http://www.w3.org/1999/xlink" x="0px" y="0px"
	 viewBox="-429 231 100 100" style="enable-background:new -429 231 100 100;" xml:space="preserve">
<style type="text/css">
	.st0{opacity:0.5;fill:#D4D4D4;enable-background:new    ;}
	.st1{fill:#FFB301;}
	.st2{fill:#FFFFFF;}
	.st3{fill:#D4D4D4;}
	.st4{fill:#222222;}
	.st5{fill:#333333;}
	.st6{fill:#F4F4F4;stroke:#333333;stroke-width:2;stroke-miterlimit:10;}
	.st7{fill:#BABABA;}
</style>
<g id="Layer_2">
	<path id="XMLID_12_" class="st0" d="M-409.4,297.5c-1.3-10.5,0.8-12-1.4-15.8c-3.1-5.4-8.6-4-11.5-9.5c-2.5-4.7-0.8-10.2-0.2-12.3
		c2.9-9.5,13.2-18,23.9-18.6c11.3-0.6,15.7,8.2,25.5,5.1c5.2-1.6,5.4-4.6,10.7-5.5c6.4-1,14,1.9,18.3,7.8c5.2,7,3.5,15.5,3,17.7
		c-1.6,7.9-5.9,8.8-5.8,15.1c0.1,6.5,4.6,7.4,4.6,14c0,5.6-3.2,11.1-7.6,14.4c-0.6,0.5-7.4,5.4-14.9,3.5c-6.1-1.5-5.7-5.8-11.4-7.1
		c-4.7-1.1-6,1.5-17.3,3.4c-6.3,1-9.5,1.5-11.9-0.3C-408.1,307.5-408.5,304.1-409.4,297.5z"/>
</g>
<path id="XMLID_1_" class="st1" d="M-376.4,264.4h-41.7V259c0-1.4,1.1-2.5,2.5-2.5h36.7c1.4,0,2.5,1.1,2.5,2.5V264.4z"/>
<path id="XMLID_2_" class="st2" d="M-379.5,294H-415c-1.7,0-3.1-1.4-3.1-3.1v-26.5h41.7v26.4C-376.4,292.6-377.8,294-379.5,294z"/>
<circle id="XMLID_3_" class="st2" cx="-381" cy="260.8" r="1.5"/>
<circle id="XMLID_4_" class="st2" cx="-387" cy="260.8" r="1.5"/>
<circle id="XMLID_5_" class="st2" cx="-393" cy="260.8" r="1.5"/>
<path id="XMLID_6_" class="st3" d="M-404,278.5h-12.2c-0.4,0-0.7-0.3-0.7-0.7v-11c0-0.4,0.3-0.7,0.7-0.7h12.2c0.4,0,0.7,0.3,0.7,0.7
	v11C-403.3,278.2-403.6,278.5-404,278.5z"/>
<path id="XMLID_7_" class="st3" d="M-393.5,291.6h-22.9c-0.3,0-0.5-0.2-0.5-0.5v-2.6c0-0.3,0.2-0.5,0.5-0.5h22.9
	c0.3,0,0.5,0.2,0.5,0.5v2.6C-393,291.4-393.2,291.6-393.5,291.6z"/>
<path id="XMLID_8_" class="st3" d="M-379.3,291.6h-11.8c-0.2,0-0.3-0.2-0.3-0.3v-2.9c0-0.2,0.2-0.3,0.3-0.3h11.7
	c0.2,0,0.3,0.2,0.3,0.3v2.9C-379,291.4-379.2,291.6-379.3,291.6z"/>
<path id="XMLID_9_" class="st3" d="M-379.3,267.9h-20.8c-0.2,0-0.3-0.1-0.3-0.3v-1.1c0-0.2,0.1-0.3,0.3-0.3h20.8
	c0.2,0,0.3,0.1,0.3,0.3v1.1C-379,267.8-379.1,267.9-379.3,267.9z"/>
<path id="XMLID_10_" class="st3" d="M-379.3,273.2h-20.8c-0.2,0-0.3-0.1-0.3-0.3v-1.1c0-0.2,0.1-0.3,0.3-0.3h20.8
	c0.2,0,0.3,0.1,0.3,0.3v1.1C-379,273.1-379.1,273.2-379.3,273.2z"/>
<path id="XMLID_11_" class="st3" d="M-379.3,278.5h-20.8c-0.2,0-0.3-0.1-0.3-0.3v-1.1c0-0.2,0.1-0.3,0.3-0.3h20.8
	c0.2,0,0.3,0.1,0.3,0.3v1.1C-379,278.4-379.1,278.5-379.3,278.5z"/>
<g id="Layer_4">
	<g id="XMLID_23_">
		<path id="XMLID_16_" class="st4" d="M-362,302.7l-0.7,0.6c-0.4,0.4-1,0.4-1.4,0l-4.2-4.5l2.1-2l4.2,4.5
			C-361.6,301.7-361.6,302.4-362,302.7z"/>
		<path id="XMLID_14_" class="st4" d="M-345.6,319.6l-1.1,1c-1.1,1-2.7,1-3.7-0.1l-13.3-14l4.9-4.7l13.3,14
			C-344.5,316.9-344.6,318.6-345.6,319.6z"/>
		<path id="XMLID_15_" class="st5" d="M-357.6,301.6l-6.4,6c-0.7,0.6-1.7,0.6-2.4-0.1l-0.4-0.5c-0.6-0.7-0.6-1.7,0.1-2.4l6.4-6.1
			c0.7-0.6,1.7-0.6,2.4,0.1l0.4,0.5C-356.9,299.9-357,300.9-357.6,301.6z"/>
		<path id="XMLID_17_" class="st5" d="M-358.1,302.6l-0.7,0.7c-0.6,0.6-0.6,1.5-0.1,2.1l10.3,10.9c0.6,0.6,1.5,0.6,2.1,0.1l0.7-0.7
			L-358.1,302.6z"/>
	</g>
</g>
<g id="Layer_3">
	<circle id="XMLID_13_" class="st6" cx="-375.2" cy="290" r="11"/>
	<g id="XMLID_20_">
		<g id="XMLID_43_">
			<path id="XMLID_44_" class="st7" d="M-373.1,299.4c-5.7,0-10.3-4.7-10.3-10.6c0-2.7,1-5.2,2.7-7.1c-2.7,1.8-4.5,4.8-4.5,8.3
				c0,5.5,4.5,10,10,10c1.4,0,2.8-0.3,4-0.8C-371.8,299.3-372.5,299.4-373.1,299.4z"/>
		</g>
	</g>
	
		<ellipse id="XMLID_21_" transform="matrix(0.6481 -0.7615 0.7615 0.6481 -346.7745 -184.758)" class="st2" cx="-373.3" cy="282.9" rx="1.4" ry="2.2"/>
	<circle id="XMLID_22_" class="st2" cx="-369.7" cy="286.4" r="1.4"/>
</g>
<g id="Layer_5">
	<g id="XMLID_26_">
		<path id="XMLID_24_" d="M-405.2,268.1l-9.1,9.1c-0.2,0.2-0.4,0.2-0.6,0l0,0c-0.2-0.2-0.2-0.4,0-0.6l9.1-9.1c0.2-0.2,0.4-0.2,0.6,0
			l0,0C-405,267.6-405,267.9-405.2,268.1z"/>
		<path id="XMLID_25_" d="M-415,268.1l9.1,9.1c0.2,0.2,0.4,0.2,0.6,0l0,0c0.2-0.2,0.2-0.4,0-0.6l-9.1-9.1c-0.2-0.2-0.4-0.2-0.6,0
			l0,0C-415.1,267.6-415.1,267.9-415,268.1z"/>
	</g>
</g>
</svg>
