<?xml version="1.0" encoding="utf-8"?>
<!-- Generator: Adobe Illustrator 19.0.0, SVG Export Plug-In . SVG Version: 6.00 Build 0)  -->
<svg version="1.1" id="Layer_1" xmlns="http://www.w3.org/2000/svg" xmlns:xlink="http://www.w3.org/1999/xlink" x="0px" y="0px"
	 viewBox="0 0 678.3 269.6" style="enable-background:new 0 0 678.3 269.6;" xml:space="preserve">
<style type="text/css">
	.st0{fill:none;stroke:#FFFFFF;stroke-width:6;stroke-miterlimit:10;}
	.st1{fill:none;stroke:#FFFFFF;stroke-width:6;stroke-miterlimit:10;stroke-dasharray:11.898,11.898;}
</style>
<g id="XMLID_2_">
	<g id="XMLID_64_">
		<path id="XMLID_67_" class="st0" d="M6.3,88.4c1.3,1.5,2.6,3,3.9,4.5"/>
		<path id="XMLID_66_" class="st1" d="M18.1,101.9c65.5,73.2,147.3,137.4,246,154.8c52.3,9.2,106.7,5.5,156.6-13.4
			c32-12.1,66-32.9,83.3-63.3c18.9-33.2,20.4-73.8,10.6-110.1c-5.4-20.2-16.5-39.6-33.9-51.2C465,8.3,444.5,5.2,426.9,11.5
			c-17.6,6.3-31.7,22.4-34.6,40.9c-2.2,14.6,2.3,29.7,10.5,42c23,34.3,62.5,42.9,101.2,41.8c57.4-1.5,114-29.7,160.1-63.4"/>
		<path id="XMLID_65_" class="st0" d="M669,69.2c1.6-1.2,3.2-2.4,4.8-3.6"/>
	</g>
</g>
</svg>
