<?xml version="1.0" encoding="utf-8"?>
<!-- Generator: Adobe Illustrator 19.0.0, SVG Export Plug-In . SVG Version: 6.00 Build 0)  -->
<svg version="1.1" id="Layer_1" xmlns="http://www.w3.org/2000/svg" xmlns:xlink="http://www.w3.org/1999/xlink" x="0px" y="0px"
	 viewBox="0 0 100 100" style="enable-background:new 0 0 100 100;" xml:space="preserve">
<style type="text/css">
	.st0{fill:#FFFFFF;}
</style>
<g>
	<path class="st0" d="M63.2,76.2c0.4-2.3,0.8-4.4,1.2-6.6c2-11.3,4-22.6,6-33.8c0.2-0.9,0.4-1.3,1.4-1.3c5.3,0.1,10.6,0,15.8,0.1
		c3.2,0,6.1,0.8,8.5,3.3c1.7,1.7,2.5,3.9,2.8,6.3c0.9,9.4-3.6,17.8-11.3,20.5c-1.6,0.6-3.3,0.8-5,0.8c-2.5,0.1-5.1,0.1-7.6,0
		c-0.9,0-1.2,0.5-1.3,1.3c-0.4,2.8-1,5.6-1.4,8.4c-0.1,0.9-0.5,1.2-1.3,1.2c-2.4-0.1-4.8,0-7.2,0C63.7,76.3,63.5,76.2,63.2,76.2z
		 M75.8,57.8c2.7-0.2,5.2-0.2,7.7-0.6c2.6-0.5,4.5-2.4,5.3-5.2c0.5-1.7,0.7-3.4,0.8-5.2c0.1-1.6-0.7-2.9-2-3.6
		c-0.6-0.3-1.3-0.6-2-0.7c-2.3-0.1-4.6-0.1-6.9-0.2c-0.6,0-0.6,0.4-0.7,0.9c-0.4,2.9-0.9,5.9-1.3,8.8C76.4,53.8,76.1,55.6,75.8,57.8
		z"/>
	<path class="st0" d="M1,76.3c0.3-1.7,0.5-3.2,0.8-4.8c2-11.3,4-22.6,6.1-33.9C8,36.8,8.1,36,8.3,35.3c0.1-0.5,0.3-0.8,0.8-0.8
		c5.8,0,11.6,0,17.4,0.1c2.5,0.1,4.9,0.9,7,2.7c2.1,1.8,3.1,4.4,3.3,7.2c0.4,6.4-1.2,12-5.6,16.4c-3.1,3.1-6.7,4.6-10.8,4.5
		c-2.5,0-5.1,0-7.6,0c-0.7,0-1.1,0.2-1.2,1.1c-0.4,2.9-1,5.8-1.4,8.7c-0.1,0.8-0.4,1.1-1.2,1.1C6.3,76.3,3.8,76.3,1,76.3z
		 M13.7,57.6c2.7-0.1,5.3,0.3,7.9-0.5c2.5-0.8,4.2-2.5,5-5.3c0.4-1.3,0.6-2.7,0.7-4c0.3-3.1-1.1-5-3.9-5.3c-2.3-0.2-4.7-0.2-7.1-0.2
		c-0.2,0-0.5,0.4-0.6,0.7c-0.5,3-0.9,6-1.4,9.1C14.2,53.9,13.9,55.7,13.7,57.6z"/>
	<path class="st0" d="M35,65.4c0.4-2.1,0.7-4.1,1.1-6.1c2-11.2,4-22.5,6-33.7c0.4-2-0.1-1.8,2-1.8c2,0,4.1,0,6.1,0
		c0.3,0,0.7,0,1.1,0.1c-0.6,3.6-1.2,7.1-1.8,10.6c0.4,0,0.8,0.1,1.1,0.1c2.2,0,4.4,0,6.6,0c2.5,0,4.9,0.5,7.1,2
		c2.4,1.7,3.3,4.2,2.9,7.3c-1,7-2.1,13.9-3.2,20.9c-0.1,0.6-0.2,0.9-0.8,0.9c-2.7,0-5.5,0-8.2,0c-0.1,0-0.2,0-0.5-0.1
		c0.2-1,0.3-1.9,0.4-2.9c0.9-5.5,1.9-11,2.8-16.5c0,0,0-0.1,0-0.1c0.4-2.6-0.3-3.6-2.6-3.6c-2.1,0-4.2,0-6.2,0c-0.7,0-0.9,0.2-1,0.9
		c-1,5.8-2.1,11.7-3.1,17.5c-0.2,1.3-0.4,2.7-0.7,4c-0.1,0.3-0.4,0.7-0.7,0.7c-2.6,0-5.2,0-7.9,0C35.4,65.5,35.2,65.4,35,65.4z"/>
</g>
</svg>
