<?xml version="1.0" encoding="utf-8"?>
<!-- Generator: Adobe Illustrator 19.0.0, SVG Export Plug-In . SVG Version: 6.00 Build 0)  -->
<svg version="1.1" id="Layer_1" xmlns="http://www.w3.org/2000/svg" xmlns:xlink="http://www.w3.org/1999/xlink" x="0px" y="0px"
	 viewBox="0 0 400 100" style="enable-background:new 0 0 400 100;" xml:space="preserve">
<style type="text/css">
	.st0{fill:#FFFFFF;}
</style>
<g id="XMLID_1_">
	<path id="XMLID_201_" class="st0" d="M11.1,73.1c0.4,0.1,0.3-0.3,0.3-0.4c1.7-9.9,3.3-19.7,5-29.6c0.1-0.8,0.3-1.6,0.4-2.4
		c0-0.4,0.2-0.5,0.6-0.5c4.8,0,9.6,0,14.4,0.1c2,0,4,0.5,5.7,1.6c2.8,1.7,4.1,4.3,4.2,7.4c0.2,4-0.8,7.7-3.4,11
		c-2.7,3.3-6.2,4.8-10.4,5c-2.4,0.1-4.9,0.1-7.3,0c-0.5,0-0.7,0.1-0.8,0.6c-0.4,2.6-0.9,5.2-1.3,7.8c-0.1,0.4-0.2,0.6-0.6,0.6
		c-2.2,0-4.4,0-6.6,0C11.1,73.8,11.1,73.5,11.1,73.1z M23.9,59.8C23.9,59.8,23.9,59.8,23.9,59.8c0.9-0.1,1.8,0,2.7-0.1
		c3.2-0.2,5.6-1.5,6.8-4.6c0.6-1.5,0.9-3.1,0.9-4.7c0.1-2.9-1.2-4.3-4.2-4.7c-2.2-0.3-4.4-0.1-6.6-0.2c-0.4,0-0.5,0.3-0.5,0.6
		c-0.2,1.1-0.4,2.2-0.5,3.3c-0.5,3.3-1.1,6.5-1.6,9.8c-0.1,0.5,0.1,0.6,0.6,0.6C22.2,59.8,23.1,59.8,23.9,59.8z"/>
	<path id="XMLID_196_" class="st0" d="M134.7,55.5c0.9-1.8,1.8-3.5,2.7-5.2c4.5-8.6,9-17.2,13.5-25.8c0.2-0.5,0.5-0.6,1-0.6
		c4,0,8.1,0,12.1,0c0.6,0,0.7,0.1,0.7,0.7c-1.2,6.8-2.3,13.6-3.4,20.5c-1.1,6.3-2.1,12.6-3.2,18.9c0,0.1-0.1,0.2-0.1,0.4
		c0,0.7-0.3,0.8-1,0.8c-2.5,0-5,0-7.5,0c-0.6,0-0.7-0.1-0.6-0.7c1.1-5.7,2.2-11.4,3.3-17.1c0.8-4.4,1.7-8.7,2.5-13.1
		c0-0.2,0-0.3,0.1-0.6c-0.3,0.1-0.4,0.4-0.5,0.7c-5.2,10-10.4,20-15.6,30c-0.3,0.6-0.7,0.8-1.4,0.8c-2.7,0-5.5,0-8.2,0
		c-0.5,0-0.7-0.1-0.8-0.7c-1.1-5.9-2.3-11.8-3.4-17.8c-0.9-4.6-1.8-9.1-2.8-13.7c-0.3,1.8-0.5,3.7-0.8,5.5
		c-0.7,5.4-1.5,10.7-2.2,16.1c-0.4,3.2-0.9,6.4-1.3,9.5c-0.1,0.8-0.3,1-1.2,1c-2.6-0.1-5.1,0-7.7,0c-0.6,0-0.8-0.1-0.7-0.7
		c1.6-9.3,3.1-18.6,4.7-27.9c0.7-4,1.4-8,2-12c0.1-0.5,0.3-0.6,0.7-0.6c4.1,0,8.2,0,12.4,0c0.5,0,0.7,0.2,0.8,0.7
		c1.9,10.1,3.8,20.2,5.7,30.2C134.6,55,134.7,55.2,134.7,55.5z"/>
	<path id="XMLID_192_" class="st0" d="M288.1,48.2c0.4-2.6,0.9-5.2,1.3-7.7c0.3-1.7,0.6-3.3,0.8-5c0.1-0.4,0.2-0.6,0.7-0.6
		c11.1,0,22.3,0,33.4,0c2,0,4.1,0.3,6,1c3,1.1,4.5,3.2,4.7,6.2c0.2,2.3-0.3,4.5-0.7,6.7c-0.2,1.5-0.5,2.9-0.7,4.4
		c0,0.1-0.1,0.3-0.1,0.4c-0.5,3.1-1,6.1-1.5,9.2c-0.1,0.4-0.1,0.8-0.2,1.3c-0.3,1.1-0.3,1.1-1.4,1.1c-0.7,0-1.4,0-2.1,0
		c-1,0-2.1,0-3.1,0c-0.5,0-1-0.1-1.5,0c-0.5,0-0.6-0.2-0.6-0.6c0.5-2.8,1-5.7,1.4-8.5c0.1-0.3,0.1-0.6,0.1-1
		c0.2-1.2,0.5-2.4,0.7-3.6c0.3-2.1,0.9-4.3,1-6.4c0.1-2.2-0.6-3-2.8-3.3c-1.8-0.3-3.7-0.1-5.5-0.1c-1.3,0-1.3,0-1.5,1.2
		c-0.1,0.4-0.1,0.8-0.2,1.2c-0.5,2.9-1,5.9-1.4,8.8c-0.3,2-0.7,4.1-1,6.1c-0.1,0.4-0.1,0.8-0.2,1.2c-0.3,1.5-0.5,3.1-0.8,4.6
		c-0.1,0.4-0.2,0.6-0.7,0.6c-2.5,0-5.1,0-7.6,0c-0.5,0-0.6-0.2-0.5-0.6c0.3-2,0.7-4.1,1-6.1c0.1-0.4,0.1-0.8,0.2-1.2
		c0.3-2.1,0.7-4.2,1-6.2c0.5-3,1-5.9,1.5-8.9c0.1-0.4,0-0.6-0.5-0.6c-3,0-6,0-9,0c-0.3,0-0.5,0.1-0.6,0.4c-0.4,2.5-0.8,4.9-1.2,7.4
		c-0.4,2.1-0.8,4.2-1.1,6.4c-0.2,0.4-0.2,0.8-0.2,1.1c-0.4,2.5-0.9,5.1-1.3,7.6c-0.1,0.6-0.3,0.7-0.9,0.7c-2.4,0-4.8,0-7.2,0
		c-0.6,0-0.7-0.1-0.6-0.7c0.5-2.7,0.9-5.4,1.4-8.1c0-0.2,0-0.4,0-0.6c0.2-0.4,0.2-0.8,0.2-1.2C287.5,52.5,287.8,50.3,288.1,48.2z"/>
	<path id="XMLID_189_" class="st0" d="M221.9,26.9c0-0.1,0.1-0.1,0.1-0.2c0.4-0.6,0.9-1.3,1.2-1.9c0.3-0.6,0.7-1,1.5-0.9
		c0.4,0,0.8,0,1.2,0c2.3,0,4.7,0,7,0c0.6,0,0.8,0.2,0.9,0.7c0.9,3,1.7,6,2.6,9c1.4,4.8,2.8,9.7,4.2,14.5c0.6,2.1,1.2,4.1,1.8,6.2
		c0.1,0.4,0.2,0.8,0.3,1.2c0.9,3,1.7,6,2.6,9c0.2,0.5,0.1,0.7-0.5,0.7c-3,0-6,0-9.1,0c-0.5,0-0.7-0.2-0.8-0.7
		c-0.6-2.5-1.2-4.9-1.9-7.4c0-0.4-0.1-0.8-0.3-1.2c0-0.4-0.1-0.6-0.6-0.6c-5.6,0-11.1,0-16.7,0c-2.1-0.1-2.2-0.1-2.7,1.3
		c0,0,0,0,0,0c0,0-0.1,0.1-0.1,0.1c-1.5,2.6-3,5.2-4.4,7.8c-0.2,0.4-0.5,0.6-1,0.6c-2.8,0-5.6,0-8.5,0c-0.6,0-0.7-0.1-0.4-0.6
		c0.4-0.7,0.8-1.4,1.2-2c0.2-0.2,0.3-0.5,0.5-0.7c5-8.1,10-16.1,15-24.2c0.3-0.5,0.7-1,0.9-1.5c0.5-0.5,0.8-1.1,1.1-1.7
		C218.8,31.9,220.3,29.4,221.9,26.9z M225.4,34.9c-0.7,1.1-1.3,2.3-2,3.4c-1.7,3-3.4,6-5.1,8.9c-0.4,0.8-0.4,0.8,0.5,0.8
		c0.6,0,1.3,0,1.9,0c3.1,0,6.2,0,9.4,0c0.9,0,0.9,0,0.7-0.8c-0.1-0.5-0.2-0.9-0.3-1.4c-1-3.7-1.9-7.4-2.9-11.1
		c-0.2-0.8-0.4-1.6-0.6-2.6C226.4,33.1,225.9,34,225.4,34.9z"/>
	<path id="XMLID_188_" class="st0" d="M196.4,60.5c-0.3,1.5-0.6,3-0.8,4.6c-0.3,1.6-0.8,3-1.4,4.5c-0.2,0.4-0.4,0.7-0.6,1.1
		c-2.6,4-6.6,5.4-11.3,5.5c-5.6,0.1-11.3,0-16.9,0c-0.5,0-0.6-0.1-0.5-0.6c0.3-1.6,0.6-3.2,0.8-4.8c0.1-0.7,0.4-0.7,1-0.7
		c4.7,0,9.3,0,14,0c0.9,0,1.8,0,2.7-0.3c2.1-0.6,3.2-1.9,3.7-3.9c0.1-0.5,0-0.7-0.6-0.7c-2.5,0-5,0-7.5,0c-2.2,0-4.4-0.2-6.6-1
		c-2.8-1-4.2-3.1-4.5-5.9c-0.3-2.5,0.3-5,0.7-7.4c0.8-5.1,1.7-10.1,2.5-15.2c0.1-0.5,0.2-0.8,0.8-0.7c2.4,0,4.7,0,7.1,0
		c0.6,0,0.7,0.1,0.6,0.7c-1,5.7-1.9,11.4-2.9,17.1c-0.2,1.1-0.3,2.1-0.2,3.2c0.1,1.3,0.6,2,1.9,2.3c0.7,0.2,1.4,0.3,2,0.3
		c2.4,0,4.9,0,7.3,0c0.4,0,0.6-0.1,0.6-0.5c0.2-1.4,0.4-2.7,0.6-4.1c0.5-2.8,1-5.5,1.4-8.3c0.4-2.2,0.7-4.5,1.1-6.7
		c0.2-1.1,0.4-2.3,0.6-3.4c0.1-0.4,0.2-0.6,0.7-0.6c2.4,0,4.9,0,7.3,0c0.6,0,0.6,0.2,0.5,0.7c-0.1,0.8-0.3,1.6-0.4,2.3
		c-0.8,5-1.7,9.9-2.5,14.9C197.3,55.3,196.9,57.9,196.4,60.5z"/>
	<path id="XMLID_185_" class="st0" d="M284.1,28c-1.1,6.4-2.2,12.8-3.2,19.2c0,0.1,0,0.1,0,0.2c-0.4,2.2-0.7,4.3-1.1,6.5
		c-0.1,0.4-0.2,0.8-0.2,1.2c-0.4,2-0.7,4-1.1,6c-0.2,1.2-0.4,2.4-0.6,3.6c-0.1,0.4-0.2,0.5-0.6,0.5c-5.8,0-11.6,0.1-17.4-0.1
		c-3.3-0.1-6.3-1-8.7-3.3c-2-1.9-2.9-4.3-3.3-6.9c0-0.4,0-0.8-0.1-1.2c0-2.2,0.3-4.4,0.9-6.6c0.1-0.3,0.2-0.6,0.3-0.8
		c1.8-4.7,4.9-8.4,9.9-10.3c2.4-0.9,4.9-1.1,7.5-1.1c2.5,0,4.9,0,7.4,0c0.3,0,0.7,0,0.7-0.4c0.3-1.8,0.6-3.6,0.8-5.4
		c0.3-1.4,0.5-2.8,0.7-4.2c0.1-0.6,0.3-0.9,1-0.9c2.3,0.1,4.7,0,7,0c0.6,0,0.7,0.2,0.6,0.7C284.5,25.7,284.3,26.8,284.1,28z
		 M257,54.3c0.1,1.9,1.3,3.3,3.5,3.8c3.2,0.8,6.4,0.4,9.6,0.5c0.3,0,0.4-0.2,0.4-0.4c0.2-1.2,0.4-2.5,0.6-3.7
		c0.1-0.4,0.2-0.8,0.2-1.2c0.4-2.2,0.7-4.4,1.1-6.5c0.3-1.7,0.6-3.3,0.9-5c0.1-0.4-0.1-0.4-0.4-0.4c-2.7,0.1-5.5-0.2-8.2,0.3
		c-3.1,0.5-5.4,2-6.5,4.9c-0.9,2.1-1.3,4.3-1.3,6.6C256.9,53.5,256.8,53.9,257,54.3z"/>
	<path id="XMLID_184_" class="st0" d="M372.5,41.5c-1.2,0-2.5,0-3.7,0c-0.4,0-0.6,0.1-0.7,0.5c-1.2,7.4-2.5,14.9-3.7,22.3
		c-0.1,0.6-0.3,0.8-0.9,0.8c-2.3-0.1-4.7-0.1-7,0c-0.7,0-0.8-0.2-0.7-0.8c0.9-5.3,1.8-10.7,2.7-16c0.7-4.2,1.4-8.3,2.1-12.5
		c0.1-0.7,0.3-1,1.2-1c4.9,0.1,9.7,0,14.6,0c2.3,0,4.7,0.1,6.9,0.7c3.7,1,5.4,3.2,5.6,6.9c0.1,2.3-0.4,4.5-0.8,6.8
		c-0.8,5.1-1.7,10.1-2.5,15.2c-0.1,0.5-0.2,0.7-0.8,0.7c-2.4,0-4.8,0-7.2,0c-0.6,0-0.7-0.1-0.6-0.7c1-5.9,2-11.8,3-17.7
		c0.2-1,0.3-1.9,0.1-2.9c-0.2-1.1-0.8-1.7-1.9-2c-1-0.3-2.1-0.3-3.1-0.3C374.2,41.5,373.4,41.5,372.5,41.5z"/>
	<path id="XMLID_181_" class="st0" d="M86.8,40.2c2.2,0.1,4.9-0.1,7.6,0.1c5.4,0.5,8.8,4.1,8.8,9.3c0,5.1-1.7,9.5-5.9,12.8
		c-2.4,1.8-5.1,2.5-8.1,2.6c-2.4,0.1-4.8,0.1-7.2,0.1c-0.5,0-0.7,0.1-0.8,0.7c-0.4,2.6-0.9,5.2-1.3,7.8c-0.1,0.5-0.3,0.6-0.7,0.6
		c-1.9,0-3.9,0-5.8,0c-0.6,0-0.6-0.2-0.6-0.7c0.9-5.5,1.8-11,2.8-16.5c0.9-5.4,1.8-10.8,2.7-16.2c0.1-0.5,0.3-0.6,0.8-0.6
		C81.6,40.2,83.9,40.2,86.8,40.2z M85.6,59.8C85.6,59.8,85.6,59.8,85.6,59.8c0.9-0.1,1.8,0,2.7-0.1c2.7-0.2,5-1.1,6.3-3.7
		c1-2,1.4-4.1,1.3-6.3c-0.1-2.3-1.2-3.5-3.6-4c-2.4-0.5-4.8-0.2-7.2-0.3c-0.5,0-0.5,0.3-0.5,0.6c-0.2,1.1-0.4,2.3-0.6,3.4
		c-0.5,3.2-1.1,6.3-1.6,9.5c-0.1,0.6,0.1,0.8,0.7,0.7C84,59.8,84.8,59.8,85.6,59.8z"/>
	<path id="XMLID_180_" class="st0" d="M64.6,65.2c-1,0-2,0-3,0c-0.5,0-0.5-0.1-0.5-0.6c0.8-4.9,1.6-9.8,2.5-14.7
		c0-0.3,0.1-0.6,0.1-0.9c0.1-2.3-0.6-3.2-3-3.3c-2.1-0.1-4.2,0-6.3-0.1c-0.5,0-0.5,0.3-0.5,0.6c-0.4,2.5-0.8,5.1-1.3,7.6
		c-0.6,3.6-1.2,7.1-1.8,10.7c-0.1,0.5-0.2,0.7-0.8,0.6c-1.9,0-3.8,0-5.7,0c-0.5,0-0.7-0.1-0.6-0.6c1.8-10.9,3.7-21.8,5.5-32.7
		c0.1-0.5,0.2-0.7,0.8-0.7c1.9,0,3.8,0,5.8,0c0.5,0,0.6,0.1,0.5,0.6c-0.5,2.6-0.9,5.3-1.3,7.9c-0.1,0.5,0,0.6,0.5,0.6
		c2.8,0,5.6-0.1,8.4,0.1c1.5,0.1,2.9,0.4,4.2,1.1c2.1,1.1,2.8,2.8,3,4.9c0.1,1.9-0.3,3.8-0.6,5.7c-0.7,4.1-1.4,8.3-2.1,12.4
		c-0.1,0.6-0.3,0.7-0.9,0.7C66.5,65.1,65.5,65.2,64.6,65.2z"/>
	<path id="XMLID_178_" class="st0" d="M342.8,43.8c0.5-1.5,0.6-3,0.9-4.6c0.2-1.2,0.5-2.5,0.6-3.7c0.1-0.5,0.3-0.6,0.8-0.6
		c2,0,4,0,6,0c0.6,0,1.2,0,1.8,0c0.4,0,0.5,0.1,0.4,0.5c-0.8,4.6-1.6,9.2-2.3,13.8c-0.8,5-1.7,10-2.5,15c-0.1,0.8-0.4,1-1.2,1
		c-2.4-0.1-4.7,0-7.1,0c-0.9,0-0.9,0-0.7-0.9c0-0.2,0-0.5,0.1-0.7c0.2-0.4,0.2-0.8,0.2-1.2c0.4-2.3,0.8-4.6,1.2-7
		c0.4-2.4,0.8-4.8,1.2-7.2c0.2-1.4,0.6-2.9,0.6-4.3c0,0,0,0,0,0c0,0,0.1,0,0.1,0C342.8,43.9,342.8,43.8,342.8,43.8z"/>
	<path id="XMLID_163_" class="st0" d="M212.9,56.7c0.5-1.4,0.6-1.4,2.7-1.3C214.7,55.8,213.8,56.2,212.9,56.7z"/>
	<path id="XMLID_162_" class="st0" d="M212.8,56.8c0,0,0.1-0.1,0.1-0.1C212.9,56.7,212.8,56.7,212.8,56.8z"/>
	<path id="XMLID_159_" class="st0" d="M349.4,31.4c-1.3,0-2.6,0-3.9,0c-0.4,0-0.5-0.1-0.5-0.5c0.4-2.2,0.7-4.4,1.1-6.6
		c0.1-0.3,0.2-0.5,0.5-0.5c2.7,0,5.4,0,8.1,0c0.4,0,0.4,0.2,0.4,0.5c-0.4,2.1-0.7,4.3-1.1,6.4c-0.1,0.5-0.2,0.6-0.7,0.6
		C352,31.4,350.7,31.4,349.4,31.4z"/>
	<path id="XMLID_157_" class="st0" d="M342.8,43.8c0,0,0,0.1,0.1,0.1c0,0-0.1,0-0.1,0C342.8,43.9,342.8,43.8,342.8,43.8z"/>
</g>
</svg>
