<?xml version="1.0" encoding="utf-8"?>
<!-- Generator: Adobe Illustrator 19.0.0, SVG Export Plug-In . SVG Version: 6.00 Build 0)  -->
<svg version="1.1"
	 id="svg2169" xmlns:sodipodi="http://sodipodi.sourceforge.net/DTD/sodipodi-0.dtd" xmlns:svg="http://www.w3.org/2000/svg" xmlns:cc="http://web.resource.org/cc/" xmlns:rdf="http://www.w3.org/1999/02/22-rdf-syntax-ns#" xmlns:inkscape="http://www.inkscape.org/namespaces/inkscape" xmlns:dc="http://purl.org/dc/elements/1.1/" inkscape:output_extension="org.inkscape.output.svg.inkscape" sodipodi:docname="dessin-1.svg" sodipodi:docbase="/home/bene/Desktop" inkscape:version="0.45.1" sodipodi:version="0.32"
	 xmlns="http://www.w3.org/2000/svg" xmlns:xlink="http://www.w3.org/1999/xlink" x="0px" y="0px" viewBox="-544 261.2 110.4 109.8"
	 style="enable-background:new -544 261.2 110.4 109.8;" xml:space="preserve">
<style type="text/css">
	.st0{fill:#FFFFFF;}
</style>
<sodipodi:namedview  width="131.10236px" height="184.25197px" borderopacity="1.0" inkscape:zoom="0.24748737" pagecolor="#ffffff" id="base" inkscape:cy="316.02744" inkscape:cx="-260.46312" bordercolor="#666666" inkscape:pageshadow="2" inkscape:current-layer="layer1" inkscape:document-units="px" inkscape:pageopacity="0.0" inkscape:window-y="48" inkscape:window-x="5" inkscape:window-height="624" inkscape:window-width="872">
	</sodipodi:namedview>
<g id="layer1" transform="translate(-473.36088,-251.72485)" inkscape:label="Calque 1" inkscape:groupmode="layer">
	<g id="g1894" transform="translate(428.42338,184.2561)">
		<path id="path8615" class="st0" d="M-444.3,328.6c-28,0-26.3,12.2-26.3,12.2l0,12.6h26.8v3.8h-37.4c0,0-17.9-2-17.9,26.3
			s15.7,27.3,15.7,27.3h9.3v-13.1c0,0-0.5-15.7,15.4-15.7s26.5,0,26.5,0s14.9,0.2,14.9-14.4s0-24.2,0-24.2S-415,328.6-444.3,328.6z
			 M-459,337.1c2.7,0,4.8,2.2,4.8,4.8s-2.2,4.8-4.8,4.8s-4.8-2.2-4.8-4.8S-461.7,337.1-459,337.1z"/>
		<path id="path8620" class="st0" d="M-443.5,438.5c28,0,26.3-12.2,26.3-12.2l0-12.6H-444v-3.8h37.4c0,0,17.9,2,17.9-26.3
			c0-28.3-15.7-27.3-15.7-27.3h-9.3v13.1c0,0,0.5,15.7-15.4,15.7c-15.9,0-26.5,0-26.5,0s-14.9-0.2-14.9,14.4s0,24.2,0,24.2
			S-472.7,438.5-443.5,438.5z M-428.7,430c-2.7,0-4.8-2.2-4.8-4.8c0-2.7,2.2-4.8,4.8-4.8c2.7,0,4.8,2.2,4.8,4.8
			C-423.9,427.8-426,430-428.7,430z"/>
	</g>
</g>
</svg>
