<?xml version="1.0" encoding="utf-8"?>
<!-- Generator: Adobe Illustrator 19.0.0, SVG Export Plug-In . SVG Version: 6.00 Build 0)  -->
<svg version="1.1" id="Layer_1" xmlns="http://www.w3.org/2000/svg" xmlns:xlink="http://www.w3.org/1999/xlink" x="0px" y="0px"
	 viewBox="0 0 500 500" style="enable-background:new 0 0 500 500;" xml:space="preserve">
<style type="text/css">
	.st0{fill:#FFFFFF;}
</style>
<path id="XMLID_98_" class="st0" d="M151,50c6.3,0,12.6,0,18.9,0c6.8,2.2,13.8,3.9,20.4,6.7c20.7,8.8,38,22.6,54.4,37.7
	c1.7,1.6,3.5,3.1,5.4,4.9c2.1-1.9,3.7-3.7,5.6-5.1c12.2-9.5,24.1-19.3,36.6-28.2c11.3-8,24.4-12.6,37.8-15.9c6.3,0,12.6,0,18.9,0
	c0.2,0.2,0.4,0.6,0.6,0.6c19.7,4.4,30.1,18,35.3,36.3c6.1,21.7,4.2,43.6,0.5,65.5c-1.3,7.5-3,14.8-4.4,21.9
	c10.9,4,21.5,7.4,31.7,11.6c18.4,7.5,35.8,17,49.2,32.2c8,9.2,13.2,19.6,13.1,32.1c-0.1,14.8-7.2,26.3-17.3,36.3
	c-12.9,12.7-28.6,21.2-45.3,27.8c-10.2,4.1-20.7,7.6-31.1,11.4c2,11.1,4.3,22.2,5.8,33.4c2.4,18,3,36.1-2.1,53.9
	c-4.5,15.9-12.9,28.6-29.2,34.6c-2.5,0.9-5.1,1.6-7.7,2.4c-6,0-12,0-18,0c-4.6-1.3-9.2-2.5-13.7-4.1c-23.3-8.5-42.4-23.3-60.4-39.7
	c-2-1.8-3.9-3.5-6.1-5.4c-1.5,1.4-2.6,2.6-3.9,3.6c-12.6,9.9-24.9,20.1-37.9,29.5c-11.4,8.2-24.6,12.8-38.2,16.2
	c-6.3,0-12.6,0-18.9,0c-4.3-1.7-8.8-3-12.7-5.1c-13.7-7.5-20.5-20.2-24-34.7c-5-20.9-3.2-41.9,0.4-62.8c1.3-7.3,2.9-14.5,4.4-21.8
	c-7.8-2.6-15.2-4.9-22.5-7.6c-20.2-7.5-39.5-16.7-55-32.2c-9.6-9.6-16.3-20.7-16.5-34.8c-0.3-15,6.6-26.8,16.9-36.9
	c15.9-15.7,35.7-24.9,56.4-32.5c6.8-2.5,13.8-4.6,20.9-7c-1-4.4-1.9-8.5-2.7-12.5c-4.5-22.1-7.3-44.3-3.2-66.8
	c4-21.9,14.1-39,37.5-44.8C150.8,50.3,150.9,50.1,151,50z M250.1,322.8c11.9-0.5,24.2-1,36.5-1.4c3.1-0.1,5.3-1.2,6.9-4
	c12.3-21.4,24.6-42.8,37-64.1c1.4-2.4,1.3-4.3-0.1-6.6c-12.5-21.5-24.8-43-37.4-64.4c-1-1.7-3.7-3.3-5.6-3.4
	c-24.9-0.2-49.8-0.2-74.6,0c-1.9,0-4.7,1.6-5.7,3.3c-12.7,21.5-25.2,43.2-37.5,64.9c-0.9,1.5-0.8,4.5,0,6
	c12.1,21.3,24.4,42.5,36.6,63.9c1.9,3.3,4.4,4.4,8,4.5C226,321.8,237.9,322.3,250.1,322.8z M376.3,193.5
	c-7.6,18.8-14.9,36.7-22,54.8c-0.5,1.3-0.1,3.2,0.5,4.5c3,7.5,6.5,14.8,9.4,22.3c4,10.3,7.6,20.7,11.6,31.5
	c4.5-1.4,8.9-2.6,13.3-4.1c18.3-6.3,36.2-13.7,51.2-26.3c3.5-3,6.8-6.4,9.5-10.1c8-10.7,8.2-21.7,0-32.2c-3.9-5-8.6-9.6-13.7-13.4
	C418.1,207,397.3,199.6,376.3,193.5z M235.9,387.5c-12.4-15.8-24.4-31.1-36.5-46.3c-0.9-1.1-2.7-1.7-4.2-1.9
	c-18-2.9-36.1-5.7-54.1-8.6c-2.5-0.4-3.4,0.3-4,2.7c-3.9,15.9-6.5,32-6.7,48.3c-0.1,11.6,0.9,23,5.9,33.8c4,8.6,10.2,14.9,20,15.3
	c6.7,0.2,13.9-0.7,20.2-2.8C200.1,419.7,218.4,403.8,235.9,387.5z M236.1,112.9c-12.1-11.8-25-23-40-31.4
	c-8.2-4.5-16.9-8.5-25.9-11.1c-18.3-5.1-30.6,2.2-36.3,20.3c-0.4,1.3-0.7,2.6-1,3.9c-2.9,12.1-3.2,24.4-1.7,36.6
	c1.6,12.8,4,25.6,6,38.3c2,0,2.9,0.1,3.8,0c14.6-2.4,29.1-5.8,43.9-7c10.3-0.8,17.4-4.4,22-13.4c0.4-0.8,1.1-1.5,1.6-2.1
	C217.6,135.6,226.7,124.4,236.1,112.9z M123.3,192.8c-12.7,5-25.9,9.9-38.7,15.4c-10.9,4.7-20.9,11.1-29.3,19.6
	c-5.1,5.2-9.4,10.9-10.7,18.3c-1.8,10.9,3.6,19.1,10.9,26.3c11.6,11.5,25.9,18.7,40.8,24.7c9.1,3.6,18.5,6.6,27.7,9.8
	c0.6-1.1,0.9-1.5,1.1-1.9c6.9-17.7,13.8-35.4,20.6-53.1c0.4-1,0.6-2.4,0.2-3.3C138.6,230.5,131.3,212.4,123.3,192.8z M362,169.7
	c4.8-19.6,8.7-39.1,7.1-59.1c-0.7-8.8-2.6-17.8-5.8-26c-4.5-11.8-14.8-17-27-15.5c-3.5,0.4-7.1,1.2-10.5,2.3
	c-17.2,5.3-31.6,15.4-45.3,26.7c-5.8,4.8-11.3,10-16.4,14.4c12.4,15.9,24.3,31.1,36.3,46.2c0.9,1.1,2.6,1.9,4.1,2.1
	c10.5,1.5,21.1,2.7,31.6,4.3C344.6,166.4,353.1,168.1,362,169.7z M362.2,330.9c-20.2,2.9-39.6,5.6-58.9,8.4c-1,0.1-2.2,1-2.8,1.8
	c-12,15.3-24,30.6-36.4,46.4c5.3,4.6,10.9,10,17,14.9c13.9,11.3,28.4,21.6,45.9,26.7c21.2,6.2,34.7-1.7,40.1-23.1
	c0.1-0.3,0.1-0.6,0.2-0.9C372.5,379.8,367.8,355.2,362.2,330.9z M276.7,158.5c-9.2-11-17.7-21.2-26.7-32c-9.2,11-17.6,21.2-26.5,32
	C241.5,158.5,258.4,158.5,276.7,158.5z M250,373.4c9.1-10.9,17.5-21.1,26.5-31.8c-18.1,0-35.1,0-53.1,0
	C232.5,352.4,240.9,362.5,250,373.4z M316.1,318.8c14.2-2.4,27.2-4.7,41-7.1c-5-13.4-9.6-25.8-14.4-38.9
	C333.7,288.3,325.3,302.9,316.1,318.8z M183.8,181.2c-14.1,2.4-27.1,4.7-41,7c5,13.4,9.6,25.8,14.4,38.9
	C166.2,211.7,174.7,197.2,183.8,181.2z M342.7,227.3c4.9-13.3,9.5-25.7,14.4-39c-13.9-2.4-26.9-4.6-40.9-7
	C325.3,197.1,333.7,211.7,342.7,227.3z M183.8,318.7c-9.2-15.9-17.6-30.5-26.6-46c-4.8,13.1-9.5,25.6-14.4,39
	C156.8,314.1,169.8,316.3,183.8,318.7z"/>
<path id="XMLID_78_" class="st0" d="M289.9,250c0,22.1-17.9,39.9-40.1,39.9c-22.1-0.1-40-18.1-39.8-40.2c0.2-22,17.9-39.6,39.9-39.6
	C272.1,210.1,290,227.9,289.9,250z"/>
</svg>
