<?xml version="1.0" encoding="utf-8"?>
<!-- Generator: Adobe Illustrator 19.0.0, SVG Export Plug-In . SVG Version: 6.00 Build 0)  -->
<svg version="1.1" id="Layer_1" xmlns="http://www.w3.org/2000/svg" xmlns:xlink="http://www.w3.org/1999/xlink" x="0px" y="0px"
	 viewBox="0 0 500 500" style="enable-background:new 0 0 500 500;" xml:space="preserve">
<style type="text/css">
	.st0{fill:#FFFFFF;}
</style>
<path id="XMLID_26_" class="st0" d="M351,185.2c-8-2.4-15.4-4.4-22.6-6.8c-1.1-0.4-2.1-2.6-2.3-4.1c-3.1-20-9.9-38.6-21.2-55.4
	c-20.4-30.4-48.5-39.5-83.3-28c-27.7,9.2-43.9,29.4-54.7,55c-11.1,26.2-13.2,53.7-10.5,81.7c2.5,25.6,10.4,49.6,22.8,72.2
	c2,3.6,4,5.6,8.7,5.5c11.7-0.4,22.2,7.5,25.7,18.5c3.8,12-0.2,24.6-10,31.5c-10,7.1-23.2,7-33.1-0.3c-9.6-7.1-14-20.1-9.4-31.1
	c2.1-5,0.8-8.2-1.4-12.3c-18.5-33.7-28.9-69.6-27.9-108.2c0.8-30.7,7.6-60,23.8-86.4c16.2-26.5,39-45,69.7-51.8
	c37.4-8.4,68.1,4.4,92.6,32.7c17.5,20.2,26.4,44.3,30.7,70.3C349.7,173.6,350.2,179.2,351,185.2z"/>
<path id="XMLID_25_" class="st0" d="M277,422.4c7-5.7,13.6-11.2,20.4-16.4c0.9-0.7,3.1-0.4,4.4,0.1c17.7,7.1,36,10,55.1,8.9
	c38.5-2.3,70-37,67.9-75.3c-1.1-19.3-9.2-36.3-20.1-51.8c-21.8-31-52.5-49.7-87.8-61.7c-20.5-7-41.6-9.7-63.3-9.2
	c-3.6,0.1-5.6,1.3-7.5,4.4c-6.4,10.7-19.2,15.5-31.1,12.1c-12-3.4-20.1-14-20.3-26.6c-0.2-11.7,7.7-22.6,19.2-26.4
	c11.1-3.7,23.4-0.3,30.3,9.2c2.8,3.8,5.7,4.4,10,4.4c70.5,0.5,129.5,24.9,171.6,83.5c14.6,20.3,21.9,43.5,21.7,68.7
	c-0.2,30.7-14.1,54.1-39.2,71c-26.4,17.8-55.6,23.4-87,18.8C305.9,433.7,291.3,429.1,277,422.4z"/>
<path id="XMLID_24_" class="st0" d="M110,239.2c2.1,7.8,4.3,14.9,5.9,22.2c0.3,1.5-1.1,3.9-2.4,5.1C100.1,278,89,291.3,81.3,307.3
	c-23.4,48.5,8.2,101.9,61.9,105.8c34.8,2.5,65.4-8,94.4-25.9c26.8-16.6,48.9-37.6,64.1-65.6c1.6-3,1.8-4.9-0.5-7.9
	c-7.4-9.7-7.2-23.2-0.1-33c6.9-9.5,19.7-13.5,31.2-9.7c11.6,3.8,18.9,14,18.9,26.5c0,12.2-7.4,22.8-19.3,26
	c-4.9,1.3-6.8,4.3-8.9,8.2c-29.9,55.4-76.3,88.6-137.5,101.6c-29.6,6.3-58.5,4.3-85.9-9.7c-26.7-13.6-41.4-35.9-45.6-65
	c-6.3-43.5,10-78.7,41.6-107.7c3.7-3.4,7.6-6.4,11.5-9.6C107.8,240.7,108.8,240.1,110,239.2z"/>
</svg>
