<?xml version="1.0" encoding="utf-8"?>
<!-- Generator: Adobe Illustrator 19.0.0, SVG Export Plug-In . SVG Version: 6.00 Build 0)  -->
<svg version="1.1" id="Layer_1" xmlns="http://www.w3.org/2000/svg" xmlns:xlink="http://www.w3.org/1999/xlink" x="0px" y="0px"
	 viewBox="0 0 100 100" style="enable-background:new 0 0 100 100;" xml:space="preserve">
<style type="text/css">
	.st0{fill:#FFFFFF;}
</style>
<path class="st0" d="M45.4,56.5c0.5-0.1,0.8-0.2,1.1-0.3c1.4-0.2,2.2,0.8,1.9,2.2c-0.7,2.8-1.4,5.6-2,8.4c-0.2,1.1-0.3,2.3-0.4,3.4
	c0.1,0,0.2,0.1,0.3,0.1c0.2-0.3,0.4-0.5,0.6-0.8c3.2-7,6.6-13.8,9-21.2c0.1-0.4,0.5-0.9,0.8-1c1.3-0.2,2.6-0.4,3.9-0.3
	c1.2,0.1,1.4,0.6,1,1.7c-0.8,2.3-1.2,4.7-0.6,7.2C61.2,57,61.7,58,62,59c0.1,0,0.2,0,0.4,0c1.2-2.1,2.4-4.2,3.4-6.3
	c1-2.1,1.8-4.4,2.6-6.6c0.4-1.2,1-1.8,2.2-1.9c0.9-0.1,1.8-0.2,2.7-0.1c1.3,0.1,1.5,0.6,1.1,1.9c-0.8,2.3-1.2,4.6-0.6,6.9
	c0.4,1.4,1.1,2.8,1.7,4.2c0.1,0.2,0.8,0.2,1.1,0c3.8-1.6,7.7-2.1,11.7-1.1c4.2,1,7.4,3.2,8.8,7.6c1.1,3.6-0.4,7-3.6,8.3
	c-0.4,0.2-0.8,0.2-1.3,0.2c0-0.1-0.1-0.2-0.1-0.4c0.3-0.2,0.5-0.5,0.8-0.7c3.1-2.3,3.5-5.8,0.8-8.7c-1.8-2-4.1-2.9-6.6-3.4
	c-3.2-0.5-6.3-0.5-9.4,0.5c-0.6,0.2-1,0.4-0.7,1.2c1.5,4.4-0.4,7.3-4.2,9.5c-1,0.6-2.1,1-3.3,1.3c-1.9,0.5-3.3-0.8-3.1-2.9
	c0.3-2.6,1.6-4.6,3.2-6.5c0.5-0.6,1.2-1.2,1.7-1.8c0.2-0.2,0.3-0.7,0.3-1c-0.8-2.3-1.7-4.5-2.5-6.8c-0.1,0.1-0.2,0.4-0.4,0.6
	c-1.6,2.7-3.1,5.4-4.7,8.1c-0.3,0.6-0.4,1-0.2,1.7c0.3,1.1,0.7,2.3,0.7,3.5c0.2,2.5-0.9,4.5-2.9,6c-2,1.5-4.3,2.3-6.7,2.4
	c-0.2,0-0.4,0-0.6,0c-1.9-0.2-2.6-1.4-1.4-3c1.1-1.5,2.3-2.9,3.4-4.4c0.9-1.1,1.7-2.2,2.5-3.3c0.2-0.3,0.3-0.8,0.2-1.1
	c-0.9-2.5-1.9-4.9-2.8-7.3c0,0.1-0.2,0.3-0.3,0.6c-2.6,5.5-5.2,11-7.8,16.5c-0.5,1-1.2,1.9-2,2.6c-1.6,1.5-3.5,1-3.9-1.2
	c-0.4-1.7-0.4-3.5-0.5-5.1c-0.2,0.4-0.4,1-0.7,1.7c-0.7,1.5-1.3,2.9-2.1,4.4c-0.7,1.4-1.7,2.4-3.5,2.4c-1.7,0-2.6-1.2-3.3-2.5
	c-1.5-3-1.9-6.2-1.4-9.5c0.2-1.4,0.5-2.8,0.8-4.2c-0.2,0.1-0.4,0.1-0.6,0.2c-1.3,0.7-2.5,1.5-3.8,2.2c-0.6,0.3-0.7,0.7-0.5,1.4
	c2,6.7,0.7,12.6-4.3,17.4c-3.2,3.1-7,4.3-11.4,4c-4-0.3-5.2-3.3-5.4-6.1c-0.2-3,0.9-5.7,2.9-7.9c2.8-3.1,6.2-5.3,9.7-7.3
	c0.9-0.5,1.8-1,2.9-1.6c-0.5-0.5-0.9-0.8-1.3-1.2c-3.3-2.5-6.7-4.8-9.9-7.5c-1.9-1.6-3.5-3.5-5-5.4c-2.8-3.6-3-7.5-1-11.6
	c2.1-4.4,5.3-8,9-11c7.3-5.8,15.4-10,24.3-12.3c5.7-1.5,11.4-1.7,17,0.3c7.3,2.6,9.9,8.4,7.2,15.9c-2,5.4-5.6,9.4-10.4,12.1
	c-5.8,3.3-12.1,4.6-18.7,3.9c-2.2-0.3-4.2-1.1-5.9-2.6c-0.8-0.8-1.3-1.8-1.9-2.8c-0.1-0.2,0-0.5,0.1-0.7c0.1-0.1,0.5-0.1,0.6,0.1
	c3.8,3.8,8.3,3.5,13,2.5c6.1-1.3,11.5-4.1,15.6-9.1c1.5-1.8,2.7-3.9,3.2-6.3c0.7-3.5-0.6-6-3.9-7.3c-3.2-1.2-6.5-1.4-9.9-0.9
	c-10.9,1.6-20.2,6.6-28.4,14c-1.2,1.1-2.2,2.4-3.1,3.7c-3.3,5-2.9,9.9,1.2,14.2c1.6,1.6,3.4,3,5.2,4.5c1.9,1.7,3.8,3.3,5.7,5
	c0.4,0.4,0.7,0.5,1.3,0.2c2.8-1.6,5.5-3.1,8.3-4.7c0.4-0.2,0.7-0.6,1-0.9c1.5-1.8,3.2-3.4,5.3-4.4c0.5-0.3,1.1-0.5,1.6-0.6
	c2.2-0.5,3.8,0.7,3.9,3C45.5,54.5,45.4,55.4,45.4,56.5z M23.4,65.8c-0.2,0-0.3,0-0.4,0.1c-3.3,1.9-6.4,4-9,6.8
	c-1.4,1.4-2.2,3.2-2.5,5.2c-0.3,2.3,0.9,3.5,3.1,3.1c4.5-0.8,8.7-5.5,9.2-10.2C24,69.1,23.9,67.4,23.4,65.8z M35.1,67.6
	c0.2,1.2,0.4,2.3,0.7,3.5c0.2,0.8,0.8,0.8,1.3,0.2c0.4-0.6,0.8-1.2,1.1-1.9c1.4-3.8,2.8-7.7,4.2-11.6c0.2-0.7,0.4-1.4,0.5-2.1
	c0-0.4,0-1-0.3-1.2c-0.3-0.2-0.9-0.1-1.2,0.1c-0.8,0.5-1.6,1-2.1,1.8C36.8,59.6,35.3,63.3,35.1,67.6z M69.5,68.6
	c3.1-0.7,4.9-4.2,3.6-6.6C71.2,63.8,69.9,65.8,69.5,68.6z M56,71.7c2.1-0.1,4.7-3.2,4.5-5.3C59,68.2,57.6,69.9,56,71.7z"/>
</svg>
