<?xml version="1.0" encoding="utf-8"?>
<!-- Generator: Adobe Illustrator 19.0.0, SVG Export Plug-In . SVG Version: 6.00 Build 0)  -->
<svg version="1.1" xmlns="http://www.w3.org/2000/svg" xmlns:xlink="http://www.w3.org/1999/xlink" x="0px" y="0px"
	 viewBox="0 0 500 560" style="enable-background:new 0 0 500 560;" xml:space="preserve">
<style type="text/css">
	.st0{fill:#FFB301;}
	.st1{fill:#262C50;}
	.st2{fill:#FFFFFF;}
	.st3{fill:#A3874F;}
	.st4{stroke:#000000;stroke-miterlimit:10;}
	.st5{fill:#FFFFFF;stroke:#373F6B;stroke-miterlimit:10;}
	.st6{fill:#131629;}
	.st7{fill:#FFFFFF;stroke:#000000;stroke-miterlimit:10;}
	.st8{fill:#3A325E;}
	.st9{fill:#373F6B;}
</style>
<g id="Layer_2">
	<path id="XMLID_15_" class="st0" d="M105.9,246.2c4.5,22.5-39.4,32.1-55.5,71.6c-18.4,45.3,5.7,115,48.3,136.9
		c33.3,17.2,50.7-8.8,132.5-1.8c38.7,3.3,74.1,12.6,84.1,15.2c58.7,15.5,74,30.3,103.8,23.3c21.3-5,46.9-20.5,55.5-45.6
		c10.3-30.1-8.6-60.1-17-73.4c-31.8-50.4-77.5-51.5-78.8-78.8c-1-21.4,27-23.4,51-62.7c29.1-47.7,21.1-99.1,17.9-114.6
		c-5.2-25.2-12.9-63.1-43-73.4c-25-8.5-35.6,25.9-79.7,33.1c-44.6,7.3-62.3-21.5-92.2-7.2c-22.7,10.9-39.1,40.3-34.9,63.5
		c4.9,27.1,36.7,38.9,32.2,50.1c-3,7.4-19.5,8.9-32.2,7.2c-31-4.3-42.3-28.5-81.4-64.4c-26.7-24.6-61.7-56.7-80.6-47.4
		c-14.9,7.4-13.9,38-13.4,53.7c0.3,10,1.4,41.8,23.3,68.9C71.7,232.4,102.2,227.6,105.9,246.2z"/>
	<path id="XMLID_18_" class="st1" d="M393.8,391.4c-2.8,9.3-3.7,21.8,0.3,30.9c9.4,21.4,31.4,6.3,36.2-8.7
		c4.3-13.5,4.1-35.8-8.8-44.8C408,359.3,396.9,381.6,393.8,391.4z"/>
	<path id="XMLID_17_" class="st2" d="M426.4,118.4c-12.1-2.1-8.8-32-19.9-34.4c-12.3-2.7-37.4,29.3-32.2,49
		c2.6,10,10.8,8.4,25.7,25.5c13.7,15.7,12.4,23.3,21.4,26.5c15.7,5.4,39-11,38.6-20.5c-0.5-9.4-24.1-10.8-23.5-18.8
		c0.5-6.8,17.8-6.9,24.3-20.2c4.9-10.1,2.1-24.7-3.9-26.7C448.3,95.7,437.7,120.4,426.4,118.4z"/>
	<ellipse id="XMLID_19_" class="st3" cx="82" cy="379.2" rx="11.2" ry="15.6"/>
</g>
<g id="Layer_4">
	<g id="XMLID_7_">
		<path id="XMLID_12_" d="M373.9,232.5v27.7c0,5.4-6.5,9.8-14.4,9.8H138.3c-8,0-14.4-4.4-14.4-9.8v-27.7c0-2.2,1-4.2,3-6l110.6-97.9
			c5.8-5.1,17.1-5.1,22.9,0l110.6,97.9C372.8,228.2,373.9,230.3,373.9,232.5z"/>
	</g>
	<polygon id="XMLID_4_" class="st4" points="126.8,242.5 370.1,242.5 251.3,298.1 	"/>
	<path id="XMLID_5_" class="st5" d="M337.7,322.7H165.5c-2.7,0-4.9-2.2-4.9-4.9V104.9c0-2.7,2.2-4.9,4.9-4.9h172.1
		c2.7,0,4.9,2.2,4.9,4.9v212.9C342.6,320.5,340.4,322.7,337.7,322.7z"/>
	<path id="XMLID_6_" class="st0" d="M301.6,130H174.9c-1.6,0-3-1.4-3-3v-4.3c0-1.6,1.4-3,3-3h126.7c1.6,0,3,1.4,3,3v4.3
		C304.6,128.6,303.2,130,301.6,130z"/>
	<path id="XMLID_8_" class="st0" d="M282.7,144.6h-108c-1.5,0-2.8-1.2-2.8-2.8v-4.7c0-1.5,1.2-2.8,2.8-2.8h108
		c1.5,0,2.8,1.2,2.8,2.8v4.7C285.4,143.4,284.2,144.6,282.7,144.6z"/>
	<path id="XMLID_9_" class="st6" d="M282.7,160.5h-108c-1.5,0-2.8-1.2-2.8-2.8V153c0-1.5,1.2-2.8,2.8-2.8h108c1.5,0,2.8,1.2,2.8,2.8
		v4.7C285.4,159.2,284.2,160.5,282.7,160.5z"/>
	<path id="XMLID_10_" class="st6" d="M297.3,249.3H179.1c-3.3,0-5.9-2.7-5.9-5.9v-58.2c0-3.3,2.7-5.9,5.9-5.9h118.2
		c3.3,0,5.9,2.7,5.9,5.9v58.2C303.2,246.7,300.6,249.3,297.3,249.3z"/>
	<path id="XMLID_11_" class="st2" d="M293,244.3H183.5c-2.9,0-5.3-2.4-5.3-5.3v-49.5c0-2.9,2.4-5.3,5.3-5.3H293
		c2.9,0,5.3,2.4,5.3,5.3v49.5C298.2,242,295.8,244.3,293,244.3z"/>
	<circle id="XMLID_13_" class="st0" cx="201.4" cy="214.7" r="15"/>
	<path id="XMLID_14_" class="st0" d="M243.2,231.9l17.3-36c0.5-1.1,1.8-1.1,2.4,0l17.3,36c0.5,1.1-0.1,2.5-1.2,2.5h-34.7
		C243.3,234.3,242.6,233,243.2,231.9z"/>
	<path id="XMLID_3_" class="st7" d="M248.9,395.8l-1.1-95.2c5.1-2.2,5.1-5.7,0-7.9l-117.9-49.8c-1.8-0.8-6-0.4-6,0.5l0,152.3
		C123.9,396.7,247.1,396.5,248.9,395.8z"/>
	<path id="XMLID_2_" class="st7" d="M248.9,395.8l1.1-95.2c-5.1-2.2-5.1-5.7,0-7.9l117.9-49.8c1.8-0.8,6-0.4,6,0.5l0,152.3
		C373.9,396.7,250.7,396.5,248.9,395.8z"/>
	<path id="XMLID_1_" class="st7" d="M124.9,394.5l111.9-105c7.3-6.9,16.9-6.9,24.3,0l111.9,105c1.8,1.7,0.9,5.5-1.2,5.5H126.1
		C123.9,400,123.1,396.2,124.9,394.5z"/>
</g>
<g id="Layer_3">
	<path id="XMLID_16_" class="st8" d="M125.3,67.2c-33.2,21-37.2,23.7-36.7,27.7c1.2,9.6,26.9,17.9,48.3,12.5
		c3.1-0.8,28.4-7.5,34.9-29.5c3-10.3,2.6-26.1-5.4-30.4C161.1,44.6,149.1,52.1,125.3,67.2z"/>
	<path id="XMLID_20_" class="st9" d="M214.5,459.5c38.8-39,43.5-43.7,41.3-45.9c-5.1-5.2-43.8,9.3-71.8,29.1
		c-4,2.9-36.9,26.6-38.2,45.7c-0.6,8.9,5.6,18.7,18.2,15.3C172.5,501.5,186.6,487.5,214.5,459.5z"/>
</g>
</svg>
