<?xml version="1.0" encoding="utf-8"?>
<!-- Generator: Adobe Illustrator 19.0.0, SVG Export Plug-In . SVG Version: 6.00 Build 0)  -->
<svg version="1.1" id="Layer_1" xmlns="http://www.w3.org/2000/svg" xmlns:xlink="http://www.w3.org/1999/xlink" x="0px" y="0px"
	 viewBox="0 0 88.3 63.3" style="enable-background:new 0 0 88.3 63.3;" xml:space="preserve">
<style type="text/css">
	.st0{fill:#FFFFFF;}
</style>
<path class="st0" d="M49.3,22.1c0.1-0.4,0.2-0.6,0.3-0.9c0.7-2.1,1.6-4.1,2.8-5.9c1.5-2.3,3.5-4.3,5.9-5.8C60,8.4,62,7.7,64,7.3
	c1.2-0.2,2.3-0.3,3.5-0.4c3.1-0.1,6,0.6,8.7,1.9c2.1,1,3.9,2.3,5.5,4c7.1,7.4,6.7,19.8-0.8,26.9c-2.5,2.4-5.5,4-8.9,4.7
	c-1.1,0.2-2.2,0.4-3.3,0.4c-3.1,0.1-6.1-0.3-9-1.3c-1.6-0.6-3.1-1.3-4.6-2.1c-0.1,0-0.2-0.1-0.3-0.2c-0.1,0.3-0.1,0.6-0.2,0.8
	c-0.5,2.2-0.9,4.4-1.4,6.5c-0.6,2.7-1.2,5.5-1.7,8.2c-0.3,1.2-0.5,2.5-0.8,3.7c-0.1,0.5-0.1,0.5-0.6,0.5c-3,0-6,0-9,0
	c-0.1,0-0.2,0-0.3,0c0-0.1,0-0.2,0-0.4c0.5-2.3,1-4.6,1.5-6.9c0.6-2.8,1.2-5.6,1.8-8.5c0.6-2.6,1.1-5.2,1.7-7.8
	c0.3-1.2,0.5-2.4,0.8-3.6c0-0.2,0-0.4-0.1-0.6c-1.8-2.4-3.5-5-5-7.6c-0.5-1-1.1-2-1.6-2.9c0,0,0-0.1-0.1-0.2c0,0.6,0,1.2,0,1.7
	c0,0.6,0,1.3,0,1.9c0,2.7-0.5,5.4-1.6,7.9c-1,2.3-2.4,4.3-4.2,6c-1.9,1.7-4,3-6.4,3.9c-1.3,0.5-2.7,0.8-4.1,1
	c-1.1,0.1-2.2,0.2-3.2,0.1c-2.4-0.1-4.8-0.7-7-1.8c-2.2-1-4.2-2.5-5.8-4.3c-2.3-2.5-3.8-5.5-4.5-8.8c-0.2-0.9-0.3-1.8-0.3-2.7
	c0-2.5,0-5.1-0.1-7.6c0-4,0-8.1-0.1-12.1c0-1.9,0-3.7-0.1-5.6c0-0.1,0-0.2,0-0.2c0-0.1,0.1-0.2,0.2-0.2c0.1,0,0.2,0,0.2,0
	c2.9,0,5.8,0,8.7,0c0.5,0,0.5,0,0.5,0.5c0,3,0,6.1,0,9.1c0,3.8,0,7.5,0.1,11.3c0,1.5,0,2.9,0.1,4.4c0,1.5,0.5,2.9,1.3,4.2
	c1.4,2.2,3.4,3.5,5.9,4c2.8,0.5,5.3-0.1,7.4-1.9c1.7-1.4,2.8-3.2,3.1-5.4c0.1-0.5,0.1-1,0.1-1.4c0-3.1,0-6.2,0-9.3
	c0-3.7,0-7.4-0.1-11.1c0-1.3,0-2.6,0-4c0-0.5,0-0.5,0.5-0.5c2.7,0,5.5,0,8.2,0c0.2,0,0.4,0,0.7,0c0.2,0,0.3,0,0.3,0.2
	c0.2,0.5,0.3,0.9,0.4,1.4c1,2.9,2.1,5.7,3.4,8.5c1.5,3.2,3.2,6.3,5.1,9.3C48.9,21.6,49.1,21.8,49.3,22.1z M68.1,35.2
	c0.8,0,1.9-0.2,3-0.6c3.3-1.3,5.3-3.7,6.2-7c0.2-0.9,0.3-1.8,0.2-2.7c-0.1-1.4-0.5-2.7-1.3-3.9c-1-1.7-2.5-3-4.3-3.8
	c-1.7-0.7-3.4-1-5.2-0.7c-1.2,0.2-2.3,0.5-3.4,1.2c-1.3,0.8-2.2,1.9-3,3.1c-1,1.6-1.6,3.4-2,5.3c-0.1,0.6-0.2,1.1-0.3,1.7
	c-0.2,1-0.5,2-0.8,3c-0.1,0.2,0,0.3,0.2,0.4c1.5,1.2,3.1,2.1,4.8,2.8C64,34.8,65.8,35.2,68.1,35.2z"/>
</svg>
