<?xml version="1.0" encoding="utf-8"?>
<!-- Generator: Adobe Illustrator 19.0.0, SVG Export Plug-In . SVG Version: 6.00 Build 0)  -->
<svg version="1.1" id="Layer_1" xmlns="http://www.w3.org/2000/svg" xmlns:xlink="http://www.w3.org/1999/xlink" x="0px" y="0px"
	 viewBox="0 0 279.2 204.7" style="enable-background:new 0 0 279.2 204.7;" xml:space="preserve">
<style type="text/css">
	.st0{fill:#FEFEFE;}
</style>
<path id="XMLID_52_" class="st0" d="M69.2,135c2.1-1.1,2.3-3.5,3-5.4C81,106.7,89.7,83.8,98.4,61c5.2-13.6,12.3-26.1,22.9-36.3
	c11.4-10.9,25.1-16.2,40.6-17.3c3-0.2,4.1,0.8,4.5,3.8c5,40,10.1,80.1,15.2,120.1c0.2,1.6,0,3.4,1.6,5c5.5-17.5,10.9-34.8,16.4-52
	c3.4-10.7,6.2-21.7,11.1-31.8c9.9-20.4,23.9-36.3,46.6-42.6c4.7-1.3,9.5-1.7,14.3-2.4c3.7-0.5,4.8,0.3,3.2,4.2
	c-6.3,15.2-12.3,30.5-18.4,45.8c-11.3,28.2-22.6,56.4-33.9,84.6c-5.8,14.5-13.5,27.8-25.4,38.2c-12.4,10.9-27,16.3-43.4,17.1
	c-3.7,0.2-4.8-0.9-5.3-4.6c-5.1-37.3-10.5-74.6-15.8-111.9c-0.1-0.6-0.2-1.2-0.6-3c-3.1,8.1-5.8,15.1-8.5,22.1
	c-5.4,14.1-10.7,28.3-16.2,42.3c-6.3,16-15,30.4-28.8,41.1c-11.2,8.6-23.9,13-38,13.8c-3.4,0.2-4.9-0.4-5.5-4.3
	C25.4,132.6,15.6,72.2,5.7,11.8C5.1,8.6,5.5,7.4,9.3,7.7c29.9,2.8,53.5,27.1,55.3,57.4c1.4,22.5,2.5,45,3.8,67.5
	C68.5,133.4,68.1,134.3,69.2,135z"/>
</svg>
