<?xml version="1.0" encoding="utf-8"?>
<!-- Generator: Adobe Illustrator 19.0.0, SVG Export Plug-In . SVG Version: 6.00 Build 0)  -->
<svg version="1.1" id="Layer_1" xmlns="http://www.w3.org/2000/svg" xmlns:xlink="http://www.w3.org/1999/xlink" x="0px" y="0px"
	 viewBox="0 0 150 150" style="enable-background:new 0 0 150 150;" xml:space="preserve">
<style type="text/css">
	.st0{opacity:0.4;fill:url(#XMLID_2_);}
	.st1{fill:#FFFFFF;}
	.st2{fill:#E8E8E8;}
</style>
<g id="XMLID_347_">
	
		<radialGradient id="XMLID_2_" cx="-169.8733" cy="67.202" r="275" gradientTransform="matrix(0.2727 0 0 0.2727 121.3291 56.6722)" gradientUnits="userSpaceOnUse">
		<stop  offset="0.1344" style="stop-color:#FFFFFF"/>
		<stop  offset="0.4839" style="stop-color:#FFFFFF;stop-opacity:0.6"/>
		<stop  offset="0.6613" style="stop-color:#FFFFFF;stop-opacity:0.3"/>
		<stop  offset="0.9839" style="stop-color:#FFFFFF;stop-opacity:0"/>
	</radialGradient>
	<circle id="XMLID_10_" class="st0" cx="75" cy="75" r="75"/>
	<circle id="XMLID_18_" class="st1" cx="75" cy="75.1" r="30.5"/>
	<path id="XMLID_7_" class="st2" d="M49.5,86.2c0.6-2.5,3.7-5,6.2-4.8c0.8,0.1,1.7,0.7,3.5,1.9c2.4,1.6,3.7,2.4,4.3,3.9
		c0.3,0.8,0,0.8,0.3,3.2c0.3,2.2,0.4,3.4,1,4.8c0.9,2.2,1.9,2.4,2.4,4.5c0.2,0.8,0.6,2.4,0,3C65.1,104.5,47.7,93.4,49.5,86.2z"/>
	<path id="XMLID_6_" class="st2" d="M47.1,74.7c0.4,1,0.6,1,0.6,1.4c0,0.7-0.6,1-0.4,1.3c0.1,0.2,0.3,0.2,0.7,0.3
		c0.5,0.1,1,0.2,1.4,0c0.5-0.2,0.7-0.6,0.9-1.1c0.1-0.3,0.8-1.7,0.2-2.9c-0.3-0.6-0.8-0.7-0.8-1.2c0-0.6,0.8-0.8,0.7-1.4
		c0-0.4-0.4-0.9-0.9-1c-0.4-0.1-0.8,0.2-1,0.3c-0.6,0.4-0.4,0.9-1.1,1.6c-0.5,0.5-0.7,0.4-0.8,0.8C46.5,73.3,46.7,73.7,47.1,74.7z"
		/>
	<path id="XMLID_5_" class="st2" d="M84.2,103c2.7-0.2,6-1.9,7.5-4.2c0.9-1.4,0.4-1.8,1.3-3c1-1.4,2-1.3,3.3-2.8
		c0.6-0.7,0.8-1.1,1.4-2.4c2-4,2.3-3.7,3.3-5.9c0.5-1.3,1.4-3.2,1.7-5.9c0.1-0.5,0.3-2.8-0.3-5.7c-0.3-1.4-0.7-2.4-1.3-3.4
		c-0.5-0.7-1.2-1.7-2.3-1.7c-0.7,0-1.5,0.6-1.5,1.2c0,0.3,0.1,0.5,0.8,1.3c0.5,0.6,1,1.2,1.3,1.8c0.4,0.7,0.6,1.6,0.9,2.4
		c0.4,1,0.3,1.9-0.6,2.7c-1.3,1.2-3.1-0.5-4.8,0.5c-1,0.6-1.5,2-1.4,3.1c0.1,0.6,0.3,0.6,0.6,1.7c0.3,1.1,0.3,1.9,0.3,2.3
		c0,1.2,0,2.1-0.6,2.7C93.1,88.1,92.4,88,91,88c-1.6,0-3,0-4.5-0.5c-0.3-0.1-0.8-0.2-1.2,0c-0.6,0.3-0.7,1-0.7,1.2
		c-0.1,0.8,0.2,1,0.4,2.1c0.3,1.4-0.3,1.6,0,2.6c0.3,0.9,0.7,1,0.8,1.9c0,0.3,0.1,0.8-0.2,1.3c-0.4,0.7-1.1,1-1.6,1.2
		c-0.5,0.2-0.8,0.2-1.8,0.3c-1.4,0.1-2.2,0.1-3.2,0c-0.6,0-1.6-0.1-2.8-0.5c-0.4-0.1-1.7-0.5-3.2-1.4c-1.2-0.7-1.8-1.1-2.5-1.9
		c-1-1.2-0.8-2-1.7-2.5c-0.8-0.5-2.1-0.5-2.6,0.2c-0.4,0.5-0.3,1.4-0.2,1.8c0.1,0.7,0.5,1.3,0.8,1.9c0.4,0.8,0.8,1.7,1.1,2.5
		c0.2,0.5,0.3,1.1,0.7,1.5c0.6,0.6,1.5,0.8,2.3,1c2.6,0.7,5.3,0.9,7.9,1.4c1.6,0.3,3.1,0.8,4.7,0.8C83.9,103,84,103,84.2,103z"/>
	<path id="XMLID_306_" class="st2" d="M67.7,51c-2.5,2.4-3.8,3.7-3.9,5.7c-0.1,1.2,0.4,1.6,2.9,6.4c2.3,4.3,2.4,4.9,3.4,5.4
		c2.3,1.2,6,0.5,7.5-1.6c1.7-2.3-0.2-5.2,1.6-6.7c1.4-1.1,3.1,0.1,4.2-1.1c1.1-1.2,0.8-3.8-0.5-4.9c-1.5-1.3-3.7,0.3-4.9-1
		c-0.9-1,0.1-2.2-0.8-3.8c-0.8-1.3-2.5-1.9-3.8-2C71.4,47.3,69.9,48.8,67.7,51z"/>
</g>
</svg>
