<?xml version="1.0" encoding="utf-8"?>
<!-- Generator: Adobe Illustrator 19.0.0, SVG Export Plug-In . SVG Version: 6.00 Build 0)  -->
<svg version="1.1" id="Layer_1" xmlns="http://www.w3.org/2000/svg" xmlns:xlink="http://www.w3.org/1999/xlink" x="0px" y="0px"
	 viewBox="720 -81 2000 722" style="enable-background:new 720 -81 2000 722;" xml:space="preserve">
<style type="text/css">
	.st0{fill:#131629;}
	.st1{fill:#141D59;}
	.st2{fill:#553596;}
	.st3{fill:#141414;}
	.st4{fill:#9A5CA4;}
	.st5{fill:#322E6F;}
</style>
<polyline id="XMLID_453_" class="st0" points="2197.5,274.2 2286.5,258.2 2534.3,234.8 2410.1,368 "/>
<path id="XMLID_270_" class="st1" d="M2263,262.2c2.3-9,6.8-17.2,9.8-26c2.7-7.8,5.4-15.7,8.2-23.5c0.5-1.4-0.1-3.8,2.9-3.6
	c3.5,0.3,6.9,1.2,9.8,3c5.9,3.7,12.4,4.4,19.4,4.8c29.2,1.6,58.5,2.1,87.6,4.3c8,0.6,16.1,0.9,24.1,1.1c14,0.3,28,1.8,42,1.7
	c3.5,0,5.9-0.4,6.9-4.1c1.3-4.5,4.8-4.9,8.8-3.3c2.9,1.1,5.4,2.9,7.8,4.7c1.3,1,2.7,1.8,4.1,2.6c3.6,2,8.6,4.4,11.4,2
	c3-2.6-1.7-6-3.2-8.9c-1.1-2.1-2.9-3.8-3.7-6.1c-1.8-5,0.5-7.4,6-6.4c12.6,2.3,23.6,7.9,34.3,14.1c13.7,7.9,25.1,18.1,35.6,29.3
	c4.2,4.1,9,7.7,9.8,13.9c1.2,7.2,7.8,11.9,9.8,18.7c0.3,1.2,1.9,1.3,3.1,1.5c0.8,0.2,1.5,0.7,2.1,1.2c0.4,0.4,0.6,0.8,0.7,1.3
	c0.1,0.3,0,0.7-0.2,1c0.2-0.2,0.3-0.5,0.3-1c-0.1-0.8-0.7-1.2-1.2-1.8c-1.8-4.3-3.7-8.5-5.6-12.7c-0.5-1.2-0.8-2.4-1.5-3.6
	c-1.5-3.1-3.7-6-3.5-9.6c1-2.2-0.6-4.7,0.9-6.9c0.4-0.4,1-0.7,1.6-0.8c3.9,0.5,5.3,3.3,6.6,6.2c3.5,8,7.5,15.8,10.5,25.3
	c3.7-6.8,5.8-11.7,1.4-18.1c-4.7-6.9-8-14.6-11.9-21.9c-0.5-3.1-2.8-5.5-4-8.3c-1.3-3-2.8-6-1.4-9.3c5.4-7,5-10.1-2.2-15.2
	c-1.7-1.2-3.8-2.5-2.5-4.6c1.4-2.4,3.9-2.4,6.3-1.1c-0.1-0.1,0.2,0.1,0.2,0.1s-0.1-0.2-0.1-0.3c1.5-4.6,0.1-8.1-3.8-11.2
	c-1.8-1.5-2.3-3.8-1.3-5.9c1.5-3.2,1.5-6.9,2.8-10c1.6-4-0.2-6.1-3-8.2c-0.6-1.7,0.2-2.7,1.7-3.5c4.7-4.7,7.1-10.7,9.1-16.5
	c2.4-7.2,6.1-12.8,13.2-16.3c6.1-0.3,11.6,1,16.3,4.7c5.6,2.8,7.4,7.7,7,13.2c-0.4,6.3,3.3,11.5,4.9,17.2c0.9,3,5.2,2.9,7.3,5.1
	c0.3,0.2,0.5,0.5,0.9,0.7c-0.3-0.2-0.5-0.5-0.8-0.7c-1.8-3.3-0.8-5.7,2.8-6.8c5.4-1.7,10.5,0.1,11.9,4.3c0.8,2.5,0.7,5.4,4.7,5.9
	c1-2.6-0.7-4.4-1.5-6.5c-1.4-3.8-3-8,2.3-10.6c1.7-0.8,1.2-1.7,0.6-2.8c-0.9-1.5-2.1-2.9-2.6-4.6c-0.6-2.2-0.6-4.4,1.5-5.8
	c2.3-1.4,4.5-0.5,6.2,1.1c2.8,2.6,7.1,4.3,5.3,9.4c-0.6,1.7,1.2,3.1,2.9,4.1c3.2,1.8,4.3,4.4,1.9,7.3c-1.9,2.2-0.7,4,0,5.9
	c-1.1-3.6,0.4-5.9,4.3-6.3c2.6-0.3,4.6-0.5,6.1-3c1.3-2.2,3.8-2.8,6.5-2.3s4,2.5,3.8,4.7c-0.4,4,5.5,4.7,4.7,8.2
	c-0.1-1,0.6-2.9-0.5-3.7c-3.9-3-4.5-7-5.1-11.3c-0.5-3.5-2.9-3.5-5.1-1.1c-1.6,1.8-2.9,3.7-4.5,5.5c-1.8,2-4.1,2.6-5.9,1.1
	c-2.6-2.2-6.1-4.3-5.2-8.6c0.7-2.9,2.8-3.6,5.6-3.2c0.2-0.1,0.5-0.1,0.7-0.2c6.2-5.5,12.2-10.9,9-20.3c-1.4-4-0.3-7.8,5.1-8.9
	c0.6-0.1,1.7-0.1,1.6-0.2c-3.3-3.7,1.7-9-2.9-12.5c-3.6-2.7-5.1-5.6-0.2-8.8c3-1.9,1-4.6,0-6.7c-4-8.5-6.7-17.5-12.1-25.5
	c-3.5-5.2-0.8-10.2,5.3-12.2c5.5,1,7.9,5.4,11.3,8.8c0.6,1.2,0.6,2.7,1.5,3.8c6.3,7,9.8,15.1,11.8,23.9c0,79.2,0,158.3,0.1,237.5
	c0,4-0.8,4.8-5.1,4.8c-45.8-0.2-91.7-0.1-137.5-0.1c-2.5-2.1-2.1-4.4-0.5-6.8c1.7-2.5,2.9-5.1,4.4-7.7c1.2-1.9,3.8-4,1.7-6.2
	c-2.3-2.4-5.4-4.3-9.3-3.3c-6.3,1.6-12,4.3-16.2,9c-2.9,3.3-6.6,5.8-9.4,9.1c-1.5,1.7-3.6,2.9-6,1.8c-2.6-1.2-1.8-3.4-1.4-5.6
	c1.4-8,6.1-15.2,6.1-23.6c0-2.8,0.5-5.7,0.4-8.6c-0.1-1.2-0.7-2.6,0-3.4c6-6.6,2.3-12.8-0.4-19.2c-0.7-1.7-0.9-3.6-2.8-4.2
	c-5.8-1.8-9.9-5.5-13.1-10.3c-0.3-0.4-1.1-0.5-1.6-0.8c-5.9-4-8.1-10.9-13.6-15.2c4.3,4.9,8.4,9.9,12.7,14.8c0.5,0.3,1,0.5,1.5,0.8
	c0.8,0.3,1.6,0.7,2,1.5c0.4,0.7,0.2,1.6,0.8,2.2c6.1,6.1,6.1,6.1,0.1,11.8c-2.9,2.8-5,6-6,9.9c-1.8,6.9-3.9,8-11.3,6.9
	c-2.7-0.4-7.4,3-7.8,5.9c-0.5,3.5,2.1,4.1,5,4.6c5.7,1,7.4,4.9,7.9,9.7c0.6,6.6-2,13-0.8,19.6c0.5,2.7-2.2,4.2-4.9,5.2
	c-4.2,1.6-8.2,1-10.8-1.8c-4-4.3-11.5-7.1-9.1-15c0.3-1.1-1-2.1-1.9-2.8c-1.2-1.1-2.9-2.2-2.9-3.6c-0.3-7.3-6.5-12.4-8.1-19.2
	c-0.4-1.7-1.3-2.8-2.9-3.4c-4.5-1.9-6.1-5-4.5-9.4c0.7-2.1,0.1-4.2,0.3-6.3c-1.1-6.5-2-13-1.9-19.6c0.1-7.1-0.8-7.8-8.1-7.3
	c-21.7,1.6-43.3,4.4-65,6.4c-4.9,0.5-9.9,0.3-14.6,1.8c9.3,1.3,18.8,0,28.2,1.5c16.2,2.7,32.4,5.7,47.8,11.1
	c3.5,1.2,7.8,1.7,9.4,5.8c0.2,0.8,37.3,14.4,36.9,15c-6.2,8.4-28.8,60.3-31.1,63c-36.3,0-119-14.2-155.4-14.2
	c-2.5-3.7,0.4-5.7,2.9-7.7c3.7-3.1,8.9-3.7,13.6-5.9c-11.5-5.3-23.5-6.4-35.1-8.5c-15.4-2.8-30.4-6.7-45.8-9.7
	c-27.5-5.3-54.8-11.1-82.1-17c-2.4-0.5-4.9-0.9-6-3.5c1.7-4.9,5.8-6.5,10.7-6.9c4.3-0.4,8.5-1,12.8-1.4c13.6,0.2,27,2.1,40.5,3.1
	c16.6,1.2,33.2,3.4,49.7,5.1c19.2,2.1,38.6,2.8,57.7,5.7c8.9,1.3,16.8,0.5,25.1-3.2c10.4-4.7,20.8-3.5,33.5,1.6
	c-8.7-6.2-17.2-12.4-25-19.6c-3-2.7-5.4-5.8-8.5-8.4c-3-2.5-6.1-3.6-10.1-3.2c-17.4,1.7-34.7,4.2-52.2,4.5
	c-3.8,0.1-7.1,2.1-10.8,2.2c-7.6-0.4-15.3-1-22.3,2.9C2267.2,264.9,2264.4,265.1,2263,262.2z"/>
<path id="XMLID_252_" class="st2" d="M2168.8,282.4c14.6,1.1,28.5,5.8,42.8,8.5c25.6,4.8,51.1,10.4,76.6,15.7
	c17.2,3.6,34.5,7.1,51.7,10.7c2.1,0.4,4.9,0.6,4.9,3.5c0,3.3-3,3-5.3,3.6c-7.2,1.7,296.9,48.9,293.5,56.4c-10.3,0-44.3,3.9-54.7,3.9
	c-0.9-0.9-80.4,7.3-81.6,7.4c-8.7,0.2-45.7,27.9-52.3,26.3c2.7,0.3-178-60-173.9-59.1c1.4,0.3-12.2-5.4-12.9-3.6l-66.5-21
	c-10.4-2.3-21.2-1.9-31.7-4.1c-34.4-7-68.9-13.5-103.5-20c-3.4-0.6-6.8-1.6-10.1-3c-2-0.9-3.5-2.2-2.3-5c15.2-2,30.2-6.9,45.9-3
	c1.3,0.3,2.8-0.1,4.2-0.1c1.3,0.4,3-0.2,3.2-0.9c0.8-3.4,3.7-3.1,6.3-3.6c4.2,0.1,8.6-0.5,12.7,0.9c5,1.6,10.2,0.8,15.4,1
	c0.6-0.2,1.2-0.3,1.7-0.5c8.9-1.6,17.6,0.4,26.4,1.2c15.3,1.4,30.4,4.1,46.3,6.1c0.1,0-0.8,1.1-0.6,0.4c0.1-0.4-0.2-0.6-0.7-0.7
	c-18.9-2.4-37.8-4.8-56.5-8.1c-5-0.9-5.2-1-7.7-4.6c1-2.1,4.2,0.2,5.1-2.3c4.8-0.8,9.6-1.7,14.4-2.2
	C2163.3,286,2166.4,284.9,2168.8,282.4z"/>
<path id="XMLID_251_" class="st3" d="M2043.7,302.6c1.2,3,4.2,2.9,6.7,3.4c32.7,6.5,65.4,12.9,98.1,19.3c12.1,2.4,24.3,4.6,36.4,7
	c2.2,0.4,533.7,163.4,535.5,164.9c7.1,9.9,84.5,141.1-0.4,150.8c-198.8,22.6-679.4,0-721.6,0c5.8-8.3,26.1-327.7,33.1-335
	C2035.2,309.2,2038.4,304.8,2043.7,302.6z"/>
<path id="XMLID_250_" class="st1" d="M2363.2,50.6c5.5,4.9,12.8,3.8,19.3,4.3c7.9,0.6,15.3,2,22.6,4.9c9.7,3.8,20.1,3.4,30.4,3.6
	c9,0.2,18.1-0.2,27,1.2c6.7-0.5,11.9,2.3,16.6,6.3c11.9,9.9,18.3,20.3,12.5,36.4c-1.3,3.7-2.3,7.5-4.2,10.9
	c-2.7,5.2-2.8,10.4-0.5,15.8c4.6,7,10.2,13.5,14.7,20.7c1.8,2.9,4.8,2.5,7.6,2.6c15.2,0.8,30.3,1.4,45.5,1.4
	c1.1,0.1,2.3,0.1,3.4,0.3c0.8,0.1,1.5,0.2,2.2,0.4c0.7,0,1.4,0,2.2-0.1c1.3-0.2,2.6-0.4,4-0.4c1.8,0,3.6,0,5.4,0
	c1.1,0,2.1,0.2,3.1,0.6c4.5,2,6.1,5.2,4.9,9.8c-0.8,3.1,1.6,6.5-0.7,9.5c-1.8,2.4-4.5,2.4-7.2,2.5c-15.2,0.4-30.4,1.7-45.6,1.3
	c-7.7-0.2-15.5,0.7-23,2c0.1,0.3,0.3,0.5,0.6,0.7c1.1,0.4,2.2,0.3,3.3,0.4c1.2,0,2.3,0,3.5-0.1c14.1,1.5,28.3,0,42.3,0.9
	c9.5,0.6,19.2-0.1,28.5,2.6c4.4,5,5.6,10.6,4.1,16.9c-2.3,2.4-5.1,2-8,1.4c-3.3-0.3-5.4-2.3-7.3-4.8c-3.8-4.9-6.8-4.7-10.1,0.3
	c-0.9,1.4-1.8,2.6-3.5,3c-14.6,1.9-29.2,1.2-43.7,0.3c-1.6-0.1-3.3-0.4-4.9-0.7c-7.8-1.1-7.6-1-10.1,6.1c-2.1,5.8-7.4,4.4-12,4
	c-4.5-2.1-3.4-5.8-2.6-9.1c0.6-2.8,1.8-5.5,3.6-8.9c-2,3.4-1.8,7-5.5,8.3c-6.9,1.7-13.9,1.1-20.9,0.4c-2.3-0.2-4.5-0.5-6.8-0.5
	c-4.2-0.1-6.6,1.6-7.2,5.6c-0.9,5.4-5.1,5.8-9.8,5.8c-4.5,0-8.4-0.9-9.1-5.8c-0.6-4.5-3.4-5.7-7.7-5.7c-7.2,0.1-14.4,0-21.7,0.1
	c-3,0-5.6,0.6-7,3.7c-3.7,8.3-5.2,8.9-15.5,7c-1-0.5-1.7-1.3-2.2-2.2c-0.4-0.9-0.5-1.9-0.2-2.8c8.2-7.6,9.6-16.5,6.4-26.6
	c-2.1-6.6-4.8-13.1-6.7-19.8c-0.9-3.4-0.8-7-0.9-10.3c-0.5-11.8-7.8-20.8-13-30.7c-1.3-2.5-2.3-4.8-2.6-7.5
	c1.5,10.1,10.7,17.1,12.4,27.1c-1.2,3.9-2.9,7.7-5.7,10.8c-4.7,5.5-5.5,12.3-8,18.6c-1.7,3.7-0.2,5.4,3.9,6.2c5,1,10.1,1.4,14.9,2.8
	c2,0.6,4.6,0.4,5.6,2.9c1.8,5.9,3.1,11.8-0.3,17.6c-4.7,2.8-9.9,2.2-15,1.5s-10.2-0.8-15.3-1.7c-4.7-0.8-7.6,0.9-9.4,5.4
	c-3.5,9-6.3,10.4-16.1,9.3c-6.1-0.7-8-4.7-4.2-9.3c3.4-4.2,7.9-7.3,12.8-9.7c4.6-0.9,6.3-4.1,6.8-7.9c1.5-10.7,3.3-21.3,7.7-31.3
	c2-4.6,1.7-9.7,0.8-14.3c-1.4-7.3-0.5-14.6-1.4-21.9c-0.3-2.6-1.3-4.2-3.5-5.6c-12.2-7.9-18.8-19.7-25.2-31.7
	c-1.3-2.5-1.2-5.2-1.3-8c-0.4-10.6,0.2-21.2-0.1-31.8c-0.2-6.8-2.9-11.9-8.4-15.9c-1.3-0.8-2.5-1.5-3.8-2.3c-0.9-0.2-0.9-1-1.3-1.6
	c-0.1-0.4-0.3-0.6-0.6-0.8c-3.4-5-8.1-8.1-14.2-9.4c-7.4-1.6-10-5.6-7.9-11.7c2.2-6.4,7.9-9.3,14.5-6.6c8.2,3.3,16.5,6,25.6,6
	c3.4,0,6.1,2.2,8.9,3.8c1.7,1,3.5,2.8,5.5,1c1.7-1.4,0.4-3.3-0.3-4.9c-5-10.3-5.6-21-2.8-31.8c0.7-2.7,0.9-7.6,4.7-6.8
	c2.9,0.6,1,5.1,0.6,7.9c-0.8,5.8-1.1,11.6-0.3,17.4c0.6,4.6,3.1,8,8,9.4c5,1.5,8.8-0.6,11.8-4.3c3.7-4.5,5.4-10,7.4-15.3
	c1.5-3.8,3.2-7.6,5-11.2c0.7-1.3,1.8-3,3.8-2.2c1.6,0.6,1.1,2.4,0.9,3.6c-1,7.8-4.3,14.9-6.7,22.3c-3.2,9.7-1.3,12,9.7,12
	c10.2,0,17.6-3.7,23.1-11.9c7.2-10.9,10.6-22.2,7.1-34.8c1.1-2.7-1-7.8,2.4-8c4.2-0.2,2.2,5.2,3.7,7.8c0.2,0.3,0.2,0.7,0.3,1.1
	c4.6,4.7,4.6,4.7,11.6,0.2c3.7-5,4-11.3,7.3-16.5c1-1.6,1.4-4.4,3.9-3.7c2.8,0.7,1.9,3.5,1.6,5.5c-0.8,5.2-3,10-5.4,14.7
	c-4.1,10.2-13.1,17.3-18.8,26.4c-2.3,3.7-4.4,7.4-6.5,11.2c-0.9,1.7-1.9,3.8-0.4,5.5s3.9,1.2,5.8,0.5c14.3-5.3,26.5-12.7,29.9-28.2
	c0.4-1.9,0.8-3.8,1.5-5.6c0.5-1.4,1.1-3.4,3.1-3c2.1,0.3,1.8,2.3,1.6,3.8c-0.4,5.1-2.3,9.8-4.4,14.5c-0.7,1.6-1.6,3.2-2.3,4.8
	c-0.8,1.8-1.5,3.7,0.7,5.3c1.9,1.4,3.7,0.4,5.1-0.5c7.9-5.1,14.9-10.9,19.7-18.9c1.4-2.4,2.5-6.9,5.6-5.6c3.1,1.3,1.1,5.5-0.1,8.3
	c-2.9,6.9-7.8,12.3-14.4,16.3c-23.7,14.4-49.5,21.6-78,19.3c-9.6-0.8-19.2-1.6-28.6-3.3c-1.6-0.3-3.3-0.4-4.9-0.3
	c-2,0.1-3.7,1-3.9,3c-0.3,2.5,2,2.6,3.7,3c4.4,1.2,9.5-0.8,13.3,3.4c2.1,2.3,3.9,4.5,3.4,7.7c-0.9,4.9-4.9,4.8-8.6,4.3
	c-4.6-0.6-4.6,1.2-3.1,4.2c2.2,4.5,6.4,7.5,9.4,11.4C2362,47.5,2363.6,48.5,2363.2,50.6z"/>
<path id="XMLID_246_" class="st4" d="M2333.6,199.5c-3.9,3.2-7.8,6.3-11.6,9.6c-1.4,1.2-2.6,2.8-1.9,4.6c0.8,1.8,2.9,1,4.4,1.1
	c9.6,0.6,9.6,0.6,12.7-7.7c3.2-8.4,3.2-8.4,12.8-7.2c9.4,1.2,18.8,2.3,28.3,2.2c3.3,4.7-1.3,6.5-3.8,9.1c-0.1,0.8-0.2,1.6-0.3,2.4
	c0.3,0.6,1.1,0.7,1.5,1.1c1.4,0.1,2.9,0.2,4.3,0.2c7.8,0.1,7.9,0.1,7.6-7.4c-0.1-3.3,0.9-4.4,4.5-4.4c11.3,0.2,22.7,0.2,34,0.3
	c3.4,0,5.6,0.4,4.4,4.6c-0.8,2.9-2.3,6.7,3.8,7c9,0.4,9.8,0.3,9.6-6c-0.1-4,1.2-5.5,5.6-5.3c10.9,0.4,21.8,0.3,32.8,0.3
	c2.1,1.2,1.4,3.1,1,4.6c-0.5,2.1-0.3,3.7,1.3,5.2c0.4,0,0.8,0.1,1.2,0.1c10.3,0.2,10.3,0.2,9.5-9.6c20.8,0,41.5,0,62.3,0
	c2.6,0.2,4,2.1,4.8,3.9c2.4,5.1,5.6,10,6.4,15.7c-0.4,2,0,3.9,1.7,5.3c0.5,0.2,1,0.5,1.4,0.8c0.7,0.5,1.2,1.1,1.7,1.9
	c0.8,2.3,2.6,4.4,2.1,7.1c-1.2,2.3,0.9,3.3,2,4.7c0.3,0.6,0.4,1.1,0.4,1.8c-0.1,2.6-1.5,4.1-4.1,4.6c-7.7-7.2-15.2-14.6-23.9-20.9
	c-13.9-10-29-18.2-45.9-23c-1.3-0.4-2.7-1.1-4.9-0.2c2.7,6.7,7.7,12,11.3,18.2c0.9,1.5,3,2.8,2.2,4.5c-1.1,2.2-3.7,0.9-5.6,0.9
	c-6.7-0.1-13-1.3-18.2-5.9c-2.5-2.2-5.8-3.7-8.7-5.5c-3.1-1.9-4.7-1-4.3,2.3c0.8,6.7-2.8,6.6-8.6,6.2c-26.7-1.7-53.5-2.7-80.3-4
	c-28-1.3-56-2.4-84-4.2c-7.5-0.5-13.3-5.6-19.4-9.6c13-6.5,27.2-9.7,40.9-14.2c0.5-0.3,1.1-0.6,1.7-0.9c0.6-0.2,1.3-0.2,1.9-0.1
	C2330.8,195.2,2335.8,194.5,2333.6,199.5z"/>
<path id="XMLID_149_" class="st5" d="M2660.1,40.4c16.5-2.9,26.4,6.6,35.7,17c-3.9,2.5-4.7,6.8-2.7,10.3c3,5.3,6.9,9.8,8.3,16.3
	c1.1,4.9,2.8,11.6,8.2,15.6c0.4,0.3,0.3,1.5-0.1,2.1c-0.7,1.2-1.8,2.2-3.5,1.8c-1.6-0.3-3.6-2.4-4.6,0.3c-0.8,2.3,2.1,2.4,3.3,3.5
	c3,2.4,5,4.6,2.7,8.9c-2,3.7,2.1,8.8-1.9,12.5c-2.6-1.1,0.4-3.7-1.7-5.1c-4,2.3-3.5,5.5-1.8,8.5c3.5,6-0.7,9.9-3.5,14.6
	c-2.3,3.6-6.7,5.6-7.9,9.9l-0.2,0.1c-2.2-0.2-2-2.8-3.9-3.6c-2.7,4.5,1.4,6.5,3.9,8.3c2,1.5,2.9-1.2,3.8-2.6
	c1.1-1.9,0.7-4.7,3.8-5.5c2.1-0.6,1.9-4.9,4.6-3.7c3,1.3,5,4.8,4.7,7.7c-0.8,6.6,4.3,10.7,6.7,15.8c1,2.1,2.2,4.3,0.3,5.7
	c-2.4,1.8-4.3-0.2-5.2-2.2c-1.7-3.6-2.6-8-8.7-6.3c-0.4,0.1-1.6-0.8-1.7-1.3c-0.2-1.2,0.9-1.6,2-1.6c1.5,0.1,3.1,0.3,2.6-1.9
	c-0.3-1.3-0.3-2.8-1.7-3.6c-1.6-0.8-3.7-0.5-4.5,0.8c-1.9,3.1-4.3,4.7-8.3,4.6c-2.7-0.1-3.8,2.2-2.1,4c3.1,3.2,0.4,5-1.2,8.9
	c-1.4-5.2-2.5-8.9-5.1-12.2c-2.7-3.3,2.8-3.8,3.5-6.3c-5.4-0.6-8.5-6-7.6-11c0.3-1.5-3-3.6-4.8-5.3c-0.7-0.7-1.9-1.2-2.6,0
	c-0.8,1.6,0.1,3,1,4.3c1.4,2.1,2.7,4.3,4,6.5c0.9,1.5,2.7,3.3,1.2,4.7c-2.3,2-2.5-1.3-3.9-2c-2.4-1.3-3.6,0-3.6,2.1
	c0,1.5,0.5,3.1,1.2,4.5c2,4.5,5,8.8-0.5,13.4c-3.1-1.7-5.9-4.2-7.1-7.7s-1.4-5.1-6.9-5c-6.4,0.1-3.8,3.1-4.3,5.4l-0.3,0.3
	c-9-0.9-9.8-2.4-12.9-9.6c-2.7-6.3-3.2-12.8-4.2-19.3c-0.4-2.4-1.7-4.3-3.8-5.7c-2.2-7.5-5.2-14.9-3.4-22.9
	c3.3-3.4,5.4-7.7,8.7-11.1c1.1-0.1,1.6-0.4,0.5-1.3c-0.8-1.5-0.9-3-0.4-4.6c0.2-0.5,0.5-1,0.8-1.5c3.5-3,3.3-7.2,2.6-10.8
	c-1.5-8.1,3.5-13.9,6.8-20.4c0.5-0.9,1.5-1.6,2.4-1.6c7.3-0.5,8.9-6.9,12.4-11C2661.9,48.8,2662.1,44.4,2660.1,40.4z"/>
<path id="XMLID_148_" class="st4" d="M2628,113.5c-1.4,5.8,0.9,11.3,1.6,16.9c0.3,2.3,1.8,4.9-1,6.8c-4.9-3.1-10.3-4.4-16.1-4.9
	c-3.5,0.7-6.8,1.9-10.1,3.1c-9.8,3.1-16.1,9.6-19.3,18.7c-2.6,7.5-2.4,7.6-10.2,7.6c-0.8,0-1.7,0-2.5-0.1c-1.2,0-2.5,0.1-3.7-0.1
	c-1.7,0-3.4-0.1-5-0.1l-0.6,0.1l-0.6-0.2c-0.9,0-1.7,0-2.6,0l-0.6,0.2l-0.6-0.2c-16.9-0.3-33.8-0.8-50.7-1c-4.1-0.1-6.8-0.1-8-5.3
	c-1-4.4-5.6-7.9-8.4-12c-2-2.9-3.6-6.1-5.4-9.1c1-1.9,2.5-3.1,4.8-3.4c2.3,0.1,4.5-0.4,6.7-1.2c1.6-0.2,3.3-0.2,4.9-0.2
	c6.3-0.3,12.6-0.7,18.3-3.7c0.9-0.3,1.9-0.4,2.9-0.4c4.7,1.1,9.3,0.7,13.6-1.5c3.4,0.1,6.8-1.1,10.2-1.1c4.7,0.2,9.4,0.5,13.4-2.5
	c0.9-0.3,1.8-0.4,2.7-0.2c2.2,0.2,4.2-0.4,6.2-1.2c0.9-0.2,1.9-0.1,2.8,0c4.6,0.3,8.7-1.3,12.8-3c1.9-0.3,3.8-0.1,5.7-0.5
	c1.2,0,2.4-0.2,3.6-0.5c1.5-0.2,3.1-0.3,4.6-0.1c5.3-0.1,10.4-0.6,14.7-3.9c1.3-0.5,2.5-0.6,3.9-0.3c3.3,1.9,7-0.5,10.4,0.9
	C2627.3,111.8,2627.8,112.5,2628,113.5z"/>
<path id="XMLID_147_" class="st5" d="M2291.5,258.8c6.8,3.5,14.4,2.4,21.7,3.5c10.9,1.7,22,2.6,32.9,4.3
	c-25.3-1.2-50.6-1.2-75.8-4.6C2277,258.9,2284.4,259.9,2291.5,258.8z"/>
<path id="XMLID_146_" class="st2" d="M2626.4,77.8c0.5-2.2,1.1-4.3,1.6-6.5c2-2.8,2.8-5.9,3.7-9c3.8-12.6,16.2-22.3,28.4-21.9
	c5,0.4,5.9,2.4,4.5,7c-1.9,6.4-6.3,11.1-10.5,15.9c-1.9,2.2-4.7,3.5-8.6,1.7c2.6,3.8,3.6,5.8-2.1,7.6c-3.5,1.1-3.1,6.9-2.9,10.9
	c0.3,5.1,1.2,10.3-4.4,13.7l0,0c0,1.9,0,3.8,0.1,5.8l-0.1,0.1c-1.9,4-3.4,8.3-8,10.4c-0.5-0.3-1.1-0.5-1.6-0.8
	c-1.2-0.9-0.9-1.9-0.2-2.9c-1.1-6.5-0.8-13.1-0.1-19.6c-2.2-2.3-1.7-4.6,0-6.9c0-0.8,0.1-1.7,0.1-2.5
	C2625.2,79.7,2625.2,78.7,2626.4,77.8z"/>
<path id="XMLID_145_" class="st4" d="M2384.4,167.1c7.4,0.1,14.2-2.8,21.3-3.8c10,6.8,20.8,11.6,33.1,13.2c2.2,0.3,6.5-0.8,5.4,3.4
	c-0.8,3-0.8,7.2-6.4,7.1c-12.3-0.4-24.7-0.3-37-0.9c-4.8-0.2-11.3,2-14.1-1.5c-2.5-3.2-1.5-8.9-2.1-13.4
	C2384.6,169.8,2384.5,168.4,2384.4,167.1z"/>
<path id="XMLID_140_" class="st4" d="M2417.4,145.1c8.2-3.1,17-3.9,25.6-5.3c4,2.2,7.3,5,10.3,8.2c2.3,2.5,2.1,5.4,0.8,8.2
	c-1.3,3.1-4.3,1.9-6.5,1.5C2436.7,155.4,2425.1,154.3,2417.4,145.1z"/>
<path id="XMLID_138_" class="st4" d="M2489.8,159.9c-0.8,0.1-1.6,0.3-2.4,0.4c-0.8,0.4-1.7,0.4-2.5-0.1c-5.2-0.2-10.3-0.6-15.5-0.5
	c-4.4,0.1-6.1-1.1-4.4-5.4c2.2-5.5,1.8-11-1-16.4c1-2.5,3.1-3,5.6-2.9c6.4,2.8,10.2,8,13.9,13.3l0.2,0.2
	C2488.8,151.5,2490.9,155.3,2489.8,159.9z"/>
<path id="XMLID_137_" class="st4" d="M2468.8,187.9c-3.5-0.1-7,0.1-10.4-0.4c-1.9-0.3-6,1.7-5.3-2.4c0.5-2.8,0.9-6.7,6.1-6.4
	c10.2,0.7,20.4,1.2,30.6,1.7c2.7,5.8,1.7,7.8-3.7,7.6c-1.2,0-2.5,0-3.7-0.1C2477.9,188.8,2473.3,189,2468.8,187.9z"/>
<path id="XMLID_128_" class="st4" d="M2353.5,172.3c6.4,0.4,12.4-1.9,18.6-2.3c2.1,4.8,4.1,9.5,6.2,14.3c-9.5,1.1-18.4-2.3-27.6-3.8
	c-1.9-0.3-2-1.6-1-3C2351,175.8,2352.2,174.1,2353.5,172.3z"/>
<path id="XMLID_127_" class="st5" d="M2483.5,148.4c-4.4-3.9-8.8-7.9-13.2-11.8c-6-2-11.2-4.8-13-11.1c7.7,0.6,11.8,6.5,17.1,10.5
	C2478.5,139,2483.1,142.5,2483.5,148.4z"/>
<polygon id="XMLID_272_" class="st3" points="2015.1,614.2 1112.5,537.2 720,456.6 720,648 2006.5,648 "/>
<path id="XMLID_282_" class="st3" d="M893.4,344.4c3.1-6.4,6.2-12.8,9.3-19.1c0.4-0.7,0.7-2,2.1-1.6c1.1,2.4,0.2,5,0.6,7.4
	c-0.1,1.9,1.2,3.5,1.2,5.4c-3,23.6-5.4,47.2-7.8,70.8c-0.4,3.9-3.6,7.8-0.6,11.9c3,0.6,4.6-2.1,7.2-2.4
	c10.8-7.7,22.5-13.9,35.7-16.5s26.6-3.6,39.1,3.2c6.1,3.3,7.2,6.7,3.8,12.5c-2.3,3.9-5.1,7.5-8.9,10.3c-8.1,5.9-15.7,12.6-25.1,16.8
	c-1.2,0.5-1.7,1.6-2.3,2.7c-2.3,2.1-3.6,4.5-2.5,7.7c0.6,1.7-0.2,3.4-0.5,5.1c-0.1,0.6-0.3,1.1-0.5,1.6c-0.3,0.5-0.7,0.8-1.2,1.1
	c-3.3,1.5-5.4,4.5-8.8,5.9c-0.9,0.6-1.8,1.3-2.6,2c-0.5,0.3-1,0.6-1.4,0.9c-2.9,0.6-5.3,2.3-7.4,4.1c-14.7,12.4-28.7,25.3-37.9,42.1
	c-3.3,5.9-7.2,11.6-10.2,17.7c-2.4,4.9-8.5,6.5-11.1,11.4c-1.8,3.4-4.9,6.2-6.8,9.6c-3,5.2-8.2,7.9-14.1,9.5c-23.1,0-46.3,0-69.4,0
	c-3.8-3.2-2.9-6.7,0-9.7c2.5-2.6,3.7-5.3,3.8-8.8c0.1-3.3,1.9-6.3,3.4-9.3c6.1-12.4,11.6-25.1,16.6-38c5-12.8,10-25.6,16.5-37.8
	c1.3-2.5,1.8-5.2,2.4-7.7c1.7-7.3,5.8-13.5,8.7-18.8c-0.4,6.3-8.2,8.6-12.3,13.7c-1.9,2.4-5.7,0.9-6.5-2.3c-1-3.9,0.6-6.8,4.4-8.6
	c0.5-0.3,0.8-0.8,0.7-1.4c0.5-5.8-0.2-11.3-2.7-16.8c-1.8-4,0.4-8.8-1.8-13c2.6-5.7,8.1-8.7,13-12.1c7.6-5.3,14.6-11.3,22.7-15.9
	c2.2-1.3,4.3-2.2,6.9-1.9c2.3,0.6,3.8-2.3,6.2-1.3c2.2,2.9,3.1,6.5,3.4,9.8c0.8,10.2,0.8,20.4,0,29.5c-0.6,1.9,0.3,1.9-0.5,1.7
	c0,0,0-0.2,0.1-0.5c6.2-15.5,12.9-30.8,21.1-45.5c2.7-4.8,6.8-9.2,7.6-14.9C887.7,350.6,891.2,347.9,893.4,344.4z"/>
<path id="XMLID_281_" class="st3" d="M1182.8,517.9c11-1,11.7,8.1,15.6,14.1c1.8,1.5,4.3,2.4,5.1,4.8c1.8,5.3,5.8,7.1,11.4,6.5
	c1.4,0,2.8,0,4.3,0.1c2.4-0.1,4.7,0.5,7,1c2.4,0.4,4.9,0.2,7.3,0.2c19.1,1.9,38.3,3.3,57.3,5.9c1.4,0.2,2.9-0.1,4.3-0.3
	c18.3,2.7,36.8,2.9,55.1,5.5c1.9,0.1,3.9-0.4,5.8,0.4c0.6,0.2,1.1,0.4,1.7,0.6c1.5,0.3,3.1,0.3,4.5,0.7c7.6,0.9,15.2,1.2,22.8,1.7
	c5.7,0.3,11.3,1.5,17,2c2.2,0.2,4.7,0.4,4.5,3.5c-181.3,0-362.6,0-544,0c-0.4-0.4-0.8-0.4-1.2,0c-1.2,0-2.5,0-3.7,0
	c-2.5-2.1-2-4.6-0.5-6.9c2.8-4.3,5-8.9,7.7-13.3c2.1-3.4,4.9-5.1,9.1-4.7c0.6,0.1,1.5,0.5,1.8,0.2c6.8-6.7,17.2-1,24.4-6.2
	c1.8-1.3,4.2-1.8,6.5-1.2c2.3,0.5,3.8-0.4,5.6-1.5c5.4-3.5,10.7-0.8,11.2,5.4c0.2,2.5-0.4,5-0.4,7.1c0.7,0.6,1.3,0.8,1.5,0.6
	c5.9-8.5,16.6-9.3,25-13.8c3.4-1.8,7.9-1.5,11.8-2.3c6.3-1.3,12.4-3.5,17.4-3.6c-6.2,0.6-13.6,3.2-21.4,4.2
	c-4.5,0.6-7.3-3.4-5.3-7.4c1.5-3,4.3-4.9,7.6-5.5c4.1-0.7,6.9-2.3,8.1-6.1c0.5-1.6,1.8-3.3,3.4-3c8.5,1.7,11.9-5.7,17.8-8.5
	c4.5-2.1,7.4-5.3,9.8-9.4c2.8-4.7,8.9-5.4,13.5-7.7c9.9-5,20.2-9.8,31.4-11.3c7.9-1,16.1-3.1,24,0.2c1.5,1.5,2,3.1,0.5,4.9
	c0,3.4,0,6.7,0,10.1c2,2,2.1,4.4,1.6,7c-1,5.1-2.1,10.2-4.4,14.9c-1.1,3.3-0.9,5.1,3.9,5.2c6.1,0.2,12,0.9,18.1-1
	c6-1.8,12.1,0.9,18.1,1.7c2.6,0.3,4.7,0.6,6.9-1c3.6-2.7,8.3-3.1,12.2-2.1c3.4,0.9,5.3-0.1,7.6-1.5c3.7-1,7.7,0.2,10,2
	c7.5,5.7,16.5,3.5,24.7,5.1C1172.3,516.2,1177.8,516.1,1182.8,517.9z"/>
<path id="XMLID_280_" class="st3" d="M740,564.5c-5.8,0-11.6-0.1-17.3,0.1c-2.2,0.1-2.9-0.4-2.5-2.4c0.2-0.9,0-1.9,0-2.9
	c0-72.4,0-144.8,0-217.1c1.9-5.8,4.6-11.1,10.1-14.8c2-1.4,4-2.7,6.6-2.7c3.2-0.7,6.4,0,9.6-1c3.7-1.1,6.9,3.5,6.3,8.5
	c-0.3,2.2-1.5,4-2.4,6c-0.7,1.5-2.6,2.9-0.2,4.5c1.5,1,2.6,3.1,4.6,2.5c2.2-0.6,2.6-2.8,2.6-4.8c0-0.6,0-1.2,0.2-1.7
	c0.8-3.6,3.2-5.6,7.1-4.9c4.1,0.8,5.2,3.8,3.9,7.2c-3.1,8,3.6,13.7,5.5,20.4c0.5,1.9,4.1,0.5,5.4,2.1c3.5,4.2,7.2,8.2,11.1,12.1
	c2.2,2.2-0.6,4.5-3.1,6.2c1.5,1.2,2.5,2.8,4.6,4c2.1-2.5,2.7-6.4,6.8-7c2.4-0.4,4.5,0.2,6.2,1.9c3.1,8.5,4.4,17.1,2.1,26
	c1.8,4,1.3,6.6-3.8,8.5c-8.5,3.3-13.4,10.7-19.3,16.8c-10.5,10.8-18.6,23.1-26,35.8c-9.8,16.8-16.7,34.8-18.3,53.9
	c-1,12-0.2,24.4,1.8,36.5C742,560.5,742.2,562.8,740,564.5z"/>
<path id="XMLID_279_" class="st3" d="M1066.9,470.2c-1.1,0.9-1.2,3.1-3.7,2.1c-4-1.6-8,0.1-11.8,0.1c-8.2,0-15.1,2.2-22.5,4.8
	c-7.7,2.7-14.6,6.8-22.3,9.5c-2,0.7-3.6,1.7-5.2,3c-3.3,2.8-4.3,4.8,1.4,6.7c-2.7,0.6-5.4,1.2-8.1,1.7c-1.9,0.3-3.9,0.8-4.5,2.6
	c-1.4,4.4-4.7,4.9-9,3.7c-0.2,2.8,3,5.9-0.7,7.6c-4,1.8-5.8-2.6-9.5-3.9c-1.1,6.2-4,10.5-11.4,10.4c-1.5,0-3.2,1.6-4.6,2.7
	c-1.1,0.9-2.1,2.1-1.4,3.6c0.8,1.7,2.4,1.9,4.2,1.8c6.3-0.4,11.8-4,18.2-4c3.8,0,7.6-0.7,13-1.2c-8.1,6.2-16.8,6.2-24.6,7.9
	c-9.1,2-17.6,5.6-26.3,8.5c-4.9,1.7-8.3,4.4-11.1,8.2c-1.2,1.7-3.2,3.7-5.6,2.7c-3-1.2-1.8-4-1.6-6.2c0.1-1.1,0.5-2.3,0.7-3.4
	c0.8-4.4-0.2-7.6-5.7-8c0.3,4.2-2.3,5.9-7.8,4.2c-2.7-0.8-4.7-1.4-6.2,1.4c-0.6,1.2-1.7,1.8-3,1.4c-3.7-1.1-5.4,0.8-6.6,3.6
	c-0.5,1-0.9,2.4-2.5,2c-1.3-0.3-1.2-1.4-1-2.4c0.3-1.8,0.4-3.8-1.9-4.3c-2.2-0.5-2.9,1.6-4.2,2.9c-2.4,2.5-4.7,6-9,1.9
	c-1.3-1.2-3-0.4-3.7,0.7c-4,7.1-9.4,13.6-11.5,21.6c-5,0-9.9,0-14.9,0c7.7-5.1,11.7-13.3,18.1-19.5c10.5-10.1,16.6-22.7,24-34.5
	c10.1-16,24-28.9,39-40.8c1.8-1.5,3.9-2.1,6.3-1.9c5.2-3.9,12-4.4,17.8-7.2c4.3-2.1,10.7-4.7,16.7-2.6c0-0.1,0.4,0.1,0.4,0.1
	c0-0.1,0.3,0,0.3-0.1c0.1-0.3,0.2-0.6,0.3-0.9c2.8-4.4,6.7-5.2,11-2.5c3.6,2.3,8.1,1.3,11.7,3.4c0.8,0.4,2.1-0.2,2.8-0.9
	c8.4-7.9,17.5-8.9,27.6-2.8c1.5,0.9,3.2,1.9,5.2,1.4c0.4-0.2,0.9-0.4,1.3-0.6c2.1-1.3,4.4-1.8,6.7-0.7c0.2,0,0.4,0.1,0.6,0.1
	c1.2-0.2,2.1-1,3.4-1.2c4.2-0.2,8,1.4,11.7,2.9c4.6,1.9,9.2,4.1,13.8,6.1C1064.5,463.8,1068.9,465.2,1066.9,470.2z"/>
<path id="XMLID_278_" class="st3" d="M740,564.5c-3.2-14-3.8-28.4-3.2-42.5c0.6-14.2,5.4-28,11.4-41.3c8.6-19.1,20.8-36.2,34.8-52.1
	c5.7-6.5,12.8-11.8,19.1-17.8c1.5-1.4,6.8,2.1,4.7-3.4c-0.3-1.3,0.3-1.6,1.4-0.9c1.4,3,2.7,5.8,1.9,9.3c-0.8,3.4,3.6,5.1,3.9,9.1
	c0.3,4.5-0.4,8.5-0.9,12.8l0,0c-2.4,1.9-4.8,3.8-4.8,7c0,1.2,0.1,2.5,1.7,2.6c1.2,0.1,1.7-1,1.7-2c0.1-2.8,1.7-4,4.6-4.5
	c3-0.5,3.9-3.1,5.3-5.2c2.1-2.9,2.5-7,6.7-8.8c0.7,9.1-6.4,15.7-8.1,23.8c-2.8,13.4-11,24.8-15.6,37.6c-6.3,18-14.2,35.4-22.9,52.5
	c-3,5.9,0.8,14.3-7.9,18.2c-0.9,0.4-0.4,3.6-0.5,5.6C762.3,564.5,751.1,564.5,740,564.5z"/>
<path id="XMLID_277_" class="st3" d="M931.9,335.3c0.5,0,1,0,1.5,0c1.6,0.1,3.5-1,4.7,1c2.4,6.2,1,12.1-1.3,18
	c-5,12.6-9.8,25.2-14.5,37.9c-1.1,3-2.3,6.5-5.6,7.2c-7,1.4-7.8,6.6-9.2,11.4c-0.9,2.9-2.5,5.8-1.8,9c-2.2,1.4-4.6,1.7-7.1,1.3
	c1.3-4.4,2.6-8.8,4-13.3c1.5-4.8,3.1-9.1,1.6-14.8c-1.7-6.7,3.1-13.2,5.8-19.6c4.5-1.5,6.4-5.1,8.5-8.9c4.4-8,8.3-16.1,9.6-25.2
	C928.3,337.4,930,336.2,931.9,335.3z"/>
<path id="XMLID_276_" class="st3" d="M736.7,326.5c12.3-8.8,33.9-6.9,45.2,4.1c5.7,5.5,9.9,11.8,12.9,18.8
	c4.3,10.1,7.3,20.4,8.2,31.3c-3.5,0.1-7.4-0.7-6,5.1c0.6,2.6-5.2,1.9-3.7,5.8c-4.9-2.4-5-7.7-10-9.4c2.1-1.7,4.1-3.3,6-4.9
	c-3.7-3.6-10.5-4.5-10-11.3c0.1-1.1-1.9-1.5-3.1-1.1c-3.6,1.1-5.4-1.8-6.3-3.5c-2.1-4.3-2.9-9.1-6-13.2c-1.7-2.3,0.6-5.5,2.1-8.1
	c0.9-1.5,1.1-3-0.6-4.1c-1.7-1-3.2-0.3-4.5,0.7c-2,1.6-0.9,2.4,0.8,3.4c2,1.2,0.5,2.3-0.6,3.1c-2.4,1.8-5.4,3.4,0.4,6.5
	c-7.7,0.6-11.5-3.8-16.2-5.8c-1.8-0.8-2-4.9-0.2-5.7c7-3.2,4.6-8,3.2-13.5C744.8,329.2,740.5,325.7,736.7,326.5z"/>
<path id="XMLID_275_" class="st3" d="M1004.6,454c-1.6-0.1-3.4,0.6-4.8-0.9c8.6-6.3,17.1-12.6,25.7-18.8c2.9-2.1,4.3-3.8,1.8-7.5
	c-2.2-3.3-2.9-7.5-4.3-11.4c-1-0.9-1.8-1.8-1.8-3.2c-1-2.7,0.6-4.8,1.9-7c0.4-0.5,0.8-1,1.2-1.5c2.3-3.7,3.6-7.8,6.5-11.2
	c2.9-3.3,5.1-2.8,7.1,0.4c4.7,7.8,7.6,15.9,5,25.3c6.6-7.2,16.3-11.3,19.3-21.9c3.3-12.1,12.7-20.2,25.2-24.6
	c2.3-0.8,5.2-1.5,7.1,0.2c1.8,1.7,0.2,4-0.5,6c-4,12.1-12.6,20.5-25.2,24.5c-5.1,1.6-8.6,4-11.9,7.6c-3.9,4.2-8,8.3-12.6,13.1
	c3,0.2,5.5,0.4,8,0.5c7.3,0.4,13.6,3,19,7.5c5.4,4.5,5.1,6-1.7,8.6c-11.9,4.6-23.3,3.1-33.4-3.9c-3.8-2.6-5.6-2-8.6,0.5
	C1020.1,442.5,1012.3,448.2,1004.6,454z"/>
<path id="XMLID_274_" class="st3" d="M1000.5,460.1c-6.5,1.7-13.2,0.9-19.8,0.8c-3.8-12.7-2.2-24.4,6.9-34.8c3.6-4.1,6.3-4,9.4,0.5
	C1004.4,437.2,1005.6,448.3,1000.5,460.1z"/>
<path id="XMLID_273_" class="st3" d="M938.2,336.3c-1.6-0.3-3.2-0.6-4.7-1c1.8-2.5,3.9-4.9,3.9-8.1c0.6-0.5,1.1-1.1,1.7-1.6
	c1.1-1.1,0.8-4,3.7-2.5c2.9,1.4,1.9,3.3,0.5,5.3c-0.7,0.9-1.1,2.1-1.6,3.1C940.5,333.1,939.3,334.7,938.2,336.3z"/>
<path id="XMLID_271_" class="st3" d="M931.9,335.3c-2.4,4.6-2.1,9.9-3.5,14.8c-2.3,7.7-7.8,13.8-10.2,21.3c-1.4,4.4-4.3,5.7-8.3,2.1
	c3.8-10.1,7.5-20.3,11.3-30.4C923,338.4,926,335,931.9,335.3z"/>
<path id="XMLID_315_" class="st3" d="M1876.5,401.7c-3.1-6.4-6.2-12.8-9.3-19.1c-0.4-0.7-0.7-2-2.1-1.6c-1.1,2.4-0.2,5-0.6,7.4
	c0.1,1.9-1.2,3.5-1.2,5.4c3,23.6,5.4,47.2,7.8,70.8c0.4,3.9,3.6,7.8,0.6,11.9c-3,0.6-4.6-2.1-7.2-2.4c-10.8-7.7-22.5-13.9-35.7-16.5
	s-26.6-3.6-39.1,3.2c-6.1,3.3-7.2,6.7-3.8,12.5c2.3,3.9,5.1,7.5,8.9,10.3c8.1,5.9,15.7,12.6,25.1,16.8c1.2,0.5,1.7,1.6,2.3,2.7
	c2.3,2.1,3.6,4.5,2.5,7.7c-0.6,1.7,0.2,3.4,0.5,5.1c0.1,0.6,0.3,1.1,0.5,1.6c0.3,0.5,0.7,0.8,1.2,1.1c3.3,1.5,5.4,4.5,8.8,5.9
	c0.9,0.6,1.8,1.3,2.6,2c0.5,0.3,1,0.6,1.4,0.9c2.9,0.6,5.3,2.3,7.4,4.1c14.7,12.4,28.7,25.3,37.9,42.1c3.3,5.9,7.2,11.6,10.2,17.7
	c2.4,4.9,8.5,6.5,11.1,11.4c1.8,3.4,4.9,6.2,6.8,9.6c3,5.2,8.2,7.9,14.1,9.5c23.1,0,46.3,0,69.4,0c3.8-3.2,2.9-6.7,0-9.7
	c-2.5-2.6-3.7-5.3-3.8-8.8c-0.1-3.3-1.9-6.3-3.4-9.3c-6.1-12.4-11.6-25.1-16.6-38c-5-12.8-10-25.6-16.5-37.8
	c-1.3-2.5-1.8-5.2-2.4-7.7c-1.7-7.3-5.8-13.5-8.7-18.8c0.4,6.3,8.2,8.6,12.3,13.7c1.9,2.4,5.7,0.9,6.5-2.3c1-3.9-0.6-6.8-4.4-8.6
	c-0.5-0.3-0.8-0.8-0.7-1.4c-0.5-5.8,0.2-11.3,2.7-16.8c1.8-4-0.4-8.8,1.8-13c-2.6-5.7-8.1-8.7-13-12.1c-7.6-5.3-14.6-11.3-22.7-15.9
	c-2.2-1.3-4.3-2.2-6.9-1.9c-2.3,0.6-3.8-2.3-6.2-1.3c-2.2,2.9-3.1,6.5-3.4,9.8c-0.8,10.2-0.8,20.4,0,29.5c0.6,1.9-0.3,1.9,0.5,1.7
	c0,0,0-0.2-0.1-0.5c-6.2-15.5-12.9-30.8-21.1-45.5c-2.7-4.8-6.8-9.2-7.6-14.9C1882.2,407.9,1878.7,405.2,1876.5,401.7z"/>
<path id="XMLID_314_" class="st3" d="M1587.1,575.2c-11-1-11.7,8.1-15.6,14.1c-1.8,1.5-4.3,2.4-5.1,4.8c-1.8,5.3-5.8,7.1-11.4,6.5
	c-1.4,0-2.8,0-4.3,0.1c-2.4-0.1-4.7,0.5-7,1c-2.4,0.4-4.9,0.2-7.3,0.2c-19.1,1.9-38.3,3.3-57.3,5.9c-1.4,0.2-2.9-0.1-4.3-0.3
	c-18.3,2.7-36.8,2.9-55.1,5.5c-1.9,0.1-3.9-0.4-5.8,0.4c-0.6,0.2-1.1,0.4-1.7,0.6c-1.5,0.3-3.1,0.3-4.5,0.7
	c-7.6,0.9-15.2,1.2-22.8,1.7c-5.7,0.3-11.3,1.5-17,2c-2.2,0.2-4.7,0.4-4.5,3.5c181.3,0,362.6,0,544,0c0.4-0.4,0.8-0.4,1.2,0
	c1.2,0,2.5,0,3.7,0c2.5-2.1,2-4.6,0.5-6.9c-2.8-4.3-5-8.9-7.7-13.3c-2.1-3.4-4.9-5.1-9.1-4.7c-0.6,0.1-1.5,0.5-1.8,0.2
	c-6.8-6.7-17.2-1-24.4-6.2c-1.8-1.3-4.2-1.8-6.5-1.2c-2.3,0.5-3.8-0.4-5.6-1.5c-5.4-3.5-10.7-0.8-11.2,5.4c-0.2,2.5,0.4,5,0.3,7.1
	c-0.7,0.6-1.3,0.8-1.5,0.6c-5.9-8.5-16.6-9.3-25-13.8c-3.4-1.8-7.9-1.5-11.8-2.3c-6.3-1.3-12.4-3.5-17.4-3.6
	c6.2,0.6,13.6,3.2,21.4,4.2c4.5,0.6,7.3-3.4,5.3-7.4c-1.5-3-4.3-4.9-7.6-5.5c-4.1-0.7-6.9-2.3-8.1-6.1c-0.5-1.6-1.8-3.3-3.4-3
	c-8.5,1.7-11.9-5.7-17.8-8.5c-4.5-2.1-7.4-5.3-9.8-9.4c-2.8-4.7-8.9-5.4-13.5-7.7c-9.9-5-20.2-9.8-31.4-11.3c-7.9-1-16.1-3.1-24,0.2
	c-1.5,1.5-2,3.1-0.5,4.9c0,3.4,0,6.7,0,10.1c-2,2-2.1,4.4-1.6,7c1,5.1,2.1,10.2,4.4,14.9c1.1,3.3,0.9,5.1-3.9,5.2
	c-6.1,0.2-12,0.9-18.1-1c-6-1.8-12.1,0.9-18.1,1.7c-2.6,0.3-4.7,0.6-6.9-1c-3.6-2.7-8.3-3.1-12.2-2.1c-3.4,0.9-5.3-0.1-7.6-1.5
	c-3.7-1-7.7,0.2-10,2c-7.5,5.7-16.5,3.5-24.7,5.1C1597.5,573.5,1592.1,573.4,1587.1,575.2z"/>
<path id="XMLID_313_" class="st3" d="M2029.9,621.8c5.8,0,11.6-0.1,17.3,0.1c2.2,0.1,2.9-0.4,2.5-2.4c-0.2-0.9,0-1.9,0-2.9
	c0-72.4,0-144.8,0-217.1c-1.9-5.8-4.6-11.1-10.1-14.8c-2-1.4-4-2.7-6.6-2.7c-3.2-0.7-6.4,0-9.6-1c-3.7-1.1-6.9,3.5-6.3,8.5
	c0.3,2.2,1.5,4,2.4,6c0.7,1.5,2.6,2.9,0.2,4.5c-1.5,1-2.6,3.1-4.6,2.5c-2.2-0.6-2.6-2.8-2.6-4.8c0-0.6,0-1.2-0.2-1.7
	c-0.8-3.6-3.2-5.6-7.1-4.9c-4.1,0.8-5.2,3.8-3.9,7.2c3.1,8-3.6,13.7-5.5,20.4c-0.5,1.9-4.1,0.5-5.4,2.1c-3.5,4.2-7.2,8.2-11.1,12.1
	c-2.2,2.2,0.6,4.5,3.1,6.2c-1.5,1.2-2.5,2.8-4.6,4c-2.1-2.5-2.7-6.4-6.8-7c-2.4-0.4-4.5,0.2-6.2,1.9c-3.1,8.5-4.4,17.1-2.1,26
	c-1.8,4-1.3,6.6,3.8,8.5c8.5,3.3,13.4,10.7,19.3,16.8c10.5,10.8,18.6,23.1,26,35.8c9.8,16.8,16.7,34.8,18.3,53.9
	c1,12,0.2,24.4-1.8,36.5C2027.9,617.8,2027.7,620.1,2029.9,621.8z"/>
<path id="XMLID_312_" class="st3" d="M1703,527.5c1.1,0.9,1.2,3.1,3.7,2.1c4-1.6,8,0.1,11.8,0.1c8.2,0,15.1,2.2,22.5,4.8
	c7.7,2.7,14.6,6.8,22.3,9.5c2,0.7,3.6,1.7,5.2,3c3.3,2.8,4.3,4.8-1.4,6.7c2.7,0.6,5.4,1.2,8.1,1.7c1.9,0.3,3.9,0.8,4.5,2.6
	c1.4,4.4,4.7,4.9,9,3.7c0.2,2.8-3,5.9,0.7,7.6c4,1.8,5.8-2.6,9.5-3.9c1.1,6.2,4,10.5,11.4,10.4c1.5,0,3.2,1.6,4.6,2.7
	c1.1,0.9,2.1,2.1,1.4,3.6c-0.8,1.7-2.4,1.9-4.2,1.8c-6.3-0.4-11.8-4-18.2-4c-3.8,0-7.6-0.7-13-1.2c8.1,6.2,16.8,6.2,24.6,7.9
	c9.1,2,17.6,5.6,26.3,8.5c4.9,1.7,8.3,4.4,11.1,8.2c1.2,1.7,3.2,3.7,5.6,2.7c3-1.2,1.8-4,1.6-6.2c-0.1-1.1-0.5-2.3-0.7-3.4
	c-0.8-4.4,0.2-7.6,5.7-8c-0.3,4.2,2.3,5.9,7.8,4.2c2.7-0.8,4.7-1.4,6.2,1.4c0.6,1.2,1.7,1.8,3,1.4c3.7-1.1,5.4,0.8,6.6,3.6
	c0.5,1,0.9,2.4,2.5,2c1.3-0.3,1.2-1.4,1-2.4c-0.3-1.8-0.4-3.8,1.9-4.3c2.2-0.5,2.9,1.6,4.2,2.9c2.4,2.5,4.7,6,9,1.9
	c1.3-1.2,3-0.4,3.7,0.7c4,7.1,9.4,13.6,11.5,21.6c5,0,9.9,0,14.9,0c-7.7-5.1-11.7-13.3-18.1-19.5c-10.5-10.1-16.6-22.7-24-34.5
	c-10.1-16-24-28.9-39-40.8c-1.8-1.5-3.9-2.1-6.3-1.9c-5.2-3.9-12-4.4-17.8-7.2c-4.3-2.1-10.7-4.7-16.7-2.6c0-0.1-0.4,0.1-0.4,0.1
	c0-0.1-0.3,0-0.3-0.1c-0.1-0.3-0.2-0.6-0.3-0.9c-2.8-4.4-6.7-5.2-11-2.5c-3.6,2.3-8.1,1.3-11.7,3.4c-0.8,0.4-2.1-0.2-2.8-0.9
	c-8.4-7.9-17.5-8.9-27.6-2.8c-1.5,0.9-3.2,1.9-5.2,1.4c-0.4-0.2-0.9-0.4-1.3-0.6c-2.1-1.3-4.4-1.8-6.7-0.7c-0.2,0-0.4,0.1-0.6,0.1
	c-1.2-0.2-2.1-1-3.4-1.2c-4.2-0.2-8,1.4-11.7,2.9c-4.6,1.9-9.2,4.1-13.8,6.1C1705.4,521.1,1701,522.5,1703,527.5z"/>
<path id="XMLID_311_" class="st3" d="M2029.9,621.8c3.2-14,3.8-28.4,3.2-42.5c-0.6-14.2-5.4-28-11.4-41.3
	c-8.6-19.1-20.8-36.2-34.8-52.1c-5.7-6.5-12.8-11.8-19.1-17.8c-1.5-1.4-6.8,2.1-4.7-3.4c0.3-1.3-0.3-1.6-1.4-0.9
	c-1.4,3-2.7,5.8-1.9,9.3c0.8,3.4-3.6,5.1-3.9,9.1c-0.3,4.5,0.4,8.5,0.9,12.8l0,0c2.4,1.9,4.8,3.8,4.8,7c0,1.2-0.1,2.5-1.7,2.6
	c-1.2,0.1-1.7-1-1.7-2c-0.1-2.8-1.7-4-4.6-4.5c-3-0.5-3.9-3.1-5.3-5.2c-2.1-2.9-2.5-7-6.7-8.8c-0.7,9.1,6.4,15.7,8.1,23.8
	c2.8,13.4,11,24.8,15.6,37.6c6.3,18,14.2,35.4,22.9,52.5c3,5.9-0.8,14.3,7.9,18.2c0.9,0.4,0.4,3.6,0.5,5.6
	C2007.6,621.8,2018.8,621.8,2029.9,621.8z"/>
<path id="XMLID_285_" class="st3" d="M2033.2,383.8c-12.3-8.8-33.9-6.9-45.2,4.1c-5.7,5.5-9.9,11.8-12.9,18.8
	c-4.3,10.1-7.3,20.4-8.2,31.3c3.5,0.1,7.4-0.7,6,5.1c-0.6,2.6,5.2,1.9,3.7,5.8c4.9-2.4,5-7.7,10-9.4c-2.1-1.7-4.1-3.3-6-4.9
	c3.7-3.6,10.5-4.5,10-11.3c-0.1-1.1,1.9-1.5,3.1-1.1c3.6,1.1,5.4-1.8,6.3-3.5c2.1-4.3,2.9-9.1,6-13.2c1.7-2.3-0.6-5.5-2.1-8.1
	c-0.9-1.5-1.1-3,0.6-4.1c1.7-1,3.2-0.3,4.5,0.7c2,1.6,0.9,2.4-0.8,3.4c-2,1.2-0.5,2.3,0.6,3.1c2.4,1.8,5.4,3.4-0.4,6.5
	c7.7,0.6,11.5-3.8,16.2-5.8c1.8-0.8,2-4.9,0.2-5.7c-7-3.2-4.6-8-3.2-13.5C2025.1,386.5,2029.3,383,2033.2,383.8z"/>
<path id="XMLID_284_" class="st3" d="M1765.3,511.3c1.6-0.1,3.4,0.6,4.8-0.9c-8.6-6.3-17.1-12.6-25.7-18.8c-2.9-2.1-4.3-3.8-1.8-7.5
	c2.2-3.3,2.9-7.5,4.3-11.4c1-0.9,1.8-1.8,1.8-3.2c1-2.7-0.6-4.8-1.9-7c-0.4-0.5-0.8-1-1.2-1.5c-2.3-3.7-3.6-7.8-6.5-11.2
	c-2.9-3.3-5.1-2.8-7.1,0.4c-4.7,7.8-7.6,15.9-5,25.3c-6.6-7.2-16.3-11.3-19.3-21.9c-3.3-12.1-12.7-20.2-25.2-24.6
	c-2.3-0.8-5.2-1.5-7.1,0.2c-1.8,1.7-0.2,4,0.5,6c4,12.1,12.6,20.5,25.2,24.5c5.1,1.6,8.6,4,11.9,7.6c3.9,4.2,8,8.3,12.6,13.1
	c-3,0.2-5.5,0.4-8,0.5c-7.3,0.4-13.6,3-19,7.5s-5.1,6,1.7,8.6c11.9,4.6,23.3,3.1,33.4-3.9c3.8-2.6,5.6-2,8.6,0.5
	C1749.8,499.8,1757.6,505.5,1765.3,511.3z"/>
<path id="XMLID_283_" class="st3" d="M1769.4,517.4c6.5,1.7,13.2,0.9,19.8,0.8c3.8-12.7,2.2-24.4-6.9-34.8c-3.6-4.1-6.3-4-9.4,0.5
	C1765.5,494.5,1764.3,505.6,1769.4,517.4z"/>
<g id="XMLID_320_">
	<path id="XMLID_319_" class="st3" d="M1278.5,412.8c0.5,0,1,0,1.5,0c1.6,0.1,3.5-1,4.7,1c2.4,6.2,1,12.1-1.3,18
		c-5,12.6-9.8,25.2-14.5,37.9c-1.1,3-2.3,6.5-5.6,7.2c-7,1.4-7.8,6.6-9.2,11.4c-0.9,2.9-2.5,5.8-1.8,9c-2.2,1.4-4.6,1.7-7.1,1.3
		c1.3-4.4,2.6-8.8,4-13.3c1.5-4.8,3.1-9.1,1.6-14.8c-1.7-6.7,3.1-13.2,5.8-19.6c4.5-1.5,6.4-5.1,8.5-8.9c4.4-8,8.3-16.1,9.6-25.2
		C1274.9,414.9,1276.6,413.7,1278.5,412.8z"/>
	<path id="XMLID_318_" class="st3" d="M1284.8,413.8c-1.6-0.3-3.2-0.6-4.7-1c1.8-2.5,3.9-4.9,3.9-8.1c0.6-0.5,1.1-1.1,1.7-1.6
		c1.1-1.1,0.8-4,3.7-2.5c2.9,1.4,1.9,3.3,0.5,5.3c-0.7,0.9-1.1,2.1-1.6,3.1C1287.1,410.6,1286,412.2,1284.8,413.8z"/>
	<path id="XMLID_317_" class="st3" d="M1278.5,412.8c-2.4,4.6-2.1,9.9-3.5,14.8c-2.3,7.7-7.8,13.8-10.2,21.3
		c-1.4,4.4-4.3,5.7-8.3,2.1c3.8-10.1,7.5-20.3,11.3-30.4C1269.6,415.9,1272.6,412.5,1278.5,412.8z"/>
	<polyline id="XMLID_321_" class="st3" points="1244.9,498.8 1218.4,614 1224,614 1252.2,497.3 	"/>
</g>
<g id="XMLID_322_">
	<path id="XMLID_326_" class="st3" d="M1624,413.8c-0.5,0-1,0-1.5,0c-1.6,0.1-3.5-1-4.7,1c-2.4,6.2-1,12.1,1.3,18
		c5,12.6,9.8,25.2,14.5,37.9c1.1,3,2.3,6.5,5.6,7.2c7,1.4,7.8,6.6,9.2,11.4c0.9,2.9,2.5,5.8,1.8,9c2.2,1.4,4.6,1.7,7.1,1.3
		c-1.3-4.4-2.6-8.8-4-13.3c-1.5-4.8-3.1-9.1-1.6-14.8c1.7-6.7-3.1-13.2-5.8-19.6c-4.5-1.5-6.4-5.1-8.5-8.9c-4.4-8-8.3-16.1-9.6-25.2
		C1627.7,415.9,1626,414.7,1624,413.8z"/>
	<path id="XMLID_325_" class="st3" d="M1617.8,414.8c1.6-0.3,3.2-0.6,4.7-1c-1.8-2.5-3.9-4.9-3.9-8.1c-0.6-0.5-1.1-1.1-1.7-1.6
		c-1.1-1.1-0.8-4-3.7-2.5c-2.9,1.4-1.9,3.3-0.5,5.3c0.7,0.9,1.1,2.1,1.6,3.1C1615.5,411.6,1616.6,413.2,1617.8,414.8z"/>
	<path id="XMLID_324_" class="st3" d="M1624,413.8c2.4,4.6,2.1,9.9,3.5,14.8c2.3,7.7,7.8,13.8,10.2,21.3c1.4,4.4,4.3,5.7,8.3,2.1
		c-3.8-10.1-7.5-20.3-11.3-30.4C1633,416.9,1630,413.5,1624,413.8z"/>
	<polyline id="XMLID_323_" class="st3" points="1657.7,499.8 1684.2,615 1678.6,615 1650.4,498.3 	"/>
</g>
<g id="XMLID_327_">
	<path id="XMLID_331_" class="st3" d="M1938,333.8c-0.5,0-1,0-1.5,0c-1.6,0.1-3.5-1-4.7,1c-2.4,6.2-1,12.1,1.3,18
		c5,12.6,9.8,25.2,14.5,37.9c1.1,3,2.3,6.5,5.6,7.2c7,1.4,7.8,6.6,9.2,11.4c0.9,2.9,2.5,5.8,1.8,9c2.2,1.4,4.6,1.7,7.1,1.3
		c-1.3-4.4-2.6-8.8-4-13.3c-1.5-4.8-3.1-9.1-1.6-14.8c1.7-6.7-3.1-13.2-5.8-19.6c-4.5-1.5-6.4-5.1-8.5-8.9c-4.4-8-8.3-16.1-9.6-25.2
		C1941.7,335.9,1940,334.7,1938,333.8z"/>
	<path id="XMLID_330_" class="st3" d="M1931.8,334.8c1.6-0.3,3.2-0.6,4.7-1c-1.8-2.5-3.9-4.9-3.9-8.1c-0.6-0.5-1.1-1.1-1.7-1.6
		c-1.1-1.1-0.8-4-3.7-2.5c-2.9,1.4-1.9,3.3-0.5,5.3c0.7,0.9,1.1,2.1,1.6,3.1C1929.5,331.6,1930.6,333.2,1931.8,334.8z"/>
	<path id="XMLID_329_" class="st3" d="M1938,333.8c2.4,4.6,2.1,9.9,3.5,14.8c2.3,7.7,7.8,13.8,10.2,21.3c1.4,4.4,4.3,5.7,8.3,2.1
		c-3.8-10.1-7.5-20.3-11.3-30.4C1947,336.9,1944,333.5,1938,333.8z"/>
	<polyline id="XMLID_328_" class="st3" points="1971.7,419.8 1998.2,535 1992.6,535 1964.4,418.3 	"/>
</g>
<g id="XMLID_286_">
	<path id="XMLID_334_" class="st3" d="M1783,373.8c-0.5,0-1,0-1.5,0c-1.6,0.1-3.5-1-4.7,1c-2.4,6.2-1,12.1,1.3,18
		c5,12.6,9.8,25.2,14.5,37.9c1.1,3,2.3,6.5,5.6,7.2c7,1.4,7.8,6.6,9.2,11.4c0.9,2.9,2.5,5.8,1.8,9c2.2,1.4,4.6,1.7,7.1,1.3
		c-1.3-4.4-2.6-8.8-4-13.3c-1.5-4.8-3.1-9.1-1.6-14.8c1.7-6.7-3.1-13.2-5.8-19.6c-4.5-1.5-6.4-5.1-8.5-8.9c-4.4-8-8.3-16.1-9.6-25.2
		C1786.7,375.9,1785,374.7,1783,373.8z"/>
	<path id="XMLID_333_" class="st3" d="M1776.8,374.8c1.6-0.3,3.2-0.6,4.7-1c-1.8-2.5-3.9-4.9-3.9-8.1c-0.6-0.5-1.1-1.1-1.7-1.6
		c-1.1-1.1-0.8-4-3.7-2.5c-2.9,1.4-1.9,3.3-0.5,5.3c0.7,0.9,1.1,2.1,1.6,3.1C1774.5,371.6,1775.6,373.2,1776.8,374.8z"/>
	<path id="XMLID_332_" class="st3" d="M1783,373.8c2.4,4.6,2.1,9.9,3.5,14.8c2.3,7.7,7.8,13.8,10.2,21.3c1.4,4.4,4.3,5.7,8.3,2.1
		c-3.8-10.1-7.5-20.3-11.3-30.4C1792,376.9,1789,373.5,1783,373.8z"/>
	<polyline id="XMLID_316_" class="st3" points="1816.7,459.8 1843.2,575 1837.6,575 1809.4,458.3 	"/>
</g>
<path id="XMLID_335_" class="st3" d="M1396.4,611.7c-8.7-23.3-18.9-58.7-19.2-101.6c-0.3-48.9,12.3-86.6,22.3-109.4
	c4.6,6.5,8.8,13.3,12.7,20.5c41.2,76.2,20.1,154.8,4.7,195.3"/>
<path id="XMLID_336_" class="st3" d="M1365.5,629c-12.6-21.9-28.8-56-37.2-100.4c-9.6-50.7-5-93.2-0.1-119.5
	c5.5,5.5,10.7,11.5,15.7,17.9c52.8,68.2,48.1,155.4,41.5,201.6"/>
<path id="XMLID_337_" class="st3" d="M1657.5,657.5c-17.8-21.5-41.2-54.7-55.5-97.4c-16.2-48.7-13.6-88.8-9.2-113.6
	c7.5,5.6,14.7,11.5,21.5,17.8c73.1,67.7,73.7,150.3,68.8,193.9"/>
<path id="XMLID_338_" class="st3" d="M1645.7,676.8c-5.7-27.3-10.7-67.7-3.2-112c8.5-50.6,29.8-84.8,45.2-104.6
	c4,8.4,7.5,17,10.6,25.9c32.8,94.1-5.5,167.4-30.3,203.4"/>
<g id="XMLID_341_">
	<path id="XMLID_345_" class="st3" d="M2640,137.8c-0.5,0-1,0-1.5,0c-1.6,0.1-3.5-1-4.7,1c-2.4,6.2-1,12.1,1.3,18
		c5,12.6,9.8,25.2,14.5,37.9c1.1,3,2.3,6.5,5.6,7.2c7,1.4,7.8,6.6,9.2,11.4c0.9,2.9,2.5,5.8,1.8,9c2.2,1.4,4.6,1.7,7.1,1.3
		c-1.3-4.4-2.6-8.8-4-13.3c-1.5-4.8-3.1-9.1-1.6-14.8c1.7-6.7-3.1-13.2-5.8-19.6c-4.5-1.5-6.4-5.1-8.5-8.9c-4.4-8-8.3-16.1-9.6-25.2
		C2643.7,139.9,2642,138.7,2640,137.8z"/>
	<path id="XMLID_344_" class="st3" d="M2633.8,138.8c1.6-0.3,3.2-0.6,4.7-1c-1.8-2.5-3.9-4.9-3.9-8.1c-0.6-0.5-1.1-1.1-1.7-1.6
		c-1.1-1.1-0.8-4-3.7-2.5c-2.9,1.4-1.9,3.3-0.5,5.3c0.7,0.9,1.1,2.1,1.6,3.1C2631.5,135.6,2632.6,137.2,2633.8,138.8z"/>
	<path id="XMLID_343_" class="st3" d="M2640,137.8c2.4,4.6,2.1,9.9,3.5,14.8c2.3,7.7,7.8,13.8,10.2,21.3c1.4,4.4,4.3,5.7,8.3,2.1
		c-3.8-10.1-7.5-20.3-11.3-30.4C2649,140.9,2646,137.5,2640,137.8z"/>
	<polyline id="XMLID_342_" class="st3" points="2673.7,223.8 2700.2,339 2694.6,339 2666.4,222.3 	"/>
</g>
<path id="XMLID_340_" class="st3" d="M2673.5,381.5c-17.8-21.5-41.2-54.7-55.5-97.4c-16.2-48.7-13.6-88.8-9.2-113.6
	c7.5,5.6,14.7,11.5,21.5,17.8c73.1,67.7,73.7,150.3,68.8,193.9"/>
<path id="XMLID_339_" class="st3" d="M2667.7,420.8c-5.7-27.3-10.7-67.7-3.2-112c8.5-50.6,29.8-84.8,45.2-104.6
	c4,8.4,7.5,17,10.6,25.9c32.8,94.1-5.5,167.4-30.3,203.4"/>
<polygon id="XMLID_346_" class="st2" points="2288.1,376.8 2275.2,354 2288,354 2297.7,361.2 "/>
<g id="Rock_4">
	<path id="XMLID_474_" class="st3" d="M2769.5,454.3c-8.6-22.8-56.1-94.4-76.8-104.3c-70.4-33.8-70.4-124.1-102.4-141
		s-89.6,59.2-96,93s-66.1,118.4-59.7,143.8c6.4,25.4,25.6,39.5,25.6,39.5c1.8,6,7.6,10.9,15.9,14.8l0.2-0.8c0,0,9.3-16.5,9.3-24.7
		s-24.9-24.7-24.9-24.7l9.3-10.3l20.2,8.2c0,0,43.6,30.9,56.1,20.6c12.4-10.3,186.8-12.3,186.8-12.3l-6.2,22.6l14,14.4v2.2
		C2761.5,488.8,2778.3,477.6,2769.5,454.3z"/>
	<path id="XMLID_464_" class="st3" d="M2780.7,464.4l6.2-22.6c0,0-174.4,2.1-186.8,12.3c-12.5,10.3-56.1-20.6-56.1-20.6l-20.2-8.2
		l-9.3,10.3c0,0,24.9,16.5,24.9,24.7s-9.3,24.7-9.3,24.7l-0.2,0.8c51,24.3,203.7,15,216.5,7.7c7.2-4.1,29.3-6.2,48.4-12.4v-2.2
		L2780.7,464.4z"/>
	<path id="XMLID_461_" class="st3" d="M2580.7,219.3c-2.8-14.5-49.8,32.9-57.6,47.4c-7.8,14.4-15.6,32.9-6.2,32.9
		c9.3,0,42,2,35.8-10.3C2546.5,277,2582.3,227.6,2580.7,219.3z"/>
</g>
<g id="Grass_1">
	<path id="XMLID_488_" class="st3" d="M1229,635c0,0,30.1-90.5-13.3-236.9C1294,528.1,1244.3,607.2,1229,635z"/>
	<path id="XMLID_479_" class="st3" d="M1242.6,602.5c0,0,8.5-67.7-70.6-119.1c68.3,66.5,56.9,122,65.4,156.6L1242.6,602.5z"/>
	<path id="XMLID_478_" class="st3" d="M1244.4,617.7c0,0-15.3-67.4,35.8-98.7C1269.8,542.1,1254,573.6,1244.4,617.7z"/>
	<path id="XMLID_477_" class="st3" d="M1236,624.4c0,0-1-45.9,31.2-56.6C1273.7,563,1257.9,594.8,1236,624.4z"/>
	<path id="XMLID_476_" class="st3" d="M1239.9,552.3c0,0,24.3-46.1-44.8-126C1212.5,461.6,1233.1,507.2,1239.9,552.3z"/>
	<path id="XMLID_460_" class="st3" d="M1243.1,581.4c0,0,3.4-112.6,58.9-129.5C1270,499.6,1261.6,525.8,1243.1,581.4z"/>
	<path id="XMLID_490_" class="st3" d="M1172.6,647.6c0,0,1.9-95.4-82.9-222.3C1202.9,526.2,1178.9,616.5,1172.6,647.6z"/>
	<path id="XMLID_495_" class="st3" d="M1511.6,580.9c0,0,8.5-67.7-70.6-119.1c68.3,66.5,56.9,122,65.4,156.6L1511.6,580.9z"/>
	<path id="XMLID_494_" class="st3" d="M1513.1,596.1c0,0-15.3-67.4,35.8-98.7C1538.5,520.5,1522.6,552,1513.1,596.1z"/>
	<path id="XMLID_493_" class="st3" d="M1508.3,602.8c0,0-1-45.9,31.2-56.6C1546,541.4,1530.2,573.2,1508.3,602.8z"/>
	<path id="XMLID_492_" class="st3" d="M1510.9,572.2c0,0,24.3-46.1-44.8-126C1483.4,481.5,1504.1,527.1,1510.9,572.2z"/>
	<path id="XMLID_491_" class="st3" d="M1508.3,562.2c0,0,3.4-112.6,58.9-129.5C1535.2,480.4,1526.8,506.6,1508.3,562.2z"/>
	<path id="XMLID_500_" class="st3" d="M1454.2,574.4c0,0,5.5-35.1-45.8-61.7c44.3,34.5,36.9,63.3,42.4,81.2L1454.2,574.4z"/>
	<path id="XMLID_499_" class="st3" d="M1455.2,582.3c0,0-9.9-34.9,23.2-51.2C1471.6,543.1,1461.3,559.4,1455.2,582.3z"/>
	<path id="XMLID_498_" class="st3" d="M1452.1,585.8c0,0-0.6-23.8,20.2-29.3C1476.5,553.9,1466.2,570.4,1452.1,585.8z"/>
	<path id="XMLID_497_" class="st3" d="M1453.8,569.9c0,0,15.8-23.9-29-65.3C1436,522.9,1449.3,546.5,1453.8,569.9z"/>
	<path id="XMLID_496_" class="st3" d="M1452.1,564.7c0,0,2.2-58.4,38.1-67.2C1469.5,522.3,1464.1,535.9,1452.1,564.7z"/>
	<path id="XMLID_505_" class="st3" d="M1574.4,581.7c0,0-6-42.7,49.7-75.1c-48.1,42-40.1,77-46.1,98.8L1574.4,581.7z"/>
	<path id="XMLID_504_" class="st3" d="M1573.4,591.2c0,0,10.8-42.5-25.2-62.3C1555.5,543.5,1566.7,563.4,1573.4,591.2z"/>
	<path id="XMLID_503_" class="st3" d="M1576.8,595.5c0,0,0.7-28.9-22-35.7C1550.2,556.8,1561.4,576.8,1576.8,595.5z"/>
	<path id="XMLID_502_" class="st3" d="M1574.9,576.2c0,0-17.1-29.1,31.6-79.5C1594.3,519,1579.8,547.7,1574.9,576.2z"/>
	<path id="XMLID_501_" class="st3" d="M1576.8,569.9c0,0-2.4-71-41.5-81.7C1557.8,518.3,1563.7,534.8,1576.8,569.9z"/>
	<path id="XMLID_512_" class="st3" d="M1137.9,620.9c0,0-4.5-88.4,76-203.6C1104.6,507.6,1130.8,591.9,1137.9,620.9z"/>
	<path id="XMLID_517_" class="st3" d="M1478.7,598c0,0,8.5-67.7-70.6-119.1c68.3,66.5,56.9,122,65.4,156.6L1478.7,598z"/>
	<path id="XMLID_516_" class="st3" d="M1480.1,613.2c0,0-15.3-67.4,35.8-98.7C1505.5,537.6,1489.6,569.1,1480.1,613.2z"/>
	<path id="XMLID_515_" class="st3" d="M1475.4,619.9c0,0-1-45.9,31.2-56.6C1513,558.5,1497.2,590.3,1475.4,619.9z"/>
	<path id="XMLID_514_" class="st3" d="M1478,589.3c0,0,24.3-46.1-44.8-126C1450.5,498.6,1471.1,544.2,1478,589.3z"/>
	<path id="XMLID_513_" class="st3" d="M1475.4,579.3c0,0,3.4-112.6,58.9-129.5C1502.3,497.5,1493.9,523.8,1475.4,579.3z"/>
	<path id="XMLID_522_" class="st3" d="M1309.4,592.6c0,0,8.5-67.7-70.6-119.1c68.3,66.5,56.9,122,65.4,156.6L1309.4,592.6z"/>
	<path id="XMLID_521_" class="st3" d="M1310.9,607.8c0,0-15.3-67.4,35.8-98.7C1336.3,532.2,1320.4,563.7,1310.9,607.8z"/>
	<path id="XMLID_520_" class="st3" d="M1306.1,614.5c0,0-1-45.9,31.2-56.6C1343.8,553.2,1328,584.9,1306.1,614.5z"/>
	<path id="XMLID_519_" class="st3" d="M1308.7,583.9c0,0,24.3-46.1-44.8-126C1281.3,493.3,1301.9,538.9,1308.7,583.9z"/>
	<path id="XMLID_518_" class="st3" d="M1306.1,573.9c0,0,3.4-112.6,58.9-129.5C1333,492.2,1324.6,518.4,1306.1,573.9z"/>
	<path id="XMLID_527_" class="st3" d="M1085.9,560c0,0,8.5-67.7-70.6-119.1c68.3,66.5,56.9,122,65.4,156.6L1085.9,560z"/>
	<path id="XMLID_526_" class="st3" d="M1087.4,575.2c0,0-15.3-67.4,35.8-98.7C1112.8,499.6,1096.9,531.1,1087.4,575.2z"/>
	<path id="XMLID_525_" class="st3" d="M1082.6,581.9c0,0-1-45.9,31.2-56.6C1120.3,520.5,1104.5,552.3,1082.6,581.9z"/>
	<path id="XMLID_524_" class="st3" d="M1085.2,551.3c0,0,24.3-46.1-44.8-126C1057.7,460.6,1078.4,506.2,1085.2,551.3z"/>
	<path id="XMLID_523_" class="st3" d="M1082.6,541.3c0,0,3.4-112.6,58.9-129.5C1109.5,459.5,1101.1,485.8,1082.6,541.3z"/>
</g>
<g id="XMLID_511_">
	<path id="XMLID_509_" class="st3" d="M1101.8,346.8c1.6-0.3,3.2-0.6,4.7-1c-1.8-2.5-3.9-4.9-3.9-8.1c-0.6-0.5-1.1-1.1-1.7-1.6
		c-1.1-1.1-0.8-4-3.7-2.5c-2.9,1.4-1.9,3.3-0.5,5.3c0.7,0.9,1.1,2.1,1.6,3.1C1099.5,343.6,1100.6,345.2,1101.8,346.8z"/>
	<path id="XMLID_508_" class="st3" d="M1108,345.8c2.4,4.6,2.1,9.9,3.5,14.8c2.3,7.7,7.8,13.8,10.2,21.3c1.4,4.4,4.3,5.7,8.3,2.1
		c-3.8-10.1-7.5-20.3-11.3-30.4C1117,348.9,1114,345.5,1108,345.8z"/>
	<g id="XMLID_506_">
		<path id="XMLID_510_" class="st3" d="M1108,345.8c-0.5,0-1,0-1.5,0c-1.6,0.1-3.5-1-4.7,1c-2.4,6.2-1,12.1,1.3,18
			c5,12.6,9.8,25.2,14.5,37.9c1.1,3,2.3,6.5,5.6,7.2c7,1.4,7.8,6.6,9.2,11.4c0.9,2.9,2.5,5.8,1.8,9c2.2,1.4,4.6,1.7,7.1,1.3
			c-1.3-4.4-2.6-8.8-4-13.3c-1.5-4.8-3.1-9.1-1.6-14.8c1.7-6.7-3.1-13.2-5.8-19.6c-4.5-1.5-6.4-5.1-8.5-8.9
			c-4.4-8-8.3-16.1-9.6-25.2C1111.7,347.9,1110,346.7,1108,345.8z"/>
		<polyline id="XMLID_507_" class="st3" points="1141.7,431.8 1181.5,603.4 1162.6,547 1134.4,430.3 		"/>
	</g>
</g>
</svg>
